SplineFontDB: 3.0
FontName: Tienne-Regular
FullName: Tienne
FamilyName: Tienne
Weight: Regular
Copyright: Copyright (c) 2011 by vernon adams. All rights reserved. with\nReserved Font Names "Tienne" and "Tienne Regular". This\nFont Software is licensed under the SIL Open Font License, Version\n1.1. This license is available with a FAQ at:\nhttp://scripts.sil.org/OFL
Version: 1.000
ItalicAngle: 0
UnderlinePosition: -103
UnderlineWidth: 102
Ascent: 1638
Descent: 410
sfntRevision: 0x00010000
LayerCount: 2
Layer: 0 1 "Back"  1
Layer: 1 1 "Fore"  0
XUID: [1021 14 500265001 10986547]
FSType: 0
OS2Version: 3
OS2_WeightWidthSlopeOnly: 0
OS2_UseTypoMetrics: 1
CreationTime: 1311320069
ModificationTime: 1311361117
PfmFamily: 17
TTFWeight: 400
TTFWidth: 5
LineGap: 0
VLineGap: 0
Panose: 2 4 6 3 4 5 6 3 2 4
OS2TypoAscent: 392
OS2TypoAOffset: 1
OS2TypoDescent: -314
OS2TypoDOffset: 1
OS2TypoLinegap: 0
OS2WinAscent: 0
OS2WinAOffset: 1
OS2WinDescent: 0
OS2WinDOffset: 1
HheadAscent: 0
HheadAOffset: 1
HheadDescent: 0
HheadDOffset: 1
OS2SubXSize: 1331
OS2SubYSize: 1229
OS2SubXOff: 0
OS2SubYOff: 154
OS2SupXSize: 1331
OS2SupYSize: 1229
OS2SupXOff: 0
OS2SupYOff: 717
OS2StrikeYSize: 102
OS2StrikeYPos: 512
OS2Vendor: 'newt'
OS2CodePages: 20000003.00000000
OS2UnicodeRanges: 800000ef.4000204b.00000000.00000000
Lookup: 258 0 0 "'kern' Horizontal Kerning lookup 0"  {"'kern' Horizontal Kerning lookup 0 subtable"  } ['kern' ('DFLT' <'dflt' > 'grek' <'dflt' > 'latn' <'dflt' > ) ]
MarkAttachClasses: 1
DEI: 91125
KernClass2: 4 3 "'kern' Horizontal Kerning lookup 0 subtable" 
 1 V
 1 W
 1 Y
 66 a c d agrave aacute acircumflex atilde adieresis aring ae ccedilla
 49 ograve oacute ocircumflex otilde odieresis oslash
 0 {} 0 {} 0 {} 0 {} -142 {} -119 {} 0 {} -96 {} -75 {} 0 {} -275 {} -264 {}
TtTable: prep
PUSHW_2
 2048
 2048
MUL
DUP
PUSHB_1
 10
SWAP
WS
DUP
PUSHB_1
 0
SWAP
WCVTF
PUSHB_1
 16
RCVT
DUP
DUP
PUSHB_1
 40
ADD
FLOOR
DUP
ROLL
NEQ
IF
PUSHB_1
 10
RS
MUL
SWAP
DIV
PUSHB_1
 9
SWAP
WS
PUSHB_4
 5
 6
 3

StartChar: exclam
Encoding: 33 33 7
Width: 704
GlyphClass: 2
Flags: W
LayerCount: 2
Fore
SplineSet
429 403 m 1,0,1
 397 391 397 391 358 391 c 0,2,3
 332 391 332 391 316.5 395 c 128,-1,4
 301 399 301 399 292 408.5 c 128,-1,5
 283 418 283 418 279.5 433 c 128,-1,6
 276 448 276 448 275 470 c 2,7,-1
 240 1135 l 2,8,9
 235 1235 235 1235 227 1301 c 128,-1,10
 219 1367 219 1367 219 1392 c 0,11,12
 219 1399 219 1399 219 1405.5 c 128,-1,13
 219 1412 219 1412 220 1419 c 1,14,15
 242 1438 242 1438 273.5 1447.5 c 128,-1,16
 305 1457 305 1457 353 1457 c 0,17,18
 416 1457 416 1457 441 1433 c 128,-1,19
 466 1409 466 1409 466 1358 c 0,20,21
 466 1352 466 1352 465.5 1343.5 c 128,-1,22
 465 1335 465 1335 464.5 1315 c 128,-1,23
 464 1295 464 1295 462 1259 c 128,-1,24
 460 1223 460 1223 456.5 1162 c 128,-1,25
 453 1101 453 1101 448.5 1010.5 c 128,-1,26
 444 920 444 920 437 791 c 0,27,28
 432 694 432 694 428.5 619.5 c 128,-1,29
 425 545 425 545 425 493 c 0,30,31
 425 469 425 469 426 446 c 128,-1,32
 427 423 427 423 429 403 c 1,0,1
351 -22 m 0,33,34
 315 -22 315 -22 289 -10.5 c 128,-1,35
 263 1 263 1 245.5 20.5 c 128,-1,36
 228 40 228 40 219.5 64.5 c 128,-1,37
 211 89 211 89 211 115 c 0,38,39
 211 140 211 140 220 165.5 c 128,-1,40
 229 191 229 191 246.5 211 c 128,-1,41
 264 231 264 231 290 243.5 c 128,-1,42
 316 256 316 256 351 256 c 0,43,44
 385 256 385 256 411.5 243.5 c 128,-1,45
 438 231 438 231 455.5 211 c 128,-1,46
 473 191 473 191 482 165.5 c 128,-1,47
 491 140 491 140 491 115 c 0,48,49
 491 89 491 89 482.5 64.5 c 128,-1,50
 474 40 474 40 456.5 20.5 c 128,-1,51
 439 1 439 1 412.5 -10.5 c 128,-1,52
 386 -22 386 -22 351 -22 c 0,33,34
EndSplineSet
EndChar

StartChar: quotedbl
Encoding: 34 34 8
Width: 792
GlyphClass: 2
Flags: W
LayerCount: 2
Fore
SplineSet
277 983 m 1,0,1
 266 973 266 973 252 966 c 128,-1,2
 238 959 238 959 215 959 c 256,3,4
 192 959 192 959 178.5 969 c 128,-1,5
 165 979 165 979 158 994.5 c 128,-1,6
 151 1010 151 1010 148.5 1030.5 c 128,-1,7
 146 1051 146 1051 144 1072 c 2,8,-1
 128 1260 l 2,9,10
 124 1305 124 1305 120.5 1351.5 c 128,-1,11
 117 1398 117 1398 117 1450 c 1,12,13
 134 1470 134 1470 160.5 1482 c 128,-1,14
 187 1494 187 1494 226 1494 c 0,15,16
 274 1494 274 1494 292.5 1472.5 c 128,-1,17
 311 1451 311 1451 311 1409 c 0,18,19
 311 1387 311 1387 310 1370 c 128,-1,20
 309 1353 309 1353 307 1337 c 2,21,-1
 277 983 l 1,0,1
642 983 m 1,22,23
 631 974 631 974 617 966.5 c 128,-1,24
 603 959 603 959 580 959 c 256,25,26
 557 959 557 959 544 968.5 c 128,-1,27
 531 978 531 978 523.5 993 c 128,-1,28
 516 1008 516 1008 513.5 1027.5 c 128,-1,29
 511 1047 511 1047 509 1067 c 2,30,-1
 493 1260 l 2,31,32
 489 1305 489 1305 485.5 1351.5 c 128,-1,33
 482 1398 482 1398 481 1450 c 1,34,35
 499 1470 499 1470 525.5 1482 c 128,-1,36
 552 1494 552 1494 591 1494 c 0,37,38
 639 1494 639 1494 657 1472.5 c 128,-1,39
 675 1451 675 1451 675 1409 c 0,40,41
 675 1368 675 1368 672 1337 c 2,42,-1
 642 983 l 1,22,23
EndSplineSet
EndChar

StartChar: numbersign
Encoding: 35 35 9
Width: 1240
GlyphClass: 2
Flags: W
LayerCount: 2
Fore
SplineSet
845 445 m 1,0,-1
 768 73 l 1,1,-1
 714 73 l 2,2,3
 680 73 680 73 659.5 80 c 128,-1,4
 639 87 639 87 630 107 c 1,5,6
 633 131 633 131 641 164.5 c 128,-1,7
 649 198 649 198 657 240 c 2,8,-1
 698 445 l 1,9,-1
 433 445 l 1,10,-1
 356 73 l 1,11,-1
 292 73 l 2,12,13
 280 73 280 73 267 73.5 c 128,-1,14
 254 74 254 74 243.5 77 c 128,-1,15
 233 80 233 80 226.5 85 c 128,-1,16
 220 90 220 90 220 99 c 0,17,18
 220 120 220 120 225.5 152.5 c 128,-1,19
 231 185 231 185 243 240 c 2,20,-1
 287 445 l 1,21,-1
 82 445 l 1,22,-1
 82 498 l 2,23,24
 82 520 82 520 83.5 536 c 128,-1,25
 85 552 85 552 92.5 562 c 128,-1,26
 100 572 100 572 115 577 c 128,-1,27
 130 582 130 582 157 582 c 2,28,-1
 313 582 l 1,29,-1
 368 848 l 1,30,-1
 156 848 l 1,31,-1
 156 920 l 2,32,33
 156 943 156 943 160.5 956 c 128,-1,34
 165 969 165 969 174.5 975.5 c 128,-1,35
 184 982 184 982 198 983.5 c 128,-1,36
 212 985 212 985 232 985 c 2,37,-1
 397 985 l 1,38,-1
 474 1351 l 1,39,-1
 529 1351 l 2,40,41
 563 1351 563 1351 584.5 1346.5 c 128,-1,42
 606 1342 606 1342 615 1322 c 1,43,44
 610 1305 610 1305 608 1285 c 128,-1,45
 606 1265 606 1265 601 1245 c 2,46,-1
 546 985 l 1,47,-1
 808 985 l 1,48,-1
 886 1351 l 1,49,-1
 939 1351 l 2,50,51
 965 1351 965 1351 985.5 1349.5 c 128,-1,52
 1006 1348 1006 1348 1020 1341 c 1,53,54
 1020 1336 1020 1336 1020.5 1331.5 c 128,-1,55
 1021 1327 1021 1327 1021 1319 c 0,56,57
 1019 1299 1019 1299 1014.5 1267.5 c 128,-1,58
 1010 1236 1010 1236 999 1188 c 2,59,-1
 955 985 l 1,60,-1
 1158 985 l 1,61,-1
 1158 933 l 2,62,63
 1158 910 1158 910 1156.5 894 c 128,-1,64
 1155 878 1155 878 1147.5 867.5 c 128,-1,65
 1140 857 1140 857 1125 852.5 c 128,-1,66
 1110 848 1110 848 1083 848 c 2,67,-1
 929 848 l 1,68,-1
 872 582 l 1,69,-1
 1085 582 l 1,70,-1
 1085 510 l 2,71,72
 1085 478 1085 478 1074 464 c 128,-1,73
 1063 450 1063 450 1038 445 c 1,74,-1
 845 445 l 1,0,-1
461 582 m 1,75,-1
 726 582 l 1,76,-1
 781 848 l 1,77,-1
 517 848 l 1,78,-1
 461 582 l 1,75,-1
EndSplineSet
EndChar

StartChar: dollar
Encoding: 36 36 10
Width: 1302
GlyphClass: 2
Flags: W
LayerCount: 2
Fore
SplineSet
724 1468 m 1,0,1
 787 1468 787 1468 846 1461.5 c 128,-1,2
 905 1455 905 1455 954 1442.5 c 128,-1,3
 1003 1430 1003 1430 1039.5 1411 c 128,-1,4
 1076 1392 1076 1392 1094 1368 c 1,5,6
 1093 1345 1093 1345 1092 1321 c 128,-1,7
 1091 1297 1091 1297 1088 1274 c 1,8,-1
 1042 1123 l 1,9,-1
 949 1148 l 1,10,11
 933 1186 933 1186 912 1218 c 128,-1,12
 891 1250 891 1250 864 1274.5 c 128,-1,13
 837 1299 837 1299 802.5 1316 c 128,-1,14
 768 1333 768 1333 724 1340 c 1,15,-1
 724 796 l 1,16,17
 822 755 822 755 902 712 c 128,-1,18
 982 669 982 669 1039 617.5 c 128,-1,19
 1096 566 1096 566 1127 502.5 c 128,-1,20
 1158 439 1158 439 1158 357 c 0,21,22
 1158 274 1158 274 1126 205 c 128,-1,23
 1094 136 1094 136 1036.5 85.5 c 128,-1,24
 979 35 979 35 899 4 c 128,-1,25
 819 -27 819 -27 724 -34 c 1,26,-1
 724 -238 l 1,27,-1
 656 -238 l 2,28,29
 630 -238 630 -238 615.5 -234 c 128,-1,30
 601 -230 601 -230 594 -220.5 c 128,-1,31
 587 -211 587 -211 585.5 -196 c 128,-1,32
 584 -181 584 -181 584 -159 c 2,33,-1
 584 -35 l 1,34,35
 375 -25 375 -25 200 72 c 0,36,37
 174 86 174 86 158.5 98.5 c 128,-1,38
 143 111 143 111 135 132 c 1,39,40
 135 188 135 188 144 244 c 1,41,-1
 203 375 l 1,42,-1
 303 335 l 1,43,44
 349 217 349 217 416.5 159.5 c 128,-1,45
 484 102 484 102 584 91 c 1,46,-1
 584 642 l 1,47,48
 485 686 485 686 407 728.5 c 128,-1,49
 329 771 329 771 275 820 c 128,-1,50
 221 869 221 869 192.5 929 c 128,-1,51
 164 989 164 989 164 1068 c 0,52,53
 164 1153 164 1153 193 1219.5 c 128,-1,54
 222 1286 222 1286 276.5 1334.5 c 128,-1,55
 331 1383 331 1383 408.5 1414 c 128,-1,56
 486 1445 486 1445 584 1458 c 1,57,-1
 584 1596 l 1,58,-1
 651 1596 l 2,59,60
 683 1596 683 1596 700 1585.5 c 128,-1,61
 717 1575 717 1575 724 1550 c 1,62,-1
 724 1468 l 1,0,1
372 1167 m 1,63,64
 367 1153 367 1153 365.5 1138.5 c 128,-1,65
 364 1124 364 1124 364 1108 c 0,66,67
 364 1059 364 1059 379 1021 c 128,-1,68
 394 983 394 983 422.5 952.5 c 128,-1,69
 451 922 451 922 492 898 c 128,-1,70
 533 874 533 874 584 853 c 1,71,-1
 584 1343 l 1,72,73
 493 1331 493 1331 441 1285 c 128,-1,74
 389 1239 389 1239 372 1167 c 1,63,64
943 324 m 0,75,76
 943 370 943 370 928 407 c 128,-1,77
 913 444 913 444 884.5 474.5 c 128,-1,78
 856 505 856 505 815.5 531.5 c 128,-1,79
 775 558 775 558 724 583 c 1,80,-1
 724 89 l 1,81,82
 773 96 773 96 813 116 c 128,-1,83
 853 136 853 136 882 166 c 128,-1,84
 911 196 911 196 927 236 c 128,-1,85
 943 276 943 276 943 324 c 0,75,76
EndSplineSet
EndChar

StartChar: percent
Encoding: 37 37 11
Width: 1643
GlyphClass: 2
Flags: W
LayerCount: 2
Fore
SplineSet
440 -34 m 1,0,-1
 314 13 l 1,1,2
 335 51 335 51 435 216 c 0,3,4
 478 286 478 286 542 392 c 128,-1,5
 606 498 606 498 697.5 648.5 c 128,-1,6
 789 799 789 799 911.5 999.5 c 128,-1,7
 1034 1200 1034 1200 1193 1460 c 1,8,9
 1232 1448 1232 1448 1251.5 1438 c 128,-1,10
 1271 1428 1271 1428 1281.5 1420 c 128,-1,11
 1292 1412 1292 1412 1297 1405.5 c 128,-1,12
 1302 1399 1302 1399 1312 1392 c 1,13,-1
 440 -34 l 1,0,-1
405 1375 m 0,14,15
 324 1375 324 1375 285 1305.5 c 128,-1,16
 246 1236 246 1236 246 1081 c 0,17,18
 246 928 246 928 285.5 858.5 c 128,-1,19
 325 789 325 789 405 789 c 0,20,21
 484 789 484 789 523 858.5 c 128,-1,22
 562 928 562 928 562 1081 c 0,23,24
 562 1236 562 1236 523 1305.5 c 128,-1,25
 484 1375 484 1375 405 1375 c 0,14,15
718 1081 m 0,26,27
 718 940 718 940 670 856.5 c 128,-1,28
 622 773 622 773 531 733 c 0,29,30
 499 719 499 719 469.5 713 c 128,-1,31
 440 707 440 707 411 707 c 0,32,33
 345 707 345 707 287 729.5 c 128,-1,34
 229 752 229 752 185.5 798 c 128,-1,35
 142 844 142 844 117 915 c 128,-1,36
 92 986 92 986 92 1083 c 256,37,38
 92 1180 92 1180 116.5 1251 c 128,-1,39
 141 1322 141 1322 183.5 1367.5 c 128,-1,40
 226 1413 226 1413 283 1435 c 128,-1,41
 340 1457 340 1457 405 1457 c 256,42,43
 470 1457 470 1457 527 1435 c 128,-1,44
 584 1413 584 1413 626.5 1367.5 c 128,-1,45
 669 1322 669 1322 693.5 1251 c 128,-1,46
 718 1180 718 1180 718 1081 c 0,26,27
1237 643 m 0,47,48
 1158 643 1158 643 1119 573.5 c 128,-1,49
 1080 504 1080 504 1080 349 c 0,50,51
 1080 195 1080 195 1119 125.5 c 128,-1,52
 1158 56 1158 56 1238 56 c 0,53,54
 1317 56 1317 56 1356 125.5 c 128,-1,55
 1395 195 1395 195 1395 349 c 0,56,57
 1395 504 1395 504 1356 573.5 c 128,-1,58
 1317 643 1317 643 1237 643 c 0,47,48
1237 -26 m 0,59,60
 1168 -26 1168 -26 1110 -1.5 c 128,-1,61
 1052 23 1052 23 1010 70.5 c 128,-1,62
 968 118 968 118 944.5 188 c 128,-1,63
 921 258 921 258 921 349 c 0,64,65
 921 441 921 441 944 511.5 c 128,-1,66
 967 582 967 582 1008.5 629.5 c 128,-1,67
 1050 677 1050 677 1108 701 c 128,-1,68
 1166 725 1166 725 1237 725 c 0,69,70
 1307 725 1307 725 1365 701 c 128,-1,71
 1423 677 1423 677 1464 629.5 c 128,-1,72
 1505 582 1505 582 1528 512 c 128,-1,73
 1551 442 1551 442 1551 349 c 0,74,75
 1551 258 1551 258 1527.5 188 c 128,-1,76
 1504 118 1504 118 1462 70.5 c 128,-1,77
 1420 23 1420 23 1362.5 -1.5 c 128,-1,78
 1305 -26 1305 -26 1237 -26 c 0,59,60
EndSplineSet
EndChar

StartChar: ampersand
Encoding: 38 38 12
Width: 1399
GlyphClass: 2
Flags: W
LayerCount: 2
Fore
SplineSet
605 657 m 2,0,1
 537 657 537 657 482 637.5 c 128,-1,2
 427 618 427 618 387.5 581 c 128,-1,3
 348 544 348 544 326.5 490.5 c 128,-1,4
 305 437 305 437 305 369 c 0,5,6
 305 309 305 309 322 258.5 c 128,-1,7
 339 208 339 208 377.5 171.5 c 128,-1,8
 416 135 416 135 477 114.5 c 128,-1,9
 538 94 538 94 625 94 c 0,10,11
 695 94 695 94 755 113.5 c 128,-1,12
 815 133 815 133 858.5 173 c 128,-1,13
 902 213 902 213 926.5 274.5 c 128,-1,14
 951 336 951 336 951 421 c 0,15,16
 951 466 951 466 949 507 c 128,-1,17
 947 548 947 548 943 582 c 2,18,-1
 935 657 l 1,19,-1
 605 657 l 2,0,1
1367 788 m 1,20,-1
 1367 510 l 1,21,-1
 1304 510 l 1,22,23
 1292 556 1292 556 1280.5 584.5 c 128,-1,24
 1269 613 1269 613 1254 629 c 128,-1,25
 1239 645 1239 645 1220 651 c 128,-1,26
 1201 657 1201 657 1174 657 c 2,27,-1
 1104 657 l 1,28,29
 1114 587 1114 587 1123.5 505.5 c 128,-1,30
 1133 424 1133 424 1133 343 c 0,31,32
 1133 253 1133 253 1097.5 182.5 c 128,-1,33
 1062 112 1062 112 994.5 63 c 128,-1,34
 927 14 927 14 829 -11.5 c 128,-1,35
 731 -37 731 -37 607 -37 c 0,36,37
 460 -37 460 -37 358.5 -7 c 128,-1,38
 257 23 257 23 194 77 c 128,-1,39
 131 131 131 131 102.5 206.5 c 128,-1,40
 74 282 74 282 74 374 c 0,41,42
 74 434 74 434 93 490.5 c 128,-1,43
 112 547 112 547 151 594 c 128,-1,44
 190 641 190 641 248.5 676.5 c 128,-1,45
 307 712 307 712 385 729 c 1,46,-1
 385 734 l 1,47,48
 323 749 323 749 273.5 777 c 128,-1,49
 224 805 224 805 189 846 c 128,-1,50
 154 887 154 887 135 939.5 c 128,-1,51
 116 992 116 992 116 1057 c 0,52,53
 116 1137 116 1137 145 1204 c 128,-1,54
 174 1271 174 1271 232.5 1319 c 128,-1,55
 291 1367 291 1367 379 1394 c 128,-1,56
 467 1421 467 1421 585 1421 c 0,57,58
 657 1421 657 1421 723 1411 c 128,-1,59
 789 1401 789 1401 844.5 1385.5 c 128,-1,60
 900 1370 900 1370 942 1352 c 128,-1,61
 984 1334 984 1334 1009 1318 c 1,62,-1
 985 1039 l 1,63,-1
 862 1039 l 1,64,65
 840 1109 840 1109 817 1159.5 c 128,-1,66
 794 1210 794 1210 764.5 1242.5 c 128,-1,67
 735 1275 735 1275 695 1290.5 c 128,-1,68
 655 1306 655 1306 600 1306 c 0,69,70
 527 1306 527 1306 475 1285.5 c 128,-1,71
 423 1265 423 1265 389.5 1229.5 c 128,-1,72
 356 1194 356 1194 340 1147 c 128,-1,73
 324 1100 324 1100 324 1048 c 0,74,75
 324 998 324 998 342 951.5 c 128,-1,76
 360 905 360 905 397 868.5 c 128,-1,77
 434 832 434 832 490.5 810 c 128,-1,78
 547 788 547 788 625 788 c 2,79,-1
 1367 788 l 1,20,-1
EndSplineSet
EndChar

StartChar: quotesingle
Encoding: 39 39 13
Width: 429
GlyphClass: 2
Flags: W
LayerCount: 2
Fore
SplineSet
277 983 m 1,0,1
 266 974 266 974 252 966.5 c 128,-1,2
 238 959 238 959 215 959 c 256,3,4
 192 959 192 959 179 968.5 c 128,-1,5
 166 978 166 978 159 993 c 128,-1,6
 152 1008 152 1008 149.5 1027.5 c 128,-1,7
 147 1047 147 1047 145 1067 c 2,8,-1
 128 1260 l 2,9,10
 124 1302 124 1302 120.5 1344.5 c 128,-1,11
 117 1387 117 1387 117 1435 c 0,12,13
 117 1449 117 1449 126.5 1460 c 128,-1,14
 136 1471 136 1471 151.5 1478.5 c 128,-1,15
 167 1486 167 1486 187 1490 c 128,-1,16
 207 1494 207 1494 227 1494 c 0,17,18
 273 1494 273 1494 292.5 1472.5 c 128,-1,19
 312 1451 312 1451 312 1409 c 0,20,21
 312 1387 312 1387 311 1370 c 128,-1,22
 310 1353 310 1353 308 1337 c 2,23,-1
 277 983 l 1,0,1
EndSplineSet
EndChar

StartChar: parenleft
Encoding: 40 40 14
Width: 588
GlyphClass: 2
Flags: W
LayerCount: 2
Fore
SplineSet
117 672 m 256,0,1
 117 792 117 792 135.5 909 c 128,-1,2
 154 1026 154 1026 189.5 1135 c 128,-1,3
 225 1244 225 1244 275 1342.5 c 128,-1,4
 325 1441 325 1441 388 1524 c 0,5,6
 403 1544 403 1544 422.5 1550.5 c 128,-1,7
 442 1557 442 1557 460 1557 c 0,8,9
 466 1557 466 1557 479 1552 c 2,10,-1
 522 1532 l 1,11,12
 466 1440 466 1440 425 1337 c 128,-1,13
 384 1234 384 1234 357.5 1124 c 128,-1,14
 331 1014 331 1014 318 900 c 128,-1,15
 305 786 305 786 305 672 c 256,16,17
 305 558 305 558 318 444 c 128,-1,18
 331 330 331 330 357.5 220 c 128,-1,19
 384 110 384 110 425 7 c 128,-1,20
 466 -96 466 -96 522 -188 c 1,21,-1
 479 -208 l 2,22,23
 466 -213 466 -213 460 -213 c 0,24,25
 442 -213 442 -213 423.5 -206 c 128,-1,26
 405 -199 405 -199 388 -180 c 1,27,28
 325 -99 325 -99 275 -0.5 c 128,-1,29
 225 98 225 98 189.5 207.5 c 128,-1,30
 154 317 154 317 135.5 434.5 c 128,-1,31
 117 552 117 552 117 672 c 256,0,1
EndSplineSet
EndChar

StartChar: parenright
Encoding: 41 41 15
Width: 588
GlyphClass: 2
Flags: W
LayerCount: 2
Fore
SplineSet
471 672 m 0,0,1
 471 552 471 552 452.5 434.5 c 128,-1,2
 434 317 434 317 398.5 207.5 c 128,-1,3
 363 98 363 98 313 -0.5 c 128,-1,4
 263 -99 263 -99 200 -180 c 1,5,6
 183 -199 183 -199 164.5 -206 c 128,-1,7
 146 -213 146 -213 128 -213 c 0,8,9
 122 -213 122 -213 109 -208 c 2,10,-1
 66 -188 l 1,11,12
 122 -96 122 -96 163 7 c 128,-1,13
 204 110 204 110 230.5 220 c 128,-1,14
 257 330 257 330 270 444 c 128,-1,15
 283 558 283 558 283 672 c 256,16,17
 283 786 283 786 270 900 c 128,-1,18
 257 1014 257 1014 230.5 1124 c 128,-1,19
 204 1234 204 1234 163 1337 c 128,-1,20
 122 1440 122 1440 66 1532 c 1,21,-1
 109 1552 l 2,22,23
 122 1557 122 1557 128 1557 c 0,24,25
 146 1557 146 1557 165 1550.5 c 128,-1,26
 184 1544 184 1544 200 1524 c 0,27,28
 263 1442 263 1442 313 1343.5 c 128,-1,29
 363 1245 363 1245 398 1135.5 c 128,-1,30
 433 1026 433 1026 452 908.5 c 128,-1,31
 471 791 471 791 471 672 c 0,0,1
EndSplineSet
EndChar

StartChar: asterisk
Encoding: 42 42 16
Width: 926
GlyphClass: 2
Flags: W
LayerCount: 2
Fore
SplineSet
280 743 m 1,0,-1
 394 994 l 1,1,-1
 126 859 l 1,2,-1
 84 1014 l 1,3,-1
 370 1080 l 1,4,-1
 122 1249 l 1,5,-1
 253 1363 l 1,6,-1
 430 1139 l 1,7,-1
 460 1440 l 1,8,-1
 638 1389 l 1,9,-1
 521 1126 l 1,10,-1
 791 1252 l 1,11,-1
 830 1099 l 1,12,-1
 549 1041 l 1,13,-1
 791 843 l 1,14,-1
 659 737 l 1,15,-1
 484 982 l 1,16,-1
 457 670 l 1,17,-1
 280 743 l 1,0,-1
EndSplineSet
EndChar

StartChar: plus
Encoding: 43 43 17
Width: 1289
GlyphClass: 2
Flags: W
LayerCount: 2
Fore
SplineSet
716 677 m 1,0,-1
 1156 677 l 1,1,-1
 1156 610 l 2,2,3
 1156 581 1156 581 1150.5 565.5 c 128,-1,4
 1145 550 1145 550 1134.5 543 c 128,-1,5
 1124 536 1124 536 1108 534.5 c 128,-1,6
 1092 533 1092 533 1071 533 c 2,7,-1
 716 533 l 1,8,-1
 716 93 l 1,9,-1
 648 93 l 2,10,11
 619 93 619 93 603.5 98 c 128,-1,12
 588 103 588 103 581 113.5 c 128,-1,13
 574 124 574 124 572.5 140 c 128,-1,14
 571 156 571 156 571 177 c 2,15,-1
 571 533 l 1,16,-1
 133 533 l 1,17,-1
 133 601 l 2,18,19
 133 629 133 629 138.5 644.5 c 128,-1,20
 144 660 144 660 155 667.5 c 128,-1,21
 166 675 166 675 182.5 676 c 128,-1,22
 199 677 199 677 222 677 c 2,23,-1
 571 677 l 1,24,-1
 571 1115 l 1,25,-1
 639 1115 l 2,26,27
 673 1115 673 1115 690.5 1104.5 c 128,-1,28
 708 1094 708 1094 716 1068 c 1,29,-1
 716 677 l 1,0,-1
EndSplineSet
EndChar

StartChar: comma
Encoding: 44 44 18
Width: 462
GlyphClass: 2
Flags: W
LayerCount: 2
Fore
SplineSet
118 -316 m 1,0,1
 87 -316 87 -316 74 -298 c 1,2,-1
 61 -267 l 1,3,4
 95 -219 95 -219 122.5 -149 c 128,-1,5
 150 -79 150 -79 157 3 c 2,6,-1
 160 41 l 1,7,8
 143 41 143 41 127.5 47 c 128,-1,9
 112 53 112 53 100.5 63 c 128,-1,10
 89 73 89 73 82.5 85.5 c 128,-1,11
 76 98 76 98 76 112 c 0,12,13
 79 154 79 154 91.5 180.5 c 128,-1,14
 104 207 104 207 122 222 c 128,-1,15
 140 237 140 237 162 243 c 128,-1,16
 184 249 184 249 205 249 c 0,17,18
 286 249 286 249 316.5 218.5 c 128,-1,19
 347 188 347 188 347 137 c 0,20,21
 347 69 347 69 328.5 5 c 128,-1,22
 310 -59 310 -59 279 -117 c 128,-1,23
 248 -175 248 -175 206 -225.5 c 128,-1,24
 164 -276 164 -276 118 -316 c 1,0,1
EndSplineSet
EndChar

StartChar: hyphen
Encoding: 45 45 19
Width: 683
GlyphClass: 2
Flags: W
LayerCount: 2
Fore
SplineSet
51 519 m 1,0,-1
 51 589 l 2,1,2
 51 611 51 611 57 623.5 c 128,-1,3
 63 636 63 636 73.5 642 c 128,-1,4
 84 648 84 648 99 649.5 c 128,-1,5
 114 651 114 651 133 651 c 2,6,-1
 632 651 l 1,7,-1
 632 599 l 2,8,9
 632 565 632 565 621 546.5 c 128,-1,10
 610 528 610 528 584 519 c 1,11,-1
 51 519 l 1,0,-1
EndSplineSet
EndChar

StartChar: period
Encoding: 46 46 20
Width: 600
GlyphClass: 2
Flags: W
LayerCount: 2
Fore
SplineSet
302 -34 m 1,0,1
 267 -34 267 -34 241 -22 c 128,-1,2
 215 -10 215 -10 198 9.5 c 128,-1,3
 181 29 181 29 172.5 53.5 c 128,-1,4
 164 78 164 78 164 104 c 256,5,6
 164 130 164 130 172.5 155.5 c 128,-1,7
 181 181 181 181 198 201 c 128,-1,8
 215 221 215 221 240.5 233 c 128,-1,9
 266 245 266 245 300 245 c 0,10,11
 333 245 333 245 358.5 233 c 128,-1,12
 384 221 384 221 401.5 201 c 128,-1,13
 419 181 419 181 427.5 155.5 c 128,-1,14
 436 130 436 130 436 103 c 0,15,16
 436 78 436 78 428 54 c 128,-1,17
 420 30 420 30 403.5 10.5 c 128,-1,18
 387 -9 387 -9 361.5 -21 c 128,-1,19
 336 -33 336 -33 302 -34 c 1,0,1
EndSplineSet
EndChar

StartChar: slash
Encoding: 47 47 21
Width: 853
GlyphClass: 2
Flags: W
LayerCount: 2
Fore
SplineSet
771 1518 m 2,0,1
 836 1518 836 1518 853 1491 c 1,2,3
 851 1485 851 1485 847.5 1476.5 c 128,-1,4
 844 1468 844 1468 834.5 1444 c 128,-1,5
 825 1420 825 1420 806 1374.5 c 128,-1,6
 787 1329 787 1329 753.5 1250.5 c 128,-1,7
 720 1172 720 1172 670 1054 c 128,-1,8
 620 936 620 936 547.5 766 c 128,-1,9
 475 596 475 596 377.5 368.5 c 128,-1,10
 280 141 280 141 153 -157 c 1,11,-1
 81 -157 l 2,12,13
 18 -157 18 -157 -3 -126 c 1,14,-1
 701 1518 l 1,15,-1
 771 1518 l 2,0,1
EndSplineSet
EndChar

StartChar: zero
Encoding: 48 48 22
Width: 1277
GlyphClass: 2
Flags: W
LayerCount: 2
Fore
SplineSet
963 710 m 0,0,1
 963 878 963 878 942.5 997 c 128,-1,2
 922 1116 922 1116 881 1191.5 c 128,-1,3
 840 1267 840 1267 779.5 1302 c 128,-1,4
 719 1337 719 1337 638 1337 c 0,5,6
 558 1337 558 1337 497.5 1301.5 c 128,-1,7
 437 1266 437 1266 396 1190.5 c 128,-1,8
 355 1115 355 1115 334 996 c 128,-1,9
 313 877 313 877 313 710 c 0,10,11
 313 546 313 546 333.5 428 c 128,-1,12
 354 310 354 310 395 234.5 c 128,-1,13
 436 159 436 159 496.5 123 c 128,-1,14
 557 87 557 87 638 87 c 0,15,16
 718 87 718 87 779 122.5 c 128,-1,17
 840 158 840 158 881 233.5 c 128,-1,18
 922 309 922 309 942.5 427 c 128,-1,19
 963 545 963 545 963 710 c 0,0,1
638 -37 m 0,20,21
 509 -37 509 -37 407.5 13.5 c 128,-1,22
 306 64 306 64 236 159.5 c 128,-1,23
 166 255 166 255 129 394 c 128,-1,24
 92 533 92 533 92 710 c 0,25,26
 92 889 92 889 128.5 1028.5 c 128,-1,27
 165 1168 165 1168 235 1263.5 c 128,-1,28
 305 1359 305 1359 406.5 1408.5 c 128,-1,29
 508 1458 508 1458 638 1458 c 256,30,31
 768 1458 768 1458 870 1408.5 c 128,-1,32
 972 1359 972 1359 1042 1263.5 c 128,-1,33
 1112 1168 1112 1168 1148.5 1028.5 c 128,-1,34
 1185 889 1185 889 1185 710 c 0,35,36
 1185 533 1185 533 1147.5 394 c 128,-1,37
 1110 255 1110 255 1039.5 159 c 128,-1,38
 969 63 969 63 867.5 13 c 128,-1,39
 766 -37 766 -37 638 -37 c 0,20,21
EndSplineSet
EndChar

StartChar: one
Encoding: 49 49 23
Width: 986
GlyphClass: 2
Flags: W
LayerCount: 2
Fore
SplineSet
610 252 m 2,0,1
 610 210 610 210 613.5 180.5 c 128,-1,2
 617 151 617 151 624 128 c 1,3,4
 647 122 647 122 672.5 120.5 c 128,-1,5
 698 119 698 119 727 119 c 2,6,-1
 818 119 l 1,7,-1
 818 -19 l 1,8,9
 733 -8 733 -8 658 -4 c 128,-1,10
 583 0 583 0 511 0 c 0,11,12
 430 0 430 0 353 -5 c 128,-1,13
 276 -10 276 -10 195 -19 c 1,14,-1
 195 119 l 1,15,-1
 284 119 l 2,16,17
 313 119 313 119 339 120 c 128,-1,18
 365 121 365 121 387 128 c 1,19,20
 394 151 394 151 398.5 180.5 c 128,-1,21
 403 210 403 210 403 249 c 2,22,-1
 403 1246 l 1,23,24
 384 1261 384 1261 361.5 1268 c 128,-1,25
 339 1275 339 1275 307 1275 c 0,26,27
 294 1275 294 1275 279.5 1274 c 128,-1,28
 265 1273 265 1273 249 1270 c 2,29,-1
 154 1253 l 1,30,-1
 135 1347 l 1,31,32
 194 1368 194 1368 251 1388 c 128,-1,33
 308 1408 308 1408 361 1423.5 c 128,-1,34
 414 1439 414 1439 461 1448.5 c 128,-1,35
 508 1458 508 1458 547 1458 c 0,36,37
 576 1458 576 1458 589 1449.5 c 128,-1,38
 602 1441 602 1441 610 1428 c 1,39,-1
 610 252 l 2,0,1
EndSplineSet
EndChar

StartChar: two
Encoding: 50 50 24
Width: 1251
GlyphClass: 2
Flags: W
LayerCount: 2
Fore
SplineSet
611 1336 m 0,0,1
 557 1336 557 1336 502 1319 c 128,-1,2
 447 1302 447 1302 401 1268.5 c 128,-1,3
 355 1235 355 1235 322 1185.5 c 128,-1,4
 289 1136 289 1136 279 1071 c 1,5,-1
 134 1192 l 1,6,7
 144 1258 144 1258 186.5 1308 c 128,-1,8
 229 1358 229 1358 292.5 1391 c 128,-1,9
 356 1424 356 1424 434.5 1441 c 128,-1,10
 513 1458 513 1458 595 1458 c 0,11,12
 705 1458 705 1458 790.5 1430 c 128,-1,13
 876 1402 876 1402 934.5 1351 c 128,-1,14
 993 1300 993 1300 1023 1228.5 c 128,-1,15
 1053 1157 1053 1157 1053 1069 c 0,16,17
 1053 1008 1053 1008 1038 950 c 128,-1,18
 1023 892 1023 892 989 830.5 c 128,-1,19
 955 769 955 769 900 700 c 128,-1,20
 845 631 845 631 764.5 548.5 c 128,-1,21
 684 466 684 466 576 366.5 c 128,-1,22
 468 267 468 267 329 144 c 1,23,-1
 726 144 l 2,24,25
 761 144 761 144 803 149 c 128,-1,26
 845 154 845 154 887.5 173.5 c 128,-1,27
 930 193 930 193 969.5 232.5 c 128,-1,28
 1009 272 1009 272 1038 340 c 1,29,30
 1058 340 1058 340 1074 334.5 c 128,-1,31
 1090 329 1090 329 1101 329 c 1,32,33
 1101 244 1101 244 1098.5 170 c 128,-1,34
 1096 96 1096 96 1088 27 c 1,35,36
 1059 18 1059 18 1025.5 12.5 c 128,-1,37
 992 7 992 7 947 4.5 c 128,-1,38
 902 2 902 2 841.5 1 c 128,-1,39
 781 0 781 0 699 0 c 2,40,-1
 197 0 l 2,41,42
 153 0 153 0 133.5 12 c 128,-1,43
 114 24 114 24 104 50 c 1,44,45
 104 67 104 67 108 88 c 128,-1,46
 112 109 112 109 118 134 c 1,47,48
 287 301 287 301 423 441.5 c 128,-1,49
 559 582 559 582 669 707 c 0,50,51
 724 770 724 770 758 822.5 c 128,-1,52
 792 875 792 875 811 920 c 128,-1,53
 830 965 830 965 836.5 1004 c 128,-1,54
 843 1043 843 1043 843 1079 c 0,55,56
 843 1209 843 1209 784.5 1272.5 c 128,-1,57
 726 1336 726 1336 611 1336 c 0,0,1
EndSplineSet
EndChar

StartChar: three
Encoding: 51 51 25
Width: 1200
GlyphClass: 2
Flags: W
LayerCount: 2
Fore
SplineSet
836 1097 m 0,0,1
 836 1157 836 1157 815 1202 c 128,-1,2
 794 1247 794 1247 758.5 1276.5 c 128,-1,3
 723 1306 723 1306 677 1321 c 128,-1,4
 631 1336 631 1336 581 1336 c 0,5,6
 529 1336 529 1336 476 1319.5 c 128,-1,7
 423 1303 423 1303 379 1270.5 c 128,-1,8
 335 1238 335 1238 303 1190 c 128,-1,9
 271 1142 271 1142 261 1080 c 1,10,-1
 126 1191 l 1,11,12
 136 1257 136 1257 177 1307 c 128,-1,13
 218 1357 218 1357 278.5 1390 c 128,-1,14
 339 1423 339 1423 414 1440 c 128,-1,15
 489 1457 489 1457 567 1457 c 0,16,17
 653 1457 653 1457 736 1439.5 c 128,-1,18
 819 1422 819 1422 884.5 1380.5 c 128,-1,19
 950 1339 950 1339 990 1269.5 c 128,-1,20
 1030 1200 1030 1200 1030 1095 c 0,21,22
 1030 1042 1030 1042 1007.5 988.5 c 128,-1,23
 985 935 985 935 940.5 888.5 c 128,-1,24
 896 842 896 842 830 805 c 128,-1,25
 764 768 764 768 676 748 c 1,26,27
 876 722 876 722 978.5 631.5 c 128,-1,28
 1081 541 1081 541 1081 378 c 0,29,30
 1081 282 1081 282 1046 205 c 128,-1,31
 1011 128 1011 128 946.5 74.5 c 128,-1,32
 882 21 882 21 791.5 -8 c 128,-1,33
 701 -37 701 -37 590 -37 c 0,34,35
 505 -37 505 -37 426.5 -20.5 c 128,-1,36
 348 -4 348 -4 285 24 c 128,-1,37
 222 52 222 52 179 88.5 c 128,-1,38
 136 125 136 125 121 166 c 1,39,40
 124 189 124 189 127 212 c 128,-1,41
 130 235 130 235 134 261.5 c 128,-1,42
 138 288 138 288 142.5 319.5 c 128,-1,43
 147 351 147 351 155 392 c 1,44,-1
 265 373 l 1,45,46
 265 290 265 290 292.5 235 c 128,-1,47
 320 180 320 180 364.5 147 c 128,-1,48
 409 114 409 114 465 100.5 c 128,-1,49
 521 87 521 87 577 87 c 0,50,51
 648 87 648 87 704 110.5 c 128,-1,52
 760 134 760 134 799 174.5 c 128,-1,53
 838 215 838 215 858.5 270 c 128,-1,54
 879 325 879 325 879 389 c 0,55,56
 879 464 879 464 849.5 518 c 128,-1,57
 820 572 820 572 764.5 606 c 128,-1,58
 709 640 709 640 629.5 656 c 128,-1,59
 550 672 550 672 450 672 c 2,60,-1
 409 672 l 1,61,-1
 409 733 l 1,62,-1
 409 791 l 1,63,-1
 475 791 l 2,64,65
 525 791 525 791 587.5 808.5 c 128,-1,66
 650 826 650 826 705.5 863.5 c 128,-1,67
 761 901 761 901 798.5 958.5 c 128,-1,68
 836 1016 836 1016 836 1097 c 0,0,1
EndSplineSet
EndChar

StartChar: four
Encoding: 52 52 26
Width: 1210
GlyphClass: 2
Flags: W
LayerCount: 2
Fore
SplineSet
900 250 m 2,0,1
 900 208 900 208 903 178.5 c 128,-1,2
 906 149 906 149 914 126 c 1,3,4
 937 120 937 120 962.5 118.5 c 128,-1,5
 988 117 988 117 1017 117 c 2,6,-1
 1107 117 l 1,7,-1
 1107 -19 l 1,8,9
 1026 -8 1026 -8 952.5 -4 c 128,-1,10
 879 0 879 0 810 0 c 0,11,12
 729 0 729 0 652 -5 c 128,-1,13
 575 -10 575 -10 494 -19 c 1,14,-1
 494 117 l 1,15,-1
 583 117 l 2,16,17
 612 117 612 117 638 118 c 128,-1,18
 664 119 664 119 686 126 c 1,19,20
 702 170 702 170 702 247 c 2,21,-1
 702 385 l 1,22,-1
 75 385 l 1,23,24
 35 416 35 416 35 472 c 1,25,26
 39 486 39 486 47 498.5 c 128,-1,27
 55 511 55 511 65 525 c 0,28,29
 224 754 224 754 338 916 c 128,-1,30
 452 1078 452 1078 529.5 1186 c 128,-1,31
 607 1294 607 1294 652 1353.5 c 128,-1,32
 697 1413 697 1413 719 1437 c 1,33,-1
 807 1437 l 2,34,35
 837 1437 837 1437 855.5 1433.5 c 128,-1,36
 874 1430 874 1430 883.5 1421.5 c 128,-1,37
 893 1413 893 1413 896.5 1398 c 128,-1,38
 900 1383 900 1383 900 1360 c 2,39,-1
 900 512 l 1,40,-1
 1181 512 l 1,41,-1
 1181 458 l 2,42,43
 1181 432 1181 432 1176.5 417 c 128,-1,44
 1172 402 1172 402 1162.5 395 c 128,-1,45
 1153 388 1153 388 1137.5 386.5 c 128,-1,46
 1122 385 1122 385 1101 385 c 2,47,-1
 900 385 l 1,48,-1
 900 250 l 2,0,1
702 512 m 1,49,-1
 702 1194 l 1,50,-1
 244 544 l 1,51,-1
 226 512 l 1,52,-1
 702 512 l 1,49,-1
EndSplineSet
EndChar

StartChar: five
Encoding: 53 53 27
Width: 1234
GlyphClass: 2
Flags: W
LayerCount: 2
Fore
SplineSet
379 836 m 1,0,1
 449 869 449 869 510.5 881.5 c 128,-1,2
 572 894 572 894 639 894 c 0,3,4
 736 894 736 894 821 862.5 c 128,-1,5
 906 831 906 831 969 773 c 128,-1,6
 1032 715 1032 715 1068 632.5 c 128,-1,7
 1104 550 1104 550 1104 449 c 0,8,9
 1104 336 1104 336 1069.5 246 c 128,-1,10
 1035 156 1035 156 970.5 93 c 128,-1,11
 906 30 906 30 814 -3.5 c 128,-1,12
 722 -37 722 -37 608 -37 c 0,13,14
 514 -37 514 -37 442.5 -25.5 c 128,-1,15
 371 -14 371 -14 318.5 4 c 128,-1,16
 266 22 266 22 230.5 43.5 c 128,-1,17
 195 65 195 65 173 85 c 1,18,-1
 173 401 l 1,19,-1
 295 389 l 1,20,-1
 341 147 l 1,21,22
 366 134 366 134 391.5 123 c 128,-1,23
 417 112 417 112 446.5 104 c 128,-1,24
 476 96 476 96 510.5 91.5 c 128,-1,25
 545 87 545 87 587 87 c 0,26,27
 672 87 672 87 731.5 117 c 128,-1,28
 791 147 791 147 828 196 c 128,-1,29
 865 245 865 245 881.5 305.5 c 128,-1,30
 898 366 898 366 898 428 c 0,31,32
 898 589 898 589 805 675 c 128,-1,33
 712 761 712 761 533 761 c 0,34,35
 470 761 470 761 407 741 c 128,-1,36
 344 721 344 721 286 672 c 1,37,-1
 217 691 l 1,38,-1
 217 1394 l 1,39,40
 235 1421 235 1421 261.5 1429 c 128,-1,41
 288 1437 288 1437 324 1437 c 2,42,-1
 646 1437 l 2,43,44
 704 1437 704 1437 754.5 1438 c 128,-1,45
 805 1439 805 1439 851.5 1441.5 c 128,-1,46
 898 1444 898 1444 941.5 1448.5 c 128,-1,47
 985 1453 985 1453 1028 1461 c 1,48,-1
 1035 1317 l 1,49,50
 1023 1302 1023 1302 1004.5 1292 c 128,-1,51
 986 1282 986 1282 958.5 1276 c 128,-1,52
 931 1270 931 1270 893.5 1267.5 c 128,-1,53
 856 1265 856 1265 805 1265 c 0,54,55
 717 1265 717 1265 615 1276.5 c 128,-1,56
 513 1288 513 1288 386 1312 c 1,57,-1
 379 836 l 1,0,1
EndSplineSet
EndChar

StartChar: six
Encoding: 54 54 28
Width: 1225
GlyphClass: 2
Flags: W
LayerCount: 2
Fore
SplineSet
345 577 m 1,0,1
 345 333 345 333 418.5 210 c 128,-1,2
 492 87 492 87 637 87 c 0,3,4
 700 87 700 87 752 110.5 c 128,-1,5
 804 134 804 134 841.5 179 c 128,-1,6
 879 224 879 224 900 290 c 128,-1,7
 921 356 921 356 921 441 c 0,8,9
 921 519 921 519 903.5 578.5 c 128,-1,10
 886 638 886 638 854.5 678.5 c 128,-1,11
 823 719 823 719 779 740 c 128,-1,12
 735 761 735 761 681 761 c 0,13,14
 651 761 651 761 621 753 c 128,-1,15
 591 745 591 745 562 732 c 128,-1,16
 533 719 533 719 505.5 702.5 c 128,-1,17
 478 686 478 686 454 669 c 0,18,19
 398 629 398 629 345 577 c 1,0,1
333 714 m 1,20,21
 421 802 421 802 515 844.5 c 128,-1,22
 609 887 609 887 715 887 c 0,23,24
 803 887 803 887 879 856.5 c 128,-1,25
 955 826 955 826 1010.5 769 c 128,-1,26
 1066 712 1066 712 1098 630 c 128,-1,27
 1130 548 1130 548 1130 445 c 0,28,29
 1130 339 1130 339 1094.5 250.5 c 128,-1,30
 1059 162 1059 162 993 98 c 128,-1,31
 927 34 927 34 834 -1.5 c 128,-1,32
 741 -37 741 -37 626 -37 c 0,33,34
 504 -37 504 -37 411 3.5 c 128,-1,35
 318 44 318 44 254 129.5 c 128,-1,36
 190 215 190 215 157.5 346.5 c 128,-1,37
 125 478 125 478 125 660 c 0,38,39
 125 855 125 855 159 1004 c 128,-1,40
 193 1153 193 1153 264 1254 c 128,-1,41
 335 1355 335 1355 445 1406.5 c 128,-1,42
 555 1458 555 1458 707 1458 c 0,43,44
 759 1458 759 1458 810.5 1453 c 128,-1,45
 862 1448 862 1448 908 1438 c 128,-1,46
 954 1428 954 1428 991.5 1414 c 128,-1,47
 1029 1400 1029 1400 1052 1382 c 1,48,-1
 1038 1068 l 1,49,-1
 918 1068 l 1,50,-1
 886 1281 l 1,51,52
 832 1310 832 1310 783.5 1323.5 c 128,-1,53
 735 1337 735 1337 690 1337 c 0,54,55
 616 1337 616 1337 560.5 1308.5 c 128,-1,56
 505 1280 505 1280 465.5 1233 c 128,-1,57
 426 1186 426 1186 400 1124 c 128,-1,58
 374 1062 374 1062 359 995.5 c 128,-1,59
 344 929 344 929 338 862 c 128,-1,60
 332 795 332 795 332 737 c 0,61,62
 332 731 332 731 332 725.5 c 128,-1,63
 332 720 332 720 333 714 c 1,20,21
EndSplineSet
EndChar

StartChar: seven
Encoding: 55 55 29
Width: 1201
GlyphClass: 2
Flags: W
LayerCount: 2
Fore
SplineSet
111 1381 m 1,0,1
 165 1410 165 1410 288.5 1423.5 c 128,-1,2
 412 1437 412 1437 613 1437 c 2,3,-1
 1077 1437 l 1,4,5
 1083 1421 1083 1421 1088 1406 c 128,-1,6
 1093 1391 1093 1391 1096 1373.5 c 128,-1,7
 1099 1356 1099 1356 1101 1334.5 c 128,-1,8
 1103 1313 1103 1313 1103 1285 c 1,9,-1
 626 188 l 2,10,11
 603 136 603 136 584 98.5 c 128,-1,12
 565 61 565 61 543 36.5 c 128,-1,13
 521 12 521 12 492.5 0.5 c 128,-1,14
 464 -11 464 -11 423 -11 c 0,15,16
 351 -11 351 -11 330 24 c 1,17,18
 341 57 341 57 357 89 c 2,19,-1
 937 1304 l 1,20,-1
 500 1304 l 2,21,22
 433 1304 433 1304 382 1299 c 128,-1,23
 331 1294 331 1294 297 1281 c 1,24,-1
 271 1067 l 1,25,-1
 156 1067 l 1,26,-1
 111 1381 l 1,0,1
EndSplineSet
EndChar

StartChar: eight
Encoding: 56 56 30
Width: 1174
GlyphClass: 2
Flags: W
LayerCount: 2
Fore
SplineSet
1030 1108 m 0,0,1
 1030 1043 1030 1043 1008.5 991.5 c 128,-1,2
 987 940 987 940 951.5 897 c 128,-1,3
 916 854 916 854 870 816 c 128,-1,4
 824 778 824 778 775 740 c 1,5,6
 833 714 833 714 888 680 c 128,-1,7
 943 646 943 646 985.5 601 c 128,-1,8
 1028 556 1028 556 1054 498 c 128,-1,9
 1080 440 1080 440 1080 367 c 0,10,11
 1080 262 1080 262 1041 185.5 c 128,-1,12
 1002 109 1002 109 933.5 59.5 c 128,-1,13
 865 10 865 10 773 -13.5 c 128,-1,14
 681 -37 681 -37 575 -37 c 0,15,16
 472 -37 472 -37 384 -12.5 c 128,-1,17
 296 12 296 12 231.5 58 c 128,-1,18
 167 104 167 104 130.5 171 c 128,-1,19
 94 238 94 238 94 323 c 0,20,21
 94 390 94 390 110.5 450 c 128,-1,22
 127 510 127 510 162 562 c 128,-1,23
 197 614 197 614 250.5 657.5 c 128,-1,24
 304 701 304 701 379 735 c 1,25,26
 306 771 306 771 255.5 811.5 c 128,-1,27
 205 852 205 852 174 898.5 c 128,-1,28
 143 945 143 945 129.5 998 c 128,-1,29
 116 1051 116 1051 116 1111 c 0,30,31
 116 1196 116 1196 153 1260.5 c 128,-1,32
 190 1325 190 1325 253 1369 c 128,-1,33
 316 1413 316 1413 399 1435.5 c 128,-1,34
 482 1458 482 1458 575 1458 c 0,35,36
 665 1458 665 1458 747.5 1435.5 c 128,-1,37
 830 1413 830 1413 893 1369 c 128,-1,38
 956 1325 956 1325 993 1259.5 c 128,-1,39
 1030 1194 1030 1194 1030 1108 c 0,0,1
506 676 m 1,40,41
 403 624 403 624 346 543 c 128,-1,42
 289 462 289 462 289 356 c 0,43,44
 289 289 289 289 311 238.5 c 128,-1,45
 333 188 333 188 371 154.5 c 128,-1,46
 409 121 409 121 461.5 104 c 128,-1,47
 514 87 514 87 575 87 c 0,48,49
 650 87 650 87 705 107.5 c 128,-1,50
 760 128 760 128 796 162.5 c 128,-1,51
 832 197 832 197 850 242 c 128,-1,52
 868 287 868 287 868 335 c 0,53,54
 868 435 868 435 795.5 512.5 c 128,-1,55
 723 590 723 590 592 642 c 2,56,-1
 506 676 l 1,40,41
837 1099 m 256,57,58
 837 1156 837 1156 818 1200 c 128,-1,59
 799 1244 799 1244 764.5 1274.5 c 128,-1,60
 730 1305 730 1305 681.5 1321 c 128,-1,61
 633 1337 633 1337 575 1337 c 0,62,63
 516 1337 516 1337 468 1321.5 c 128,-1,64
 420 1306 420 1306 385.5 1275.5 c 128,-1,65
 351 1245 351 1245 332.5 1200.5 c 128,-1,66
 314 1156 314 1156 314 1099 c 0,67,68
 314 1045 314 1045 335.5 999.5 c 128,-1,69
 357 954 357 954 396.5 916.5 c 128,-1,70
 436 879 436 879 491 850 c 128,-1,71
 546 821 546 821 614 800 c 1,72,73
 657 824 657 824 697.5 852.5 c 128,-1,74
 738 881 738 881 769 917 c 128,-1,75
 800 953 800 953 818.5 997.5 c 128,-1,76
 837 1042 837 1042 837 1099 c 256,57,58
EndSplineSet
EndChar

StartChar: nine
Encoding: 57 57 31
Width: 1223
GlyphClass: 2
Flags: W
LayerCount: 2
Fore
SplineSet
879 945 m 1,0,1
 879 1042 879 1042 858.5 1115.5 c 128,-1,2
 838 1189 838 1189 799.5 1238.5 c 128,-1,3
 761 1288 761 1288 707 1312.5 c 128,-1,4
 653 1337 653 1337 587 1337 c 0,5,6
 526 1337 526 1337 475.5 1314 c 128,-1,7
 425 1291 425 1291 389 1246.5 c 128,-1,8
 353 1202 353 1202 333 1137.5 c 128,-1,9
 313 1073 313 1073 313 990 c 0,10,11
 313 912 313 912 329 852.5 c 128,-1,12
 345 793 345 793 373.5 752.5 c 128,-1,13
 402 712 402 712 442.5 691 c 128,-1,14
 483 670 483 670 533 670 c 0,15,16
 610 670 610 670 673 697 c 128,-1,17
 736 724 736 724 781 765.5 c 128,-1,18
 826 807 826 807 851.5 855 c 128,-1,19
 877 903 877 903 879 945 c 1,0,1
887 707 m 1,20,21
 799 626 799 626 707.5 583.5 c 128,-1,22
 616 541 616 541 510 541 c 0,23,24
 424 541 424 541 349.5 572 c 128,-1,25
 275 603 275 603 220.5 660.5 c 128,-1,26
 166 718 166 718 135 800.5 c 128,-1,27
 104 883 104 883 104 987 c 0,28,29
 104 1090 104 1090 139 1177 c 128,-1,30
 174 1264 174 1264 238.5 1326 c 128,-1,31
 303 1388 303 1388 394 1423 c 128,-1,32
 485 1458 485 1458 598 1458 c 0,33,34
 720 1458 720 1458 813.5 1419 c 128,-1,35
 907 1380 907 1380 970 1299 c 128,-1,36
 1033 1218 1033 1218 1065.5 1092 c 128,-1,37
 1098 966 1098 966 1098 792 c 0,38,39
 1098 589 1098 589 1065.5 434 c 128,-1,40
 1033 279 1033 279 964.5 174.5 c 128,-1,41
 896 70 896 70 790 16.5 c 128,-1,42
 684 -37 684 -37 537 -37 c 0,43,44
 483 -37 483 -37 427.5 -30 c 128,-1,45
 372 -23 372 -23 322 -9 c 128,-1,46
 272 5 272 5 232 24.5 c 128,-1,47
 192 44 192 44 168 70 c 1,48,-1
 168 374 l 1,49,-1
 295 363 l 1,50,-1
 337 133 l 1,51,52
 441 87 441 87 534 87 c 0,53,54
 616 87 616 87 682.5 128.5 c 128,-1,55
 749 170 749 170 795 244.5 c 128,-1,56
 841 319 841 319 866 422 c 128,-1,57
 891 525 891 525 891 649 c 0,58,59
 891 664 891 664 890 678 c 128,-1,60
 889 692 889 692 887 707 c 1,20,21
EndSplineSet
EndChar

StartChar: colon
Encoding: 58 58 32
Width: 608
GlyphClass: 2
Flags: W
LayerCount: 2
Fore
SplineSet
305 244 m 0,0,1
 335 244 335 244 360 231.5 c 128,-1,2
 385 219 385 219 403 199 c 128,-1,3
 421 179 421 179 431.5 152.5 c 128,-1,4
 442 126 442 126 442 99 c 0,5,6
 442 63 442 63 430 38 c 128,-1,7
 418 13 418 13 399.5 -3 c 128,-1,8
 381 -19 381 -19 358 -26.5 c 128,-1,9
 335 -34 335 -34 313 -34 c 0,10,11
 274 -34 274 -34 246 -23 c 128,-1,12
 218 -12 218 -12 200.5 6.5 c 128,-1,13
 183 25 183 25 174.5 48.5 c 128,-1,14
 166 72 166 72 166 97 c 0,15,16
 166 173 166 173 205 208.5 c 128,-1,17
 244 244 244 244 305 244 c 0,0,1
166 919 m 0,18,19
 166 981 166 981 205 1018 c 128,-1,20
 244 1055 244 1055 310 1055 c 0,21,22
 340 1055 340 1055 364.5 1044.5 c 128,-1,23
 389 1034 389 1034 407 1016 c 128,-1,24
 425 998 425 998 434.5 975 c 128,-1,25
 444 952 444 952 444 927 c 0,26,27
 444 889 444 889 433 861 c 128,-1,28
 422 833 422 833 404 815 c 128,-1,29
 386 797 386 797 362 788 c 128,-1,30
 338 779 338 779 313 779 c 0,31,32
 235 779 235 779 200.5 819 c 128,-1,33
 166 859 166 859 166 919 c 0,18,19
EndSplineSet
EndChar

StartChar: semicolon
Encoding: 59 59 33
Width: 474
GlyphClass: 2
Flags: W
LayerCount: 2
Fore
SplineSet
186 1051 m 1,0,1
 201 1055 201 1055 224 1055 c 0,2,3
 254 1055 254 1055 279 1044.5 c 128,-1,4
 304 1034 304 1034 322 1016 c 128,-1,5
 340 998 340 998 349.5 975 c 128,-1,6
 359 952 359 952 359 927 c 0,7,8
 359 889 359 889 348 861 c 128,-1,9
 337 833 337 833 319 815 c 128,-1,10
 301 797 301 797 277 788 c 128,-1,11
 253 779 253 779 228 779 c 0,12,13
 189 779 189 779 161 789.5 c 128,-1,14
 133 800 133 800 115 819 c 128,-1,15
 97 838 97 838 89 863.5 c 128,-1,16
 81 889 81 889 81 919 c 0,17,18
 81 973 81 973 107.5 1007 c 128,-1,19
 134 1041 134 1041 186 1051 c 1,0,1
41 -278 m 1,20,21
 88 -207 88 -207 121.5 -128 c 128,-1,22
 155 -49 155 -49 160 41 c 1,23,24
 145 41 145 41 130 45.5 c 128,-1,25
 115 50 115 50 103 60.5 c 128,-1,26
 91 71 91 71 84 88 c 128,-1,27
 77 105 77 105 77 129 c 1,28,29
 81 180 81 180 114 214 c 128,-1,30
 147 248 147 248 207 248 c 0,31,32
 249 248 249 248 276 239 c 128,-1,33
 303 230 303 230 318 214.5 c 128,-1,34
 333 199 333 199 339 177 c 128,-1,35
 345 155 345 155 345 129 c 0,36,37
 345 67 345 67 326.5 2.5 c 128,-1,38
 308 -62 308 -62 278 -121 c 128,-1,39
 248 -180 248 -180 209 -230 c 128,-1,40
 170 -280 170 -280 128 -314 c 1,41,42
 122 -316 122 -316 113 -316 c 0,43,44
 85 -316 85 -316 68.5 -308.5 c 128,-1,45
 52 -301 52 -301 41 -278 c 1,20,21
EndSplineSet
EndChar

StartChar: less
Encoding: 60 60 34
Width: 1387
GlyphClass: 2
Flags: W
LayerCount: 2
Fore
SplineSet
163 644 m 0,0,1
 345 727 345 727 485 791 c 128,-1,2
 625 855 625 855 730 903 c 128,-1,3
 835 951 835 951 909 985 c 128,-1,4
 983 1019 983 1019 1033.5 1041.5 c 128,-1,5
 1084 1064 1084 1064 1114 1077.5 c 128,-1,6
 1144 1091 1144 1091 1161.5 1098 c 128,-1,7
 1179 1105 1179 1105 1187 1108.5 c 128,-1,8
 1195 1112 1195 1112 1201 1114 c 1,9,10
 1206 1110 1206 1110 1211 1103 c 128,-1,11
 1216 1096 1216 1096 1222 1082 c 128,-1,12
 1228 1068 1228 1068 1235.5 1045 c 128,-1,13
 1243 1022 1243 1022 1254 985 c 1,14,-1
 347 569 l 1,15,-1
 1252 157 l 1,16,17
 1242 119 1242 119 1235 95.5 c 128,-1,18
 1228 72 1228 72 1222 57.5 c 128,-1,19
 1216 43 1216 43 1211 36 c 128,-1,20
 1206 29 1206 29 1201 25 c 1,21,22
 1121 58 1121 58 855 179.5 c 128,-1,23
 589 301 589 301 133 510 c 1,24,25
 133 536 133 536 133 551.5 c 128,-1,26
 133 567 133 567 132.5 575.5 c 128,-1,27
 132 584 132 584 132 588 c 128,-1,28
 132 592 132 592 132 595 c 0,29,30
 132 608 132 608 137.5 621.5 c 128,-1,31
 143 635 143 635 163 644 c 0,0,1
EndSplineSet
EndChar

StartChar: equal
Encoding: 61 61 35
Width: 1288
GlyphClass: 2
Flags: W
LayerCount: 2
Fore
SplineSet
133 733 m 1,0,-1
 133 802 l 2,1,2
 133 830 133 830 139.5 845.5 c 128,-1,3
 146 861 146 861 159 868.5 c 128,-1,4
 172 876 172 876 190 877 c 128,-1,5
 208 878 208 878 231 878 c 2,6,-1
 1155 878 l 1,7,-1
 1155 811 l 2,8,9
 1155 776 1155 776 1144 758.5 c 128,-1,10
 1133 741 1133 741 1108 733 c 1,11,-1
 133 733 l 1,0,-1
133 332 m 1,12,-1
 133 399 l 2,13,14
 133 424 133 424 136 439 c 128,-1,15
 139 454 139 454 148 462 c 128,-1,16
 157 470 157 470 172.5 472.5 c 128,-1,17
 188 475 188 475 213 475 c 2,18,-1
 1155 475 l 1,19,-1
 1155 410 l 2,20,21
 1155 375 1155 375 1144 357.5 c 128,-1,22
 1133 340 1133 340 1108 332 c 1,23,-1
 133 332 l 1,12,-1
EndSplineSet
EndChar

StartChar: greater
Encoding: 62 62 36
Width: 1386
GlyphClass: 2
Flags: W
LayerCount: 2
Fore
SplineSet
1228 643 m 2,0,1
 1243 636 1243 636 1248 617.5 c 128,-1,2
 1253 599 1253 599 1253 573 c 2,3,-1
 1253 509 l 1,4,5
 1061 421 1061 421 914 354 c 128,-1,6
 767 287 767 287 657.5 237 c 128,-1,7
 548 187 548 187 471.5 152 c 128,-1,8
 395 117 395 117 344 94 c 128,-1,9
 293 71 293 71 263.5 57.5 c 128,-1,10
 234 44 234 44 218 37 c 128,-1,11
 202 30 202 30 196 27.5 c 128,-1,12
 190 25 190 25 186 24 c 1,13,14
 178 28 178 28 171.5 36 c 128,-1,15
 165 44 165 44 159 59 c 128,-1,16
 153 74 153 74 147 97 c 128,-1,17
 141 120 141 120 135 155 c 1,18,-1
 1039 571 l 1,19,-1
 133 984 l 1,20,-1
 195 1115 l 1,21,-1
 1228 643 l 2,0,1
EndSplineSet
EndChar

StartChar: question
Encoding: 63 63 37
Width: 984
GlyphClass: 2
Flags: W
LayerCount: 2
Fore
SplineSet
587 94 m 0,0,1
 587 59 587 59 575 34 c 128,-1,2
 563 9 563 9 544 -7 c 128,-1,3
 525 -23 525 -23 502.5 -30.5 c 128,-1,4
 480 -38 480 -38 458 -38 c 0,5,6
 418 -38 418 -38 390 -26.5 c 128,-1,7
 362 -15 362 -15 344.5 3.5 c 128,-1,8
 327 22 327 22 319 45.5 c 128,-1,9
 311 69 311 69 311 93 c 0,10,11
 311 168 311 168 348.5 204 c 128,-1,12
 386 240 386 240 449 240 c 0,13,14
 479 240 479 240 504 227.5 c 128,-1,15
 529 215 529 215 547.5 194.5 c 128,-1,16
 566 174 566 174 576.5 148 c 128,-1,17
 587 122 587 122 587 94 c 0,0,1
462 377 m 1,18,19
 441 389 441 389 417.5 408 c 128,-1,20
 394 427 394 427 374.5 451.5 c 128,-1,21
 355 476 355 476 342 505 c 128,-1,22
 329 534 329 534 329 567 c 0,23,24
 329 617 329 617 353.5 659.5 c 128,-1,25
 378 702 378 702 414.5 741.5 c 128,-1,26
 451 781 451 781 493.5 820.5 c 128,-1,27
 536 860 536 860 572.5 904 c 128,-1,28
 609 948 609 948 633.5 998.5 c 128,-1,29
 658 1049 658 1049 658 1112 c 0,30,31
 658 1161 658 1161 644.5 1200.5 c 128,-1,32
 631 1240 631 1240 606.5 1267.5 c 128,-1,33
 582 1295 582 1295 547.5 1309.5 c 128,-1,34
 513 1324 513 1324 471 1324 c 0,35,36
 434 1324 434 1324 396.5 1319 c 128,-1,37
 359 1314 359 1314 326 1297.5 c 128,-1,38
 293 1281 293 1281 266.5 1248.5 c 128,-1,39
 240 1216 240 1216 225 1161 c 1,40,-1
 88 1161 l 1,41,42
 89 1221 89 1221 107 1266.5 c 128,-1,43
 125 1312 125 1312 155 1345 c 128,-1,44
 185 1378 185 1378 224 1400 c 128,-1,45
 263 1422 263 1422 305.5 1434.5 c 128,-1,46
 348 1447 348 1447 391.5 1452.5 c 128,-1,47
 435 1458 435 1458 475 1458 c 0,48,49
 566 1458 566 1458 640.5 1434.5 c 128,-1,50
 715 1411 715 1411 768 1366 c 128,-1,51
 821 1321 821 1321 850.5 1256 c 128,-1,52
 880 1191 880 1191 880 1108 c 0,53,54
 880 1034 880 1034 852.5 973 c 128,-1,55
 825 912 825 912 784 861.5 c 128,-1,56
 743 811 743 811 694.5 768.5 c 128,-1,57
 646 726 646 726 605 689 c 128,-1,58
 564 652 564 652 536.5 618.5 c 128,-1,59
 509 585 509 585 509 552 c 0,60,61
 509 537 509 537 511 516.5 c 128,-1,62
 513 496 513 496 517 472.5 c 128,-1,63
 521 449 521 449 527 424.5 c 128,-1,64
 533 400 533 400 540 377 c 1,65,-1
 462 377 l 1,18,19
EndSplineSet
EndChar

StartChar: at
Encoding: 64 64 38
Width: 1859
GlyphClass: 2
Flags: W
LayerCount: 2
Fore
SplineSet
1554 0 m 1,0,1
 1421 -85 1421 -85 1277.5 -128.5 c 128,-1,2
 1134 -172 1134 -172 992 -172 c 0,3,4
 864 -172 864 -172 750.5 -143 c 128,-1,5
 637 -114 637 -114 541.5 -61 c 128,-1,6
 446 -8 446 -8 370 65.5 c 128,-1,7
 294 139 294 139 241.5 228 c 128,-1,8
 189 317 189 317 161 419 c 128,-1,9
 133 521 133 521 133 630 c 0,10,11
 133 754 133 754 164.5 864 c 128,-1,12
 196 974 196 974 252.5 1067 c 128,-1,13
 309 1160 309 1160 388.5 1234.5 c 128,-1,14
 468 1309 468 1309 565 1361 c 128,-1,15
 662 1413 662 1413 772.5 1440.5 c 128,-1,16
 883 1468 883 1468 1003 1468 c 0,17,18
 1162 1468 1162 1468 1298.5 1418 c 128,-1,19
 1435 1368 1435 1368 1535.5 1276.5 c 128,-1,20
 1636 1185 1636 1185 1693.5 1055.5 c 128,-1,21
 1751 926 1751 926 1751 767 c 0,22,23
 1751 667 1751 667 1720.5 569.5 c 128,-1,24
 1690 472 1690 472 1635.5 395 c 128,-1,25
 1581 318 1581 318 1505.5 270.5 c 128,-1,26
 1430 223 1430 223 1340 223 c 0,27,28
 1294 223 1294 223 1257 236.5 c 128,-1,29
 1220 250 1220 250 1192.5 273 c 128,-1,30
 1165 296 1165 296 1146 327.5 c 128,-1,31
 1127 359 1127 359 1117 395 c 1,32,-1
 1109 395 l 1,33,34
 1067 319 1067 319 999.5 271 c 128,-1,35
 932 223 932 223 842 223 c 0,36,37
 789 223 789 223 739.5 241 c 128,-1,38
 690 259 690 259 652.5 297 c 128,-1,39
 615 335 615 335 592.5 393.5 c 128,-1,40
 570 452 570 452 570 533 c 0,41,42
 570 642 570 642 606 744 c 128,-1,43
 642 846 642 846 706.5 924 c 128,-1,44
 771 1002 771 1002 861 1049 c 128,-1,45
 951 1096 951 1096 1059 1096 c 0,46,47
 1116 1096 1116 1096 1162 1070.5 c 128,-1,48
 1208 1045 1208 1045 1237 987 c 1,49,-1
 1276 1052 l 1,50,-1
 1383 1052 l 1,51,-1
 1267 552 l 2,52,53
 1261 526 1261 526 1257.5 501 c 128,-1,54
 1254 476 1254 476 1254 453 c 0,55,56
 1254 386 1254 386 1279.5 355 c 128,-1,57
 1305 324 1305 324 1362 324 c 0,58,59
 1413 324 1413 324 1461.5 360.5 c 128,-1,60
 1510 397 1510 397 1548.5 458.5 c 128,-1,61
 1587 520 1587 520 1610 601 c 128,-1,62
 1633 682 1633 682 1633 772 c 0,63,64
 1633 896 1633 896 1588 1003.5 c 128,-1,65
 1543 1111 1543 1111 1460.5 1190.5 c 128,-1,66
 1378 1270 1378 1270 1261.5 1316 c 128,-1,67
 1145 1362 1145 1362 1001 1362 c 0,68,69
 867 1362 867 1362 742.5 1313 c 128,-1,70
 618 1264 618 1264 522.5 1170 c 128,-1,71
 427 1076 427 1076 370 938.5 c 128,-1,72
 313 801 313 801 313 623 c 0,73,74
 313 464 313 464 368 336 c 128,-1,75
 423 208 423 208 517.5 117 c 128,-1,76
 612 26 612 26 738 -23 c 128,-1,77
 864 -72 864 -72 1007 -72 c 0,78,79
 1279 -72 1279 -72 1515 73 c 1,80,-1
 1554 0 l 1,0,1
754 533 m 0,81,82
 754 490 754 490 764.5 453 c 128,-1,83
 775 416 775 416 794 388.5 c 128,-1,84
 813 361 813 361 840 345.5 c 128,-1,85
 867 330 867 330 901 330 c 0,86,87
 949 330 949 330 986 354.5 c 128,-1,88
 1023 379 1023 379 1051.5 420.5 c 128,-1,89
 1080 462 1080 462 1101 518.5 c 128,-1,90
 1122 575 1122 575 1137.5 639 c 128,-1,91
 1153 703 1153 703 1164 771.5 c 128,-1,92
 1175 840 1175 840 1184 906 c 1,93,94
 1176 952 1176 952 1147 978.5 c 128,-1,95
 1118 1005 1118 1005 1064 1005 c 0,96,97
 1005 1005 1005 1005 949.5 963.5 c 128,-1,98
 894 922 894 922 850.5 855 c 128,-1,99
 807 788 807 788 780.5 703.5 c 128,-1,100
 754 619 754 619 754 533 c 0,81,82
EndSplineSet
EndChar

StartChar: A
Encoding: 65 65 39
Width: 1581
GlyphClass: 2
Flags: W
LayerCount: 2
Fore
SplineSet
750 1259 m 1,0,-1
 499 526 l 1,1,-1
 1005 526 l 1,2,-1
 759 1259 l 1,3,-1
 750 1259 l 1,0,-1
1352 259 m 2,4,5
 1368 217 1368 217 1382.5 187.5 c 128,-1,6
 1397 158 1397 158 1412 135 c 1,7,8
 1435 129 1435 129 1458.5 127.5 c 128,-1,9
 1482 126 1482 126 1508 126 c 2,10,-1
 1552 126 l 1,11,-1
 1581 -14 l 1,12,13
 1514 -4 1514 -4 1454.5 -2 c 128,-1,14
 1395 0 1395 0 1339 0 c 0,15,16
 1298 0 1298 0 1260.5 -0.5 c 128,-1,17
 1223 -1 1223 -1 1187 -2.5 c 128,-1,18
 1151 -4 1151 -4 1115 -6.5 c 128,-1,19
 1079 -9 1079 -9 1041 -14 c 1,20,-1
 1022 126 l 1,21,-1
 1039 126 l 2,22,23
 1068 126 1068 126 1093 127 c 128,-1,24
 1118 128 1118 128 1138 135 c 1,25,26
 1137 158 1137 158 1130.5 188 c 128,-1,27
 1124 218 1124 218 1109 256 c 2,28,-1
 1043 423 l 1,29,-1
 466 423 l 1,30,-1
 412 259 l 2,31,32
 400 223 400 223 394.5 196.5 c 128,-1,33
 389 170 389 170 389 147 c 0,34,35
 389 139 389 139 396 135 c 128,-1,36
 403 131 403 131 413.5 129 c 128,-1,37
 424 127 424 127 436.5 126.5 c 128,-1,38
 449 126 449 126 461 126 c 2,39,-1
 507 126 l 1,40,-1
 498 -14 l 1,41,42
 442 -4 442 -4 389.5 -2 c 128,-1,43
 337 0 337 0 286 0 c 0,44,45
 210 0 210 0 143 -2 c 128,-1,46
 76 -4 76 -4 0 -14 c 1,47,-1
 30 126 l 1,48,-1
 76 126 l 2,49,50
 103 126 103 126 126.5 127 c 128,-1,51
 150 128 150 128 172 135 c 1,52,53
 189 158 189 158 204 188 c 128,-1,54
 219 218 219 218 233 256 c 0,55,56
 245 289 245 289 271 357 c 128,-1,57
 297 425 297 425 332 514.5 c 128,-1,58
 367 604 367 604 407.5 707 c 128,-1,59
 448 810 448 810 489 913 c 2,60,-1
 697 1437 l 1,61,-1
 789 1437 l 2,62,63
 834 1437 834 1437 860.5 1433 c 128,-1,64
 887 1429 887 1429 911 1421 c 1,65,-1
 1352 259 l 2,4,5
EndSplineSet
EndChar

StartChar: B
Encoding: 66 66 40
Width: 1457
GlyphClass: 2
Flags: W
LayerCount: 2
Fore
SplineSet
529 126 m 1,0,-1
 775 126 l 2,1,2
 948 126 948 126 1027.5 194.5 c 128,-1,3
 1107 263 1107 263 1107 386 c 0,4,5
 1107 533 1107 533 1018 606.5 c 128,-1,6
 929 680 929 680 737 680 c 0,7,8
 678 680 678 680 642 680 c 128,-1,9
 606 680 606 680 584 680 c 128,-1,10
 562 680 562 680 550.5 679.5 c 128,-1,11
 539 679 539 679 529 678 c 1,12,-1
 529 126 l 1,0,-1
1076 1064 m 0,13,14
 1076 1128 1076 1128 1056.5 1176.5 c 128,-1,15
 1037 1225 1037 1225 994.5 1258 c 128,-1,16
 952 1291 952 1291 885 1307.5 c 128,-1,17
 818 1324 818 1324 723 1324 c 0,18,19
 674 1324 674 1324 640 1322.5 c 128,-1,20
 606 1321 606 1321 583.5 1319.5 c 128,-1,21
 561 1318 561 1318 548.5 1317 c 128,-1,22
 536 1316 536 1316 529 1316 c 1,23,-1
 529 804 l 1,24,25
 571 801 571 801 613.5 798.5 c 128,-1,26
 656 796 656 796 701 796 c 0,27,28
 787 796 787 796 856.5 812.5 c 128,-1,29
 926 829 926 829 974.5 862.5 c 128,-1,30
 1023 896 1023 896 1049.5 946 c 128,-1,31
 1076 996 1076 996 1076 1064 c 0,13,14
306 1154 m 2,32,33
 306 1246 306 1246 290 1298 c 1,34,35
 273 1300 273 1300 252.5 1301.5 c 128,-1,36
 232 1303 232 1303 209 1303 c 0,37,38
 178 1303 178 1303 144 1301.5 c 128,-1,39
 110 1300 110 1300 78 1299 c 1,40,-1
 78 1413 l 1,41,42
 213 1432 213 1432 382.5 1442.5 c 128,-1,43
 552 1453 552 1453 770 1453 c 0,44,45
 1032 1453 1032 1453 1163.5 1357.5 c 128,-1,46
 1295 1262 1295 1262 1295 1070 c 0,47,48
 1295 1010 1295 1010 1273 956 c 128,-1,49
 1251 902 1251 902 1211.5 859 c 128,-1,50
 1172 816 1172 816 1117 787 c 128,-1,51
 1062 758 1062 758 996 748 c 1,52,53
 1332 703 1332 703 1332 393 c 0,54,55
 1332 301 1332 301 1304.5 236.5 c 128,-1,56
 1277 172 1277 172 1228 128 c 128,-1,57
 1179 84 1179 84 1111 58.5 c 128,-1,58
 1043 33 1043 33 963 20 c 128,-1,59
 883 7 883 7 793 3.5 c 128,-1,60
 703 0 703 0 609 0 c 0,61,62
 479 0 479 0 353.5 -3.5 c 128,-1,63
 228 -7 228 -7 98 -14 c 1,64,-1
 98 126 l 1,65,-1
 187 126 l 2,66,67
 216 126 216 126 242 127 c 128,-1,68
 268 128 268 128 290 135 c 1,69,70
 306 176 306 176 306 256 c 2,71,-1
 306 1154 l 2,32,33
EndSplineSet
EndChar

StartChar: C
Encoding: 67 67 41
Width: 1375
GlyphClass: 2
Flags: W
LayerCount: 2
Fore
SplineSet
1306 82 m 1,0,1
 1209 25 1209 25 1088.5 -6 c 128,-1,2
 968 -37 968 -37 814 -37 c 0,3,4
 663 -37 663 -37 535.5 7.5 c 128,-1,5
 408 52 408 52 315 141.5 c 128,-1,6
 222 231 222 231 169.5 366.5 c 128,-1,7
 117 502 117 502 117 685 c 0,8,9
 117 870 117 870 165 1014 c 128,-1,10
 213 1158 213 1158 305 1256.5 c 128,-1,11
 397 1355 397 1355 531.5 1406.5 c 128,-1,12
 666 1458 666 1458 839 1458 c 0,13,14
 915 1458 915 1458 984 1448 c 128,-1,15
 1053 1438 1053 1438 1110.5 1422.5 c 128,-1,16
 1168 1407 1168 1407 1212.5 1389 c 128,-1,17
 1257 1371 1257 1371 1283 1355 c 1,18,-1
 1259 1076 l 1,19,-1
 1136 1076 l 1,20,21
 1111 1143 1111 1143 1085 1192.5 c 128,-1,22
 1059 1242 1059 1242 1025 1274 c 128,-1,23
 991 1306 991 1306 945 1321.5 c 128,-1,24
 899 1337 899 1337 834 1337 c 0,25,26
 708 1337 708 1337 618 1290 c 128,-1,27
 528 1243 528 1243 470.5 1161.5 c 128,-1,28
 413 1080 413 1080 385.5 968.5 c 128,-1,29
 358 857 358 857 358 728 c 0,30,31
 358 566 358 566 391.5 447.5 c 128,-1,32
 425 329 425 329 486.5 251 c 128,-1,33
 548 173 548 173 635.5 135.5 c 128,-1,34
 723 98 723 98 831 98 c 0,35,36
 934 98 934 98 1047 129 c 128,-1,37
 1160 160 1160 160 1291 221 c 1,38,-1
 1306 82 l 1,0,1
EndSplineSet
EndChar

StartChar: D
Encoding: 68 68 42
Width: 1618
GlyphClass: 2
Flags: W
LayerCount: 2
Fore
SplineSet
410 0 m 0,0,1
 330 0 330 0 251 -4 c 128,-1,2
 172 -8 172 -8 91 -14 c 1,3,-1
 91 127 l 1,4,-1
 181 127 l 2,5,6
 210 127 210 127 236 128 c 128,-1,7
 262 129 262 129 284 136 c 1,8,9
 299 181 299 181 299 257 c 2,10,-1
 299 1145 l 2,11,12
 299 1190 299 1190 295 1224.5 c 128,-1,13
 291 1259 291 1259 284 1288 c 1,14,15
 262 1296 262 1296 236 1297.5 c 128,-1,16
 210 1299 210 1299 181 1299 c 2,17,-1
 78 1299 l 1,18,-1
 78 1416 l 1,19,20
 214 1433 214 1433 387 1443 c 128,-1,21
 560 1453 560 1453 781 1453 c 0,22,23
 882 1453 882 1453 975 1438.5 c 128,-1,24
 1068 1424 1068 1424 1148 1390 c 128,-1,25
 1228 1356 1228 1356 1293 1300 c 128,-1,26
 1358 1244 1358 1244 1404.5 1161.5 c 128,-1,27
 1451 1079 1451 1079 1476 967.5 c 128,-1,28
 1501 856 1501 856 1501 710 c 0,29,30
 1501 540 1501 540 1463 421.5 c 128,-1,31
 1425 303 1425 303 1355.5 224 c 128,-1,32
 1286 145 1286 145 1187.5 100 c 128,-1,33
 1089 55 1089 55 967.5 33 c 128,-1,34
 846 11 846 11 705 5.5 c 128,-1,35
 564 0 564 0 410 0 c 0,0,1
515 126 m 1,36,37
 531 124 531 124 546 124 c 128,-1,38
 561 124 561 124 576 124 c 0,39,40
 690 124 690 124 785 134.5 c 128,-1,41
 880 145 880 145 956 170.5 c 128,-1,42
 1032 196 1032 196 1089.5 239.5 c 128,-1,43
 1147 283 1147 283 1185 349 c 128,-1,44
 1223 415 1223 415 1242 505.5 c 128,-1,45
 1261 596 1261 596 1261 716 c 0,46,47
 1261 885 1261 885 1230.5 999.5 c 128,-1,48
 1200 1114 1200 1114 1137 1184 c 128,-1,49
 1074 1254 1074 1254 978.5 1284 c 128,-1,50
 883 1314 883 1314 753 1314 c 0,51,52
 683 1314 683 1314 619 1312 c 128,-1,53
 555 1310 555 1310 515 1310 c 1,54,-1
 515 126 l 1,36,37
EndSplineSet
EndChar

StartChar: E
Encoding: 69 69 43
Width: 1356
GlyphClass: 2
Flags: W
LayerCount: 2
Fore
SplineSet
1204 1437 m 1,0,-1
 1231 1308 l 2,1,2
 1236 1283 1236 1283 1241 1257.5 c 128,-1,3
 1246 1232 1246 1232 1249.5 1209.5 c 128,-1,4
 1253 1187 1253 1187 1255.5 1170 c 128,-1,5
 1258 1153 1258 1153 1258 1144 c 1,6,-1
 1111 1138 l 1,7,-1
 1103 1188 l 2,8,9
 1099 1210 1099 1210 1093.5 1234.5 c 128,-1,10
 1088 1259 1088 1259 1080 1282 c 1,11,12
 1045 1298 1045 1298 984 1304 c 128,-1,13
 923 1310 923 1310 823 1310 c 0,14,15
 811 1310 811 1310 791.5 1309.5 c 128,-1,16
 772 1309 772 1309 737 1308.5 c 128,-1,17
 702 1308 702 1308 648.5 1306.5 c 128,-1,18
 595 1305 595 1305 515 1303 c 1,19,-1
 515 799 l 1,20,-1
 855 799 l 2,21,22
 875 799 875 799 892.5 801.5 c 128,-1,23
 910 804 910 804 925 814.5 c 128,-1,24
 940 825 940 825 952.5 847.5 c 128,-1,25
 965 870 965 870 976 910 c 1,26,-1
 1028 910 l 1,27,28
 1028 819 1028 819 1024.5 727.5 c 128,-1,29
 1021 636 1021 636 1015 555 c 1,30,-1
 952 555 l 1,31,32
 940 592 940 592 928.5 616 c 128,-1,33
 917 640 917 640 902 654 c 128,-1,34
 887 668 887 668 868 673.5 c 128,-1,35
 849 679 849 679 822 679 c 2,36,-1
 515 679 l 1,37,-1
 515 126 l 1,38,-1
 971 126 l 2,39,40
 1022 126 1022 126 1062.5 136 c 128,-1,41
 1103 146 1103 146 1119 160 c 1,42,43
 1127 183 1127 183 1134 222 c 128,-1,44
 1141 261 1141 261 1146 327 c 1,45,46
 1171 327 1171 327 1205.5 326 c 128,-1,47
 1240 325 1240 325 1270 325 c 1,48,-1
 1270 209 l 2,49,50
 1270 161 1270 161 1266.5 109 c 128,-1,51
 1263 57 1263 57 1260 21 c 1,52,53
 1230 12 1230 12 1196.5 5.5 c 128,-1,54
 1163 -1 1163 -1 1118 -5.5 c 128,-1,55
 1073 -10 1073 -10 1012.5 -12 c 128,-1,56
 952 -14 952 -14 869 -14 c 0,57,58
 807 -14 807 -14 750 -12 c 128,-1,59
 693 -10 693 -10 637 -7 c 128,-1,60
 581 -4 581 -4 524.5 -2 c 128,-1,61
 468 0 468 0 407 0 c 0,62,63
 325 0 325 0 247.5 -2 c 128,-1,64
 170 -4 170 -4 89 -14 c 1,65,-1
 89 126 l 1,66,-1
 178 126 l 2,67,68
 208 126 208 126 234 127 c 128,-1,69
 260 128 260 128 281 135 c 1,70,71
 297 177 297 177 297 256 c 2,72,-1
 297 1174 l 2,73,74
 297 1212 297 1212 292.5 1240 c 128,-1,75
 288 1268 288 1268 280 1289 c 1,76,77
 261 1297 261 1297 238 1298 c 128,-1,78
 215 1299 215 1299 189 1299 c 2,79,-1
 78 1299 l 1,80,-1
 78 1407 l 1,81,82
 175 1425 175 1425 308 1431 c 128,-1,83
 441 1437 441 1437 592 1437 c 2,84,-1
 1204 1437 l 1,0,-1
EndSplineSet
EndChar

StartChar: F
Encoding: 70 70 44
Width: 1339
GlyphClass: 2
Flags: W
LayerCount: 2
Fore
SplineSet
523 803 m 1,0,-1
 820 803 l 2,1,2
 840 803 840 803 857 806 c 128,-1,3
 874 809 874 809 889 820 c 128,-1,4
 904 831 904 831 916.5 852 c 128,-1,5
 929 873 929 873 940 910 c 1,6,-1
 992 910 l 1,7,8
 992 819 992 819 989 727.5 c 128,-1,9
 986 636 986 636 980 555 c 1,10,-1
 917 555 l 1,11,12
 905 591 905 591 893 614 c 128,-1,13
 881 637 881 637 866.5 650 c 128,-1,14
 852 663 852 663 833 667.5 c 128,-1,15
 814 672 814 672 787 672 c 2,16,-1
 523 672 l 1,17,-1
 523 259 l 2,18,19
 523 217 523 217 527 187.5 c 128,-1,20
 531 158 531 158 538 135 c 1,21,22
 560 128 560 128 586 127 c 128,-1,23
 612 126 612 126 641 126 c 2,24,-1
 731 126 l 1,25,-1
 731 -14 l 1,26,27
 643 -9 643 -9 566 -4.5 c 128,-1,28
 489 0 489 0 414 0 c 0,29,30
 338 0 338 0 266 -4 c 128,-1,31
 194 -8 194 -8 119 -13 c 0,32,33
 114 -13 114 -13 108.5 -13.5 c 128,-1,34
 103 -14 103 -14 98 -14 c 1,35,-1
 98 126 l 1,36,-1
 187 126 l 2,37,38
 216 126 216 126 242 127 c 128,-1,39
 268 128 268 128 290 135 c 1,40,41
 305 174 305 174 305 243 c 2,42,-1
 305 1178 l 2,43,44
 305 1251 305 1251 289 1289 c 1,45,46
 269 1297 269 1297 246 1298 c 128,-1,47
 223 1299 223 1299 197 1299 c 2,48,-1
 78 1299 l 1,49,-1
 78 1407 l 1,50,51
 199 1421 199 1421 373.5 1429 c 128,-1,52
 548 1437 548 1437 772 1437 c 2,53,-1
 1212 1437 l 1,54,55
 1224 1363 1224 1363 1231 1311.5 c 128,-1,56
 1238 1260 1238 1260 1242.5 1225.5 c 128,-1,57
 1247 1191 1247 1191 1248.5 1172 c 128,-1,58
 1250 1153 1250 1153 1251 1144 c 1,59,-1
 1105 1138 l 1,60,61
 1105 1158 1105 1158 1099.5 1197.5 c 128,-1,62
 1094 1237 1094 1237 1078 1282 c 1,63,64
 1045 1298 1045 1298 986.5 1304 c 128,-1,65
 928 1310 928 1310 831 1310 c 0,66,67
 819 1310 819 1310 799.5 1309.5 c 128,-1,68
 780 1309 780 1309 745.5 1308.5 c 128,-1,69
 711 1308 711 1308 657 1306.5 c 128,-1,70
 603 1305 603 1305 523 1303 c 1,71,-1
 523 803 l 1,0,-1
EndSplineSet
EndChar

StartChar: G
Encoding: 71 71 45
Width: 1395
GlyphClass: 2
Flags: W
LayerCount: 2
Fore
SplineSet
896 1458 m 0,0,1
 968 1458 968 1458 1034.5 1448 c 128,-1,2
 1101 1438 1101 1438 1157 1422.5 c 128,-1,3
 1213 1407 1213 1407 1256 1389 c 128,-1,4
 1299 1371 1299 1371 1324 1355 c 1,5,-1
 1299 1076 l 1,6,-1
 1176 1076 l 1,7,8
 1151 1143 1151 1143 1125 1192.5 c 128,-1,9
 1099 1242 1099 1242 1064.5 1274 c 128,-1,10
 1030 1306 1030 1306 984 1321.5 c 128,-1,11
 938 1337 938 1337 873 1337 c 0,12,13
 741 1337 741 1337 644.5 1293 c 128,-1,14
 548 1249 548 1249 484 1167.5 c 128,-1,15
 420 1086 420 1086 389 969 c 128,-1,16
 358 852 358 852 358 705 c 0,17,18
 358 569 358 569 389.5 457 c 128,-1,19
 421 345 421 345 482.5 265 c 128,-1,20
 544 185 544 185 634.5 141 c 128,-1,21
 725 97 725 97 844 97 c 0,22,23
 932 97 932 97 1006 110 c 128,-1,24
 1080 123 1080 123 1140 152 c 1,25,-1
 1140 384 l 2,26,27
 1140 421 1140 421 1137 454.5 c 128,-1,28
 1134 488 1134 488 1126 513 c 1,29,30
 1104 521 1104 521 1077.5 524 c 128,-1,31
 1051 527 1051 527 1019 527 c 2,32,-1
 901 527 l 1,33,-1
 901 635 l 1,34,35
 918 636 918 636 944.5 639 c 128,-1,36
 971 642 971 642 1012 645 c 128,-1,37
 1053 648 1053 648 1111.5 650.5 c 128,-1,38
 1170 653 1170 653 1251 653 c 0,39,40
 1275 653 1275 653 1301 653 c 128,-1,41
 1327 653 1327 653 1356 652 c 1,42,43
 1354 604 1354 604 1353 570.5 c 128,-1,44
 1352 537 1352 537 1351 513.5 c 128,-1,45
 1350 490 1350 490 1350 476 c 128,-1,46
 1350 462 1350 462 1350 453 c 2,47,-1
 1350 101 l 1,48,49
 1262 41 1262 41 1133 2 c 128,-1,50
 1004 -37 1004 -37 842 -37 c 0,51,52
 689 -37 689 -37 557 5.5 c 128,-1,53
 425 48 425 48 327 136.5 c 128,-1,54
 229 225 229 225 173 361 c 128,-1,55
 117 497 117 497 117 683 c 0,56,57
 117 879 117 879 172 1024.5 c 128,-1,58
 227 1170 227 1170 328.5 1266.5 c 128,-1,59
 430 1363 430 1363 574 1410.5 c 128,-1,60
 718 1458 718 1458 896 1458 c 0,0,1
EndSplineSet
EndChar

StartChar: H
Encoding: 72 72 46
Width: 1696
GlyphClass: 2
Flags: W
LayerCount: 2
Fore
SplineSet
1189 676 m 1,0,-1
 506 676 l 1,1,-1
 506 259 l 2,2,3
 506 217 506 217 509.5 187.5 c 128,-1,4
 513 158 513 158 520 135 c 1,5,6
 543 128 543 128 568.5 127 c 128,-1,7
 594 126 594 126 623 126 c 2,8,-1
 713 126 l 1,9,-1
 713 -14 l 1,10,11
 632 -4 632 -4 562.5 -2 c 128,-1,12
 493 0 493 0 426 0 c 0,13,14
 336 0 336 0 252 -1.5 c 128,-1,15
 168 -3 168 -3 80 -14 c 1,16,-1
 80 126 l 1,17,-1
 169 126 l 2,18,19
 199 126 199 126 224.5 127 c 128,-1,20
 250 128 250 128 272 135 c 1,21,22
 288 179 288 179 288 256 c 2,23,-1
 288 1181 l 2,24,25
 288 1220 288 1220 283.5 1249 c 128,-1,26
 279 1278 279 1278 271 1301 c 1,27,28
 249 1309 249 1309 223.5 1310.5 c 128,-1,29
 198 1312 198 1312 168 1312 c 2,30,-1
 78 1312 l 1,31,-1
 78 1422 l 1,32,33
 147 1430 147 1430 222 1433.5 c 128,-1,34
 297 1437 297 1437 388 1437 c 0,35,36
 485 1437 485 1437 569 1435 c 128,-1,37
 653 1433 653 1433 716 1422 c 1,38,-1
 716 1312 l 1,39,-1
 623 1312 l 2,40,41
 594 1312 594 1312 568.5 1310.5 c 128,-1,42
 543 1309 543 1309 520 1301 c 1,43,44
 513 1278 513 1278 509.5 1249 c 128,-1,45
 506 1220 506 1220 506 1181 c 2,46,-1
 506 811 l 1,47,-1
 1189 811 l 1,48,-1
 1189 1181 l 2,49,50
 1189 1220 1189 1220 1185 1249 c 128,-1,51
 1181 1278 1181 1278 1173 1301 c 1,52,53
 1151 1309 1151 1309 1125 1310.5 c 128,-1,54
 1099 1312 1099 1312 1070 1312 c 2,55,-1
 980 1312 l 1,56,-1
 980 1422 l 1,57,58
 1049 1430 1049 1430 1124 1433.5 c 128,-1,59
 1199 1437 1199 1437 1290 1437 c 0,60,61
 1387 1437 1387 1437 1471 1435 c 128,-1,62
 1555 1433 1555 1433 1618 1422 c 1,63,-1
 1618 1312 l 1,64,-1
 1525 1312 l 2,65,66
 1496 1312 1496 1312 1470 1310.5 c 128,-1,67
 1444 1309 1444 1309 1422 1301 c 1,68,69
 1415 1278 1415 1278 1410.5 1249 c 128,-1,70
 1406 1220 1406 1220 1406 1181 c 2,71,-1
 1406 259 l 2,72,73
 1406 217 1406 217 1410 187.5 c 128,-1,74
 1414 158 1414 158 1421 135 c 1,75,76
 1443 128 1443 128 1469 127 c 128,-1,77
 1495 126 1495 126 1524 126 c 2,78,-1
 1614 126 l 1,79,-1
 1614 -14 l 1,80,81
 1533 -4 1533 -4 1463 -2 c 128,-1,82
 1393 0 1393 0 1326 0 c 0,83,84
 1236 0 1236 0 1152.5 -1.5 c 128,-1,85
 1069 -3 1069 -3 981 -14 c 1,86,-1
 981 126 l 1,87,-1
 1070 126 l 2,88,89
 1099 126 1099 126 1125 127 c 128,-1,90
 1151 128 1151 128 1173 135 c 1,91,92
 1189 176 1189 176 1189 256 c 2,93,-1
 1189 676 l 1,0,-1
EndSplineSet
EndChar

StartChar: I
Encoding: 73 73 47
Width: 792
GlyphClass: 2
Flags: W
LayerCount: 2
Fore
SplineSet
79 126 m 1,0,-1
 168 126 l 2,1,2
 198 126 198 126 223.5 127 c 128,-1,3
 249 128 249 128 271 135 c 1,4,5
 287 179 287 179 287 256 c 2,6,-1
 287 1187 l 2,7,8
 287 1226 287 1226 283 1252 c 128,-1,9
 279 1278 279 1278 271 1301 c 1,10,11
 249 1309 249 1309 223.5 1310.5 c 128,-1,12
 198 1312 198 1312 168 1312 c 2,13,-1
 78 1312 l 1,14,-1
 78 1422 l 1,15,16
 147 1430 147 1430 223 1433.5 c 128,-1,17
 299 1437 299 1437 393 1437 c 0,18,19
 490 1437 490 1437 572 1435 c 128,-1,20
 654 1433 654 1433 714 1422 c 1,21,-1
 714 1312 l 1,22,-1
 622 1312 l 2,23,24
 593 1312 593 1312 567.5 1310.5 c 128,-1,25
 542 1309 542 1309 519 1301 c 1,26,27
 513 1278 513 1278 509 1252 c 128,-1,28
 505 1226 505 1226 505 1187 c 2,29,-1
 505 259 l 2,30,31
 505 217 505 217 509 187.5 c 128,-1,32
 513 158 513 158 519 135 c 1,33,34
 542 129 542 129 567.5 127.5 c 128,-1,35
 593 126 593 126 622 126 c 2,36,-1
 712 126 l 1,37,-1
 712 -14 l 1,38,39
 634 -4 634 -4 565.5 -2 c 128,-1,40
 497 0 497 0 431 0 c 0,41,42
 340 0 340 0 255 -2 c 128,-1,43
 170 -4 170 -4 79 -14 c 1,44,-1
 79 126 l 1,0,-1
EndSplineSet
EndChar

StartChar: J
Encoding: 74 74 48
Width: 1023
GlyphClass: 2
Flags: W
LayerCount: 2
Fore
SplineSet
755 316 m 2,0,1
 755 193 755 193 730 100.5 c 128,-1,2
 705 8 705 8 659 -53.5 c 128,-1,3
 613 -115 613 -115 547 -146 c 128,-1,4
 481 -177 481 -177 399 -177 c 0,5,6
 371 -177 371 -177 322.5 -172.5 c 128,-1,7
 274 -168 274 -168 222 -159.5 c 128,-1,8
 170 -151 170 -151 122 -137.5 c 128,-1,9
 74 -124 74 -124 47 -106 c 1,10,11
 47 -102 47 -102 48 -83.5 c 128,-1,12
 49 -65 49 -65 51 -27.5 c 128,-1,13
 53 10 53 10 57 69 c 128,-1,14
 61 128 61 128 67 214 c 1,15,-1
 208 208 l 1,16,17
 212 168 212 168 219 125.5 c 128,-1,18
 226 83 226 83 233 47 c 0,19,20
 241 5 241 5 250 -36 c 1,21,22
 270 -40 270 -40 291 -44 c 0,23,24
 309 -47 309 -47 329.5 -49 c 128,-1,25
 350 -51 350 -51 370 -51 c 0,26,27
 425 -51 425 -51 458.5 -23 c 128,-1,28
 492 5 492 5 509 57 c 128,-1,29
 526 109 526 109 531.5 183.5 c 128,-1,30
 537 258 537 258 537 351 c 2,31,-1
 537 1181 l 2,32,33
 537 1260 537 1260 521 1301 c 1,34,35
 500 1309 500 1309 474 1310.5 c 128,-1,36
 448 1312 448 1312 418 1312 c 2,37,-1
 328 1312 l 1,38,-1
 328 1422 l 1,39,40
 397 1430 397 1430 472.5 1433.5 c 128,-1,41
 548 1437 548 1437 639 1437 c 0,42,43
 736 1437 736 1437 819.5 1435 c 128,-1,44
 903 1433 903 1433 966 1422 c 1,45,-1
 966 1312 l 1,46,-1
 874 1312 l 2,47,48
 844 1312 844 1312 818 1310.5 c 128,-1,49
 792 1309 792 1309 771 1301 c 1,50,51
 755 1257 755 1257 755 1180 c 2,52,-1
 755 316 l 2,0,1
EndSplineSet
EndChar

StartChar: K
Encoding: 75 75 49
Width: 1465
GlyphClass: 2
Flags: W
LayerCount: 2
Fore
SplineSet
505 256 m 2,0,1
 505 179 505 179 521 135 c 1,2,3
 543 128 543 128 569 127 c 128,-1,4
 595 126 595 126 624 126 c 2,5,-1
 713 126 l 1,6,-1
 713 -14 l 1,7,8
 632 -5 632 -5 554.5 -2.5 c 128,-1,9
 477 0 477 0 396 0 c 256,10,11
 315 0 315 0 238 -2.5 c 128,-1,12
 161 -5 161 -5 80 -14 c 1,13,-1
 80 126 l 1,14,-1
 169 126 l 2,15,16
 198 126 198 126 224 127 c 128,-1,17
 250 128 250 128 272 135 c 1,18,19
 287 174 287 174 287 243 c 2,20,-1
 287 1181 l 2,21,22
 287 1220 287 1220 283 1249 c 128,-1,23
 279 1278 279 1278 271 1301 c 1,24,25
 249 1309 249 1309 223.5 1310.5 c 128,-1,26
 198 1312 198 1312 168 1312 c 2,27,-1
 78 1312 l 1,28,-1
 78 1422 l 1,29,30
 147 1430 147 1430 223 1433.5 c 128,-1,31
 299 1437 299 1437 393 1437 c 0,32,33
 490 1437 490 1437 572 1435 c 128,-1,34
 654 1433 654 1433 714 1422 c 1,35,-1
 714 1312 l 1,36,-1
 622 1312 l 2,37,38
 593 1312 593 1312 567.5 1310.5 c 128,-1,39
 542 1309 542 1309 519 1301 c 1,40,41
 513 1278 513 1278 509 1249 c 128,-1,42
 505 1220 505 1220 505 1181 c 2,43,-1
 505 256 l 2,0,1
1160 256 m 2,44,45
 1190 218 1190 218 1216.5 188 c 128,-1,46
 1243 158 1243 158 1268 135 c 1,47,48
 1292 128 1292 128 1316.5 127 c 128,-1,49
 1341 126 1341 126 1367 126 c 2,50,-1
 1446 126 l 1,51,-1
 1460 -14 l 1,52,53
 1386 -5 1386 -5 1318 -2.5 c 128,-1,54
 1250 0 1250 0 1179 0 c 0,55,56
 1088 0 1088 0 1006 -2.5 c 128,-1,57
 924 -5 924 -5 843 -14 c 1,58,-1
 843 126 l 1,59,-1
 862 126 l 2,60,61
 891 126 891 126 916.5 127 c 128,-1,62
 942 128 942 128 959 135 c 1,63,64
 950 158 950 158 931 187.5 c 128,-1,65
 912 217 912 217 883 256 c 2,66,-1
 574 668 l 1,67,68
 566 676 566 676 558.5 686.5 c 128,-1,69
 551 697 551 697 546 705 c 0,70,71
 539 715 539 715 534 725 c 1,72,73
 548 745 548 745 600 805 c 0,74,75
 622 830 622 830 655 867 c 128,-1,76
 688 904 688 904 734 954.5 c 128,-1,77
 780 1005 780 1005 841.5 1071 c 128,-1,78
 903 1137 903 1137 982 1221 c 0,79,80
 998 1238 998 1238 1006.5 1250 c 128,-1,81
 1015 1262 1015 1262 1019 1271 c 128,-1,82
 1023 1280 1023 1280 1024 1287 c 128,-1,83
 1025 1294 1025 1294 1025 1301 c 1,84,85
 1009 1309 1009 1309 988 1310.5 c 128,-1,86
 967 1312 967 1312 940 1312 c 2,87,-1
 885 1312 l 1,88,-1
 894 1422 l 1,89,90
 970 1430 970 1430 1048.5 1433.5 c 128,-1,91
 1127 1437 1127 1437 1220 1437 c 0,92,93
 1298 1437 1298 1437 1361 1435 c 128,-1,94
 1424 1433 1424 1433 1469 1422 c 1,95,-1
 1462 1312 l 1,96,-1
 1384 1312 l 2,97,98
 1358 1312 1358 1312 1336 1310.5 c 128,-1,99
 1314 1309 1314 1309 1289 1301 c 1,100,101
 1259 1276 1259 1276 1226.5 1247.5 c 128,-1,102
 1194 1219 1194 1219 1158 1179 c 0,103,104
 1044 1055 1044 1055 968.5 973 c 128,-1,105
 893 891 893 891 847 842 c 0,106,107
 793 784 793 784 763 751 c 1,108,-1
 1160 256 l 2,44,45
EndSplineSet
EndChar

StartChar: L
Encoding: 76 76 50
Width: 1331
GlyphClass: 2
Flags: W
LayerCount: 2
Fore
SplineSet
396 0 m 0,0,1
 315 0 315 0 237.5 -2.5 c 128,-1,2
 160 -5 160 -5 79 -14 c 1,3,-1
 79 126 l 1,4,-1
 168 126 l 2,5,6
 198 126 198 126 223.5 127 c 128,-1,7
 249 128 249 128 271 135 c 1,8,9
 287 179 287 179 287 256 c 2,10,-1
 287 1181 l 2,11,12
 287 1220 287 1220 283 1249 c 128,-1,13
 279 1278 279 1278 271 1301 c 1,14,15
 249 1309 249 1309 223.5 1310.5 c 128,-1,16
 198 1312 198 1312 168 1312 c 2,17,-1
 78 1312 l 1,18,-1
 78 1422 l 1,19,20
 147 1430 147 1430 223 1433.5 c 128,-1,21
 299 1437 299 1437 393 1437 c 0,22,23
 490 1437 490 1437 572.5 1435 c 128,-1,24
 655 1433 655 1433 716 1422 c 1,25,-1
 716 1312 l 1,26,-1
 623 1312 l 2,27,28
 594 1312 594 1312 568.5 1310.5 c 128,-1,29
 543 1309 543 1309 520 1301 c 1,30,31
 513 1278 513 1278 509.5 1249 c 128,-1,32
 506 1220 506 1220 506 1181 c 2,33,-1
 506 126 l 1,34,-1
 887 126 l 2,35,36
 938 126 938 126 980 129.5 c 128,-1,37
 1022 133 1022 133 1055.5 151.5 c 128,-1,38
 1089 170 1089 170 1114.5 211 c 128,-1,39
 1140 252 1140 252 1159 327 c 1,40,-1
 1245 315 l 1,41,-1
 1208 0 l 1,42,43
 1120 -6 1120 -6 1036 -10 c 128,-1,44
 952 -14 952 -14 871 -14 c 0,45,46
 722 -14 722 -14 601.5 -7 c 128,-1,47
 481 0 481 0 396 0 c 0,0,1
EndSplineSet
EndChar

StartChar: M
Encoding: 77 77 51
Width: 2204
GlyphClass: 2
Flags: W
LayerCount: 2
Fore
SplineSet
1677 199 m 0,0,1
 1677 232 1677 232 1674 292.5 c 128,-1,2
 1671 353 1671 353 1666.5 429 c 128,-1,3
 1662 505 1662 505 1655.5 591.5 c 128,-1,4
 1649 678 1649 678 1643 763 c 0,5,6
 1628 963 1628 963 1610 1194 c 1,7,8
 1509 910 1509 910 1422 669 c 0,9,10
 1385 566 1385 566 1347.5 462 c 128,-1,11
 1310 358 1310 358 1277 267.5 c 128,-1,12
 1244 177 1244 177 1217.5 106.5 c 128,-1,13
 1191 36 1191 36 1177 0 c 1,14,-1
 989 0 l 1,15,16
 962 72 962 72 930.5 161 c 128,-1,17
 899 250 899 250 865.5 347 c 128,-1,18
 832 444 832 444 797.5 543.5 c 128,-1,19
 763 643 763 643 732 736 c 0,20,21
 658 954 658 954 581 1184 c 1,22,23
 563 917 563 917 550 707 c 0,24,25
 544 617 544 617 538.5 531 c 128,-1,26
 533 445 533 445 528.5 376.5 c 128,-1,27
 524 308 524 308 521.5 265.5 c 128,-1,28
 519 223 519 223 519 221 c 0,29,30
 519 191 519 191 523.5 172.5 c 128,-1,31
 528 154 528 154 539.5 143.5 c 128,-1,32
 551 133 551 133 571 129.5 c 128,-1,33
 591 126 591 126 622 126 c 2,34,-1
 703 126 l 1,35,-1
 691 -14 l 1,36,37
 608 -4 608 -4 536 -2 c 128,-1,38
 464 0 464 0 395 0 c 0,39,40
 311 0 311 0 235.5 -2 c 128,-1,41
 160 -4 160 -4 78 -14 c 1,42,-1
 100 126 l 1,43,-1
 200 126 l 2,44,45
 229 126 229 126 255 127 c 128,-1,46
 281 128 281 128 305 135 c 1,47,48
 318 158 318 158 330.5 187.5 c 128,-1,49
 343 217 343 217 348 256 c 0,50,51
 355 309 355 309 363 387 c 128,-1,52
 371 465 371 465 379 554 c 128,-1,53
 387 643 387 643 394 736 c 128,-1,54
 401 829 401 829 407.5 911.5 c 128,-1,55
 414 994 414 994 418.5 1059 c 128,-1,56
 423 1124 423 1124 425 1158 c 0,57,58
 428 1197 428 1197 428 1223 c 256,59,60
 428 1249 428 1249 425.5 1265.5 c 128,-1,61
 423 1282 423 1282 418 1296 c 1,62,63
 397 1304 397 1304 371 1308 c 128,-1,64
 345 1312 345 1312 310 1312 c 2,65,-1
 206 1312 l 1,66,-1
 206 1422 l 1,67,68
 235 1426 235 1426 264.5 1429 c 128,-1,69
 294 1432 294 1432 327 1434 c 128,-1,70
 360 1436 360 1436 397.5 1436.5 c 128,-1,71
 435 1437 435 1437 479 1437 c 0,72,73
 551 1437 551 1437 605.5 1432.5 c 128,-1,74
 660 1428 660 1428 698 1422 c 1,75,76
 722 1366 722 1366 751.5 1285.5 c 128,-1,77
 781 1205 781 1205 814 1111 c 128,-1,78
 847 1017 847 1017 881 915.5 c 128,-1,79
 915 814 915 814 947.5 716.5 c 128,-1,80
 980 619 980 619 1008.5 530.5 c 128,-1,81
 1037 442 1037 442 1059.5 375 c 128,-1,82
 1082 308 1082 308 1096 267.5 c 128,-1,83
 1110 227 1110 227 1112 224 c 1,84,85
 1193 470 1193 470 1259.5 665 c 128,-1,86
 1326 860 1326 860 1378.5 1008 c 128,-1,87
 1431 1156 1431 1156 1468.5 1258.5 c 128,-1,88
 1506 1361 1506 1361 1530 1422 c 1,89,90
 1550 1425 1550 1425 1579.5 1427.5 c 128,-1,91
 1609 1430 1609 1430 1640 1432.5 c 128,-1,92
 1671 1435 1671 1435 1700.5 1436 c 128,-1,93
 1730 1437 1730 1437 1751 1437 c 0,94,95
 1824 1437 1824 1437 1882.5 1432.5 c 128,-1,96
 1941 1428 1941 1428 1994 1423 c 0,97,98
 1996 1423 1996 1423 1998 1422.5 c 128,-1,99
 2000 1422 2000 1422 2002 1422 c 1,100,-1
 2012 1312 l 1,101,-1
 1926 1312 l 2,102,103
 1894 1312 1894 1312 1864.5 1307.5 c 128,-1,104
 1835 1303 1835 1303 1821 1292 c 1,105,106
 1817 1273 1817 1273 1817 1246 c 0,107,108
 1817 1229 1817 1229 1818.5 1209.5 c 128,-1,109
 1820 1190 1820 1190 1822 1167 c 2,110,-1
 1892 256 l 2,111,112
 1895 217 1895 217 1903 189 c 128,-1,113
 1911 161 1911 161 1918 138 c 1,114,115
 1948 131 1948 131 1980 128.5 c 128,-1,116
 2012 126 2012 126 2051 126 c 2,117,-1
 2104 126 l 1,118,-1
 2126 -14 l 1,119,120
 2042 -4 2042 -4 1963.5 -2 c 128,-1,121
 1885 0 1885 0 1799 0 c 0,122,123
 1730 0 1730 0 1657 -2 c 128,-1,124
 1584 -4 1584 -4 1503 -14 c 1,125,-1
 1491 126 l 1,126,-1
 1572 126 l 2,127,128
 1605 126 1605 126 1625.5 129 c 128,-1,129
 1646 132 1646 132 1657.5 140.5 c 128,-1,130
 1669 149 1669 149 1673 163 c 128,-1,131
 1677 177 1677 177 1677 199 c 0,0,1
EndSplineSet
EndChar

StartChar: N
Encoding: 78 78 52
Width: 1666
GlyphClass: 2
Flags: W
LayerCount: 2
Fore
SplineSet
308 1181 m 2,0,1
 308 1260 308 1260 292 1301 c 1,2,3
 270 1309 270 1309 244 1310.5 c 128,-1,4
 218 1312 218 1312 189 1312 c 2,5,-1
 78 1312 l 1,6,-1
 78 1422 l 1,7,8
 115 1425 115 1425 147.5 1427.5 c 128,-1,9
 180 1430 180 1430 212 1432.5 c 128,-1,10
 244 1435 244 1435 277.5 1436 c 128,-1,11
 311 1437 311 1437 352 1437 c 0,12,13
 406 1437 406 1437 449.5 1435.5 c 128,-1,14
 493 1434 493 1434 531 1424 c 1,15,16
 618 1290 618 1290 710.5 1145.5 c 128,-1,17
 803 1001 803 1001 896.5 852.5 c 128,-1,18
 990 704 990 704 1081 555.5 c 128,-1,19
 1172 407 1172 407 1256 265 c 1,20,21
 1256 318 1256 318 1255 395 c 128,-1,22
 1254 472 1254 472 1252.5 560 c 128,-1,23
 1251 648 1251 648 1249 740.5 c 128,-1,24
 1247 833 1247 833 1245.5 917.5 c 128,-1,25
 1244 1002 1244 1002 1243 1071 c 128,-1,26
 1242 1140 1242 1140 1242 1181 c 0,27,28
 1242 1260 1242 1260 1226 1301 c 1,29,30
 1204 1308 1204 1308 1178 1310 c 128,-1,31
 1152 1312 1152 1312 1123 1312 c 2,32,-1
 1022 1312 l 1,33,-1
 1022 1422 l 1,34,35
 1089 1431 1089 1431 1162 1434 c 128,-1,36
 1235 1437 1235 1437 1323 1437 c 0,37,38
 1404 1437 1404 1437 1479 1435 c 128,-1,39
 1554 1433 1554 1433 1608 1422 c 1,40,-1
 1608 1312 l 1,41,-1
 1528 1312 l 2,42,43
 1499 1312 1499 1312 1473 1310 c 128,-1,44
 1447 1308 1447 1308 1425 1301 c 1,45,46
 1417 1278 1417 1278 1413.5 1249 c 128,-1,47
 1410 1220 1410 1220 1410 1181 c 0,48,49
 1410 1046 1410 1046 1407 892 c 128,-1,50
 1404 738 1404 738 1399.5 580.5 c 128,-1,51
 1395 423 1395 423 1390 270.5 c 128,-1,52
 1385 118 1385 118 1381 -14 c 1,53,-1
 1277 -14 l 2,54,55
 1247 -14 1247 -14 1226 -9 c 128,-1,56
 1205 -4 1205 -4 1186 7 c 1,57,-1
 460 1162 l 1,58,59
 462 1106 462 1106 464 1009.5 c 128,-1,60
 466 913 466 913 468 792 c 128,-1,61
 470 671 470 671 471.5 533.5 c 128,-1,62
 473 396 473 396 474 259 c 0,63,64
 474 217 474 217 477.5 187.5 c 128,-1,65
 481 158 481 158 488 135 c 1,66,67
 510 129 510 129 536 127.5 c 128,-1,68
 562 126 562 126 591 126 c 2,69,-1
 682 126 l 1,70,-1
 682 -14 l 1,71,72
 610 -4 610 -4 546.5 -2 c 128,-1,73
 483 0 483 0 421 0 c 0,74,75
 336 0 336 0 260 -2 c 128,-1,76
 184 -4 184 -4 101 -14 c 1,77,-1
 101 126 l 1,78,-1
 190 126 l 2,79,80
 219 126 219 126 245 127 c 128,-1,81
 271 128 271 128 293 135 c 1,82,83
 309 176 309 176 309 256 c 2,84,-1
 308 1181 l 2,0,1
EndSplineSet
EndChar

StartChar: O
Encoding: 79 79 53
Width: 1567
GlyphClass: 2
Flags: W
LayerCount: 2
Fore
SplineSet
356 711 m 0,0,1
 356 408 356 408 462.5 247.5 c 128,-1,2
 569 87 569 87 784 87 c 0,3,4
 886 87 886 87 965.5 125 c 128,-1,5
 1045 163 1045 163 1099 240.5 c 128,-1,6
 1153 318 1153 318 1181.5 436 c 128,-1,7
 1210 554 1210 554 1210 714 c 0,8,9
 1210 1025 1210 1025 1099.5 1181 c 128,-1,10
 989 1337 989 1337 784 1337 c 0,11,12
 682 1337 682 1337 602.5 1298.5 c 128,-1,13
 523 1260 523 1260 468.5 1182 c 128,-1,14
 414 1104 414 1104 385 986.5 c 128,-1,15
 356 869 356 869 356 711 c 0,0,1
1450 714 m 0,16,17
 1450 538 1450 538 1403.5 398.5 c 128,-1,18
 1357 259 1357 259 1270.5 162.5 c 128,-1,19
 1184 66 1184 66 1060.5 14.5 c 128,-1,20
 937 -37 937 -37 784 -37 c 0,21,22
 629 -37 629 -37 505.5 14.5 c 128,-1,23
 382 66 382 66 295 162.5 c 128,-1,24
 208 259 208 259 161.5 398.5 c 128,-1,25
 115 538 115 538 115 714 c 0,26,27
 115 892 115 892 161.5 1030.5 c 128,-1,28
 208 1169 208 1169 295 1264 c 128,-1,29
 382 1359 382 1359 505.5 1408.5 c 128,-1,30
 629 1458 629 1458 784 1458 c 0,31,32
 937 1458 937 1458 1060 1408.5 c 128,-1,33
 1183 1359 1183 1359 1270 1264 c 128,-1,34
 1357 1169 1357 1169 1403.5 1030.5 c 128,-1,35
 1450 892 1450 892 1450 714 c 0,16,17
EndSplineSet
EndChar

StartChar: P
Encoding: 80 80 54
Width: 1345
GlyphClass: 2
Flags: W
LayerCount: 2
Fore
SplineSet
524 1312 m 1,0,-1
 524 709 l 1,1,2
 555 708 555 708 591.5 707.5 c 128,-1,3
 628 707 628 707 673 707 c 0,4,5
 779 707 779 707 849.5 729 c 128,-1,6
 920 751 920 751 962.5 790.5 c 128,-1,7
 1005 830 1005 830 1023 886 c 128,-1,8
 1041 942 1041 942 1041 1011 c 0,9,10
 1041 1095 1041 1095 1020.5 1153 c 128,-1,11
 1000 1211 1000 1211 957 1246 c 128,-1,12
 914 1281 914 1281 849 1296.5 c 128,-1,13
 784 1312 784 1312 695 1312 c 2,14,-1
 524 1312 l 1,0,-1
306 1186 m 2,15,16
 306 1266 306 1266 290 1305 c 1,17,18
 274 1309 274 1309 245.5 1310.5 c 128,-1,19
 217 1312 217 1312 188 1312 c 2,20,-1
 78 1312 l 1,21,-1
 78 1422 l 1,22,23
 190 1437 190 1437 331.5 1442.5 c 128,-1,24
 473 1448 473 1448 647 1448 c 0,25,26
 798 1448 798 1448 913.5 1428 c 128,-1,27
 1029 1408 1029 1408 1107 1358 c 128,-1,28
 1185 1308 1185 1308 1225 1224 c 128,-1,29
 1265 1140 1265 1140 1265 1012 c 0,30,31
 1265 912 1265 912 1232 832.5 c 128,-1,32
 1199 753 1199 753 1129.5 697.5 c 128,-1,33
 1060 642 1060 642 950.5 612.5 c 128,-1,34
 841 583 841 583 688 583 c 0,35,36
 653 583 653 583 612.5 584 c 128,-1,37
 572 585 572 585 524 588 c 1,38,-1
 524 259 l 2,39,40
 524 217 524 217 528 187.5 c 128,-1,41
 532 158 532 158 539 135 c 1,42,43
 561 129 561 129 587 127.5 c 128,-1,44
 613 126 613 126 642 126 c 2,45,-1
 732 126 l 1,46,-1
 732 -14 l 1,47,48
 654 -4 654 -4 585.5 -2 c 128,-1,49
 517 0 517 0 450 0 c 0,50,51
 358 0 358 0 273.5 -2 c 128,-1,52
 189 -4 189 -4 99 -14 c 1,53,-1
 99 126 l 1,54,-1
 188 126 l 2,55,56
 217 126 217 126 243 127 c 128,-1,57
 269 128 269 128 291 135 c 1,58,59
 307 176 307 176 307 256 c 2,60,-1
 306 1186 l 2,15,16
EndSplineSet
EndChar

StartChar: Q
Encoding: 81 81 55
Width: 1616
GlyphClass: 2
Flags: W
LayerCount: 2
Fore
SplineSet
1440 736 m 0,0,1
 1440 661 1440 661 1429 584 c 128,-1,2
 1418 507 1418 507 1394 433 c 128,-1,3
 1370 359 1370 359 1332 290.5 c 128,-1,4
 1294 222 1294 222 1241.5 165 c 128,-1,5
 1189 108 1189 108 1120.5 65.5 c 128,-1,6
 1052 23 1052 23 966 0 c 1,7,8
 991 -21 991 -21 1024.5 -34 c 128,-1,9
 1058 -47 1058 -47 1095 -54 c 128,-1,10
 1132 -61 1132 -61 1169 -63.5 c 128,-1,11
 1206 -66 1206 -66 1238 -66 c 0,12,13
 1255 -66 1255 -66 1275 -63 c 128,-1,14
 1295 -60 1295 -60 1322 -53.5 c 128,-1,15
 1349 -47 1349 -47 1385 -37 c 128,-1,16
 1421 -27 1421 -27 1472 -13 c 1,17,-1
 1499 -118 l 1,18,19
 1408 -158 1408 -158 1316.5 -181.5 c 128,-1,20
 1225 -205 1225 -205 1128 -205 c 0,21,22
 1079 -205 1079 -205 1027 -198 c 128,-1,23
 975 -191 975 -191 920.5 -172 c 128,-1,24
 866 -153 866 -153 809.5 -119 c 128,-1,25
 753 -85 753 -85 696 -31 c 1,26,27
 561 -16 561 -16 453 38 c 128,-1,28
 345 92 345 92 270 186.5 c 128,-1,29
 195 281 195 281 155 415.5 c 128,-1,30
 115 550 115 550 115 726 c 0,31,32
 115 898 115 898 161.5 1034 c 128,-1,33
 208 1170 208 1170 294 1264.5 c 128,-1,34
 380 1359 380 1359 503 1408.5 c 128,-1,35
 626 1458 626 1458 779 1458 c 0,36,37
 921 1458 921 1458 1041.5 1408.5 c 128,-1,38
 1162 1359 1162 1359 1250 1266 c 128,-1,39
 1338 1173 1338 1173 1388.5 1039 c 128,-1,40
 1439 905 1439 905 1440 736 c 0,0,1
353 711 m 0,41,42
 353 397 353 397 462 240.5 c 128,-1,43
 571 84 571 84 779 84 c 0,44,45
 880 84 880 84 959.5 121 c 128,-1,46
 1039 158 1039 158 1093.5 235.5 c 128,-1,47
 1148 313 1148 313 1176.5 431.5 c 128,-1,48
 1205 550 1205 550 1205 712 c 0,49,50
 1205 868 1205 868 1176.5 985 c 128,-1,51
 1148 1102 1148 1102 1093.5 1180.5 c 128,-1,52
 1039 1259 1039 1259 959.5 1298 c 128,-1,53
 880 1337 880 1337 779 1337 c 256,54,55
 678 1337 678 1337 598.5 1298 c 128,-1,56
 519 1259 519 1259 464.5 1181 c 128,-1,57
 410 1103 410 1103 381.5 985.5 c 128,-1,58
 353 868 353 868 353 711 c 0,41,42
EndSplineSet
EndChar

StartChar: R
Encoding: 82 82 56
Width: 1443
GlyphClass: 2
Flags: W
LayerCount: 2
Fore
SplineSet
524 1312 m 1,0,-1
 524 729 l 1,1,2
 562 728 562 728 606 727.5 c 128,-1,3
 650 727 650 727 704 727 c 0,4,5
 886 727 886 727 971 803.5 c 128,-1,6
 1056 880 1056 880 1056 1023 c 0,7,8
 1056 1105 1056 1105 1035 1160.5 c 128,-1,9
 1014 1216 1014 1216 968.5 1249.5 c 128,-1,10
 923 1283 923 1283 851.5 1297.5 c 128,-1,11
 780 1312 780 1312 679 1312 c 2,12,-1
 524 1312 l 1,0,-1
306 1195 m 2,13,14
 306 1269 306 1269 290 1304 c 1,15,16
 270 1310 270 1310 246.5 1311 c 128,-1,17
 223 1312 223 1312 198 1312 c 2,18,-1
 78 1312 l 1,19,-1
 78 1422 l 1,20,21
 111 1427 111 1427 156 1431 c 128,-1,22
 201 1435 201 1435 252 1437.5 c 128,-1,23
 303 1440 303 1440 358.5 1442 c 128,-1,24
 414 1444 414 1444 467.5 1445 c 128,-1,25
 521 1446 521 1446 571 1446.5 c 128,-1,26
 621 1447 621 1447 661 1447 c 0,27,28
 812 1447 812 1447 928 1426 c 128,-1,29
 1044 1405 1044 1405 1122.5 1356.5 c 128,-1,30
 1201 1308 1201 1308 1241 1228.5 c 128,-1,31
 1281 1149 1281 1149 1281 1032 c 0,32,33
 1281 952 1281 952 1258.5 889.5 c 128,-1,34
 1236 827 1236 827 1197.5 779 c 128,-1,35
 1159 731 1159 731 1106.5 698 c 128,-1,36
 1054 665 1054 665 994 644 c 1,37,38
 1007 579 1007 579 1033 515.5 c 128,-1,39
 1059 452 1059 452 1093 394.5 c 128,-1,40
 1127 337 1127 337 1166.5 287.5 c 128,-1,41
 1206 238 1206 238 1245.5 202.5 c 128,-1,42
 1285 167 1285 167 1321.5 146.5 c 128,-1,43
 1358 126 1358 126 1387 126 c 2,44,-1
 1443 126 l 1,45,-1
 1443 -14 l 1,46,-1
 1292 -14 l 2,47,48
 1201 -14 1201 -14 1132 18.5 c 128,-1,49
 1063 51 1063 51 1011.5 103.5 c 128,-1,50
 960 156 960 156 924.5 223.5 c 128,-1,51
 889 291 889 291 864.5 360 c 128,-1,52
 840 429 840 429 825 494 c 128,-1,53
 810 559 810 559 800 608 c 1,54,55
 731 608 731 608 662 609 c 128,-1,56
 593 610 593 610 524 613 c 1,57,-1
 524 259 l 2,58,59
 524 217 524 217 528 187.5 c 128,-1,60
 532 158 532 158 539 135 c 1,61,62
 561 129 561 129 587 127.5 c 128,-1,63
 613 126 613 126 642 126 c 2,64,-1
 732 126 l 1,65,-1
 732 -14 l 1,66,67
 654 -4 654 -4 585.5 -2 c 128,-1,68
 517 0 517 0 450 0 c 0,69,70
 358 0 358 0 273.5 -2 c 128,-1,71
 189 -4 189 -4 99 -14 c 1,72,-1
 99 126 l 1,73,-1
 188 126 l 2,74,75
 217 126 217 126 243 127 c 128,-1,76
 269 128 269 128 291 135 c 1,77,78
 307 176 307 176 307 256 c 2,79,-1
 306 1195 l 2,13,14
EndSplineSet
EndChar

StartChar: S
Encoding: 83 83 57
Width: 1225
GlyphClass: 2
Flags: W
LayerCount: 2
Fore
SplineSet
342 1108 m 0,0,1
 342 1062 342 1062 360.5 1025 c 128,-1,2
 379 988 379 988 413.5 957.5 c 128,-1,3
 448 927 448 927 497 901.5 c 128,-1,4
 546 876 546 876 607 852 c 0,5,6
 722 806 722 806 817 761 c 128,-1,7
 912 716 912 716 979.5 662.5 c 128,-1,8
 1047 609 1047 609 1084 542.5 c 128,-1,9
 1121 476 1121 476 1121 387 c 0,10,11
 1121 282 1121 282 1081 203 c 128,-1,12
 1041 124 1041 124 972 70.5 c 128,-1,13
 903 17 903 17 810.5 -10 c 128,-1,14
 718 -37 718 -37 614 -37 c 0,15,16
 540 -37 540 -37 469 -28 c 128,-1,17
 398 -19 398 -19 332 1 c 128,-1,18
 266 21 266 21 207 53 c 128,-1,19
 148 85 148 85 98 132 c 1,20,-1
 145 400 l 1,21,-1
 295 394 l 1,22,23
 295 313 295 313 306 257 c 128,-1,24
 317 201 317 201 337 163 c 1,25,26
 362 140 362 140 394.5 124.5 c 128,-1,27
 427 109 427 109 463.5 100 c 128,-1,28
 500 91 500 91 538.5 87.5 c 128,-1,29
 577 84 577 84 614 84 c 0,30,31
 674 84 674 84 726 102.5 c 128,-1,32
 778 121 778 121 816.5 153 c 128,-1,33
 855 185 855 185 877 229.5 c 128,-1,34
 899 274 899 274 899 327 c 0,35,36
 899 390 899 390 870 438.5 c 128,-1,37
 841 487 841 487 788.5 527 c 128,-1,38
 736 567 736 567 662 602 c 128,-1,39
 588 637 588 637 498 673 c 0,40,41
 414 706 414 706 345 744.5 c 128,-1,42
 276 783 276 783 227.5 831 c 128,-1,43
 179 879 179 879 152 939 c 128,-1,44
 125 999 125 999 125 1076 c 0,45,46
 125 1158 125 1158 160 1228 c 128,-1,47
 195 1298 195 1298 265 1349 c 128,-1,48
 335 1400 335 1400 438 1429 c 128,-1,49
 541 1458 541 1458 678 1458 c 0,50,51
 740 1458 740 1458 800.5 1452 c 128,-1,52
 861 1446 861 1446 912.5 1434 c 128,-1,53
 964 1422 964 1422 1002 1403.5 c 128,-1,54
 1040 1385 1040 1385 1057 1360 c 1,55,56
 1056 1351 1056 1351 1055 1339 c 128,-1,57
 1054 1327 1054 1327 1051 1298.5 c 128,-1,58
 1048 1270 1048 1270 1042 1218.5 c 128,-1,59
 1036 1167 1036 1167 1025 1079 c 1,60,-1
 894 1088 l 1,61,62
 894 1161 894 1161 881.5 1209 c 128,-1,63
 869 1257 869 1257 839 1285.5 c 128,-1,64
 809 1314 809 1314 758 1325.5 c 128,-1,65
 707 1337 707 1337 629 1337 c 0,66,67
 563 1337 563 1337 510 1320.5 c 128,-1,68
 457 1304 457 1304 419.5 1274 c 128,-1,69
 382 1244 382 1244 362 1201.5 c 128,-1,70
 342 1159 342 1159 342 1108 c 0,0,1
EndSplineSet
EndChar

StartChar: T
Encoding: 84 84 58
Width: 1389
GlyphClass: 2
Flags: W
LayerCount: 2
Fore
SplineSet
1213 1068 m 1,0,1
 1213 1153 1213 1153 1204 1215.5 c 128,-1,2
 1195 1278 1195 1278 1179 1312 c 1,3,-1
 811 1312 l 1,4,-1
 811 259 l 2,5,6
 811 217 811 217 814.5 187.5 c 128,-1,7
 818 158 818 158 826 135 c 1,8,9
 848 129 848 129 873.5 127.5 c 128,-1,10
 899 126 899 126 929 126 c 2,11,-1
 1019 126 l 1,12,-1
 1019 -14 l 1,13,14
 941 -4 941 -4 872 -2 c 128,-1,15
 803 0 803 0 737 0 c 0,16,17
 645 0 645 0 560 -2 c 128,-1,18
 475 -4 475 -4 385 -14 c 1,19,-1
 385 126 l 1,20,-1
 474 126 l 2,21,22
 504 126 504 126 530 127 c 128,-1,23
 556 128 556 128 577 135 c 1,24,25
 592 174 592 174 592 243 c 2,26,-1
 592 1312 l 1,27,-1
 224 1312 l 1,28,29
 208 1278 208 1278 199 1215.5 c 128,-1,30
 190 1153 190 1153 190 1068 c 1,31,-1
 52 1068 l 1,32,33
 52 1102 52 1102 50.5 1146.5 c 128,-1,34
 49 1191 49 1191 46.5 1238.5 c 128,-1,35
 44 1286 44 1286 42.5 1333.5 c 128,-1,36
 41 1381 41 1381 41 1422 c 1,37,38
 63 1433 63 1433 125.5 1435 c 128,-1,39
 188 1437 188 1437 277 1437 c 0,40,41
 288 1437 288 1437 320.5 1436.5 c 128,-1,42
 353 1436 353 1436 396.5 1435 c 128,-1,43
 440 1434 440 1434 490 1433.5 c 128,-1,44
 540 1433 540 1433 584.5 1432 c 128,-1,45
 629 1431 629 1431 663.5 1430.5 c 128,-1,46
 698 1430 698 1430 712 1430 c 0,47,48
 738 1430 738 1430 777 1430.5 c 128,-1,49
 816 1431 816 1431 859 1432 c 128,-1,50
 902 1433 902 1433 945.5 1433.5 c 128,-1,51
 989 1434 989 1434 1024.5 1435 c 128,-1,52
 1060 1436 1060 1436 1083 1436.5 c 128,-1,53
 1106 1437 1106 1437 1109 1437 c 0,54,55
 1200 1437 1200 1437 1263 1434.5 c 128,-1,56
 1326 1432 1326 1432 1348 1422 c 1,57,58
 1348 1381 1348 1381 1346.5 1333.5 c 128,-1,59
 1345 1286 1345 1286 1343 1238.5 c 128,-1,60
 1341 1191 1341 1191 1339.5 1146.5 c 128,-1,61
 1338 1102 1338 1102 1338 1068 c 1,62,-1
 1213 1068 l 1,0,1
EndSplineSet
EndChar

StartChar: U
Encoding: 85 85 59
Width: 1605
GlyphClass: 2
Flags: W
LayerCount: 2
Fore
SplineSet
1365 516 m 2,0,1
 1365 379 1365 379 1322.5 276 c 128,-1,2
 1280 173 1280 173 1204.5 103 c 128,-1,3
 1129 33 1129 33 1024 -2 c 128,-1,4
 919 -37 919 -37 794 -37 c 0,5,6
 644 -37 644 -37 538.5 7 c 128,-1,7
 433 51 433 51 367 132.5 c 128,-1,8
 301 214 301 214 270.5 329 c 128,-1,9
 240 444 240 444 240 586 c 2,10,-1
 240 1181 l 2,11,12
 240 1260 240 1260 224 1301 c 1,13,14
 202 1309 202 1309 176.5 1310.5 c 128,-1,15
 151 1312 151 1312 121 1312 c 2,16,-1
 31 1312 l 1,17,-1
 31 1423 l 1,18,19
 100 1431 100 1431 176 1434 c 128,-1,20
 252 1437 252 1437 346 1437 c 0,21,22
 443 1437 443 1437 525.5 1435 c 128,-1,23
 608 1433 608 1433 669 1422 c 1,24,-1
 669 1312 l 1,25,-1
 576 1312 l 2,26,27
 547 1312 547 1312 521.5 1310.5 c 128,-1,28
 496 1309 496 1309 473 1301 c 1,29,30
 459 1257 459 1257 459 1181 c 2,31,-1
 459 501 l 2,32,33
 459 396 459 396 485 318 c 128,-1,34
 511 240 511 240 559 188.5 c 128,-1,35
 607 137 607 137 674.5 111 c 128,-1,36
 742 85 742 85 824 85 c 0,37,38
 1014 85 1014 85 1104.5 205 c 128,-1,39
 1195 325 1195 325 1195 577 c 2,40,-1
 1195 1181 l 2,41,42
 1195 1260 1195 1260 1179 1301 c 1,43,44
 1157 1309 1157 1309 1131 1310.5 c 128,-1,45
 1105 1312 1105 1312 1076 1312 c 2,46,-1
 986 1312 l 1,47,-1
 986 1423 l 1,48,49
 1052 1431 1052 1431 1122.5 1434 c 128,-1,50
 1193 1437 1193 1437 1280 1437 c 0,51,52
 1368 1437 1368 1437 1443 1435 c 128,-1,53
 1518 1433 1518 1433 1575 1422 c 1,54,-1
 1575 1312 l 1,55,-1
 1483 1312 l 2,56,57
 1453 1312 1453 1312 1427 1310.5 c 128,-1,58
 1401 1309 1401 1309 1380 1301 c 1,59,60
 1372 1278 1372 1278 1368.5 1249 c 128,-1,61
 1365 1220 1365 1220 1365 1181 c 2,62,-1
 1365 516 l 2,0,1
EndSplineSet
EndChar

StartChar: V
Encoding: 86 86 60
Width: 1633
GlyphClass: 2
Flags: W
LayerCount: 2
Fore
SplineSet
1238 1181 m 2,0,1
 1252 1220 1252 1220 1257 1249 c 128,-1,2
 1262 1278 1262 1278 1263 1301 c 1,3,4
 1243 1309 1243 1309 1218 1310.5 c 128,-1,5
 1193 1312 1193 1312 1163 1312 c 2,6,-1
 1093 1312 l 1,7,-1
 1098 1422 l 1,8,9
 1159 1430 1159 1430 1224.5 1433.5 c 128,-1,10
 1290 1437 1290 1437 1368 1437 c 0,11,12
 1449 1437 1449 1437 1516.5 1435 c 128,-1,13
 1584 1433 1584 1433 1633 1422 c 1,14,-1
 1609 1312 l 1,15,-1
 1557 1312 l 2,16,17
 1528 1312 1528 1312 1502 1310.5 c 128,-1,18
 1476 1309 1476 1309 1451 1301 c 1,19,20
 1437 1278 1437 1278 1423.5 1249 c 128,-1,21
 1410 1220 1410 1220 1396 1181 c 0,22,23
 1344 1039 1344 1039 1288 888 c 128,-1,24
 1232 737 1232 737 1174.5 585 c 128,-1,25
 1117 433 1117 433 1059 284.5 c 128,-1,26
 1001 136 1001 136 945 0 c 1,27,-1
 841 0 l 2,28,29
 796 0 796 0 767 8 c 128,-1,30
 738 16 738 16 726 46 c 2,31,-1
 272 1181 l 2,32,33
 256 1220 256 1220 239 1249 c 128,-1,34
 222 1278 222 1278 205 1301 c 1,35,36
 179 1309 179 1309 153 1310.5 c 128,-1,37
 127 1312 127 1312 98 1312 c 2,38,-1
 23 1312 l 1,39,-1
 0 1422 l 1,40,41
 61 1430 61 1430 130.5 1433.5 c 128,-1,42
 200 1437 200 1437 288 1437 c 0,43,44
 388 1437 388 1437 474 1435 c 128,-1,45
 560 1433 560 1433 627 1422 c 1,46,-1
 640 1312 l 1,47,-1
 568 1312 l 2,48,49
 539 1312 539 1312 514 1310.5 c 128,-1,50
 489 1309 489 1309 469 1301 c 1,51,52
 469 1278 469 1278 480.5 1249 c 128,-1,53
 492 1220 492 1220 507 1181 c 2,54,-1
 879 215 l 1,55,-1
 889 215 l 1,56,-1
 1238 1181 l 2,0,1
EndSplineSet
EndChar

StartChar: W
Encoding: 87 87 61
Width: 2403
GlyphClass: 2
Flags: W
LayerCount: 2
Fore
SplineSet
2013 1181 m 0,0,1
 2021 1211 2021 1211 2024 1235 c 128,-1,2
 2027 1259 2027 1259 2027 1279 c 0,3,4
 2027 1285 2027 1285 2027 1290.5 c 128,-1,5
 2027 1296 2027 1296 2026 1301 c 1,6,7
 2005 1309 2005 1309 1980 1310.5 c 128,-1,8
 1955 1312 1955 1312 1925 1312 c 2,9,-1
 1855 1312 l 1,10,-1
 1849 1422 l 1,11,12
 1909 1430 1909 1430 1974.5 1433.5 c 128,-1,13
 2040 1437 2040 1437 2118 1437 c 0,14,15
 2199 1437 2199 1437 2266.5 1435 c 128,-1,16
 2334 1433 2334 1433 2385 1422 c 1,17,-1
 2371 1312 l 1,18,-1
 2319 1312 l 2,19,20
 2290 1312 2290 1312 2264 1310.5 c 128,-1,21
 2238 1309 2238 1309 2214 1301 c 1,22,23
 2203 1278 2203 1278 2191.5 1249 c 128,-1,24
 2180 1220 2180 1220 2169 1181 c 0,25,26
 2130 1043 2130 1043 2087 895.5 c 128,-1,27
 2044 748 2044 748 1996 597 c 128,-1,28
 1948 446 1948 446 1895 295 c 128,-1,29
 1842 144 1842 144 1784 0 c 1,30,-1
 1617 0 l 2,31,32
 1600 0 1600 0 1589 3.5 c 128,-1,33
 1578 7 1578 7 1570.5 17 c 128,-1,34
 1563 27 1563 27 1557 43 c 128,-1,35
 1551 59 1551 59 1543 85 c 0,36,37
 1542 88 1542 88 1541.5 91.5 c 128,-1,38
 1541 95 1541 95 1539 99 c 2,39,-1
 1244 1006 l 1,40,41
 1174 750 1174 750 1091.5 500 c 128,-1,42
 1009 250 1009 250 906 0 c 1,43,-1
 746 0 l 2,44,45
 720 0 720 0 701.5 9.5 c 128,-1,46
 683 19 683 19 674 46 c 2,47,-1
 290 1181 l 2,48,49
 276 1221 276 1221 258 1249.5 c 128,-1,50
 240 1278 240 1278 223 1301 c 1,51,52
 197 1309 197 1309 171 1310.5 c 128,-1,53
 145 1312 145 1312 116 1312 c 2,54,-1
 41 1312 l 1,55,-1
 18 1422 l 1,56,57
 79 1430 79 1430 148.5 1433.5 c 128,-1,58
 218 1437 218 1437 306 1437 c 0,59,60
 406 1437 406 1437 492 1435 c 128,-1,61
 578 1433 578 1433 645 1422 c 1,62,-1
 658 1312 l 1,63,-1
 586 1312 l 2,64,65
 557 1312 557 1312 532 1310.5 c 128,-1,66
 507 1309 507 1309 487 1301 c 1,67,68
 490 1278 490 1278 500 1249 c 128,-1,69
 510 1220 510 1220 525 1181 c 1,70,-1
 838 216 l 1,71,-1
 848 216 l 1,72,73
 862 255 862 255 876.5 297.5 c 128,-1,74
 891 340 891 340 907.5 391.5 c 128,-1,75
 924 443 924 443 943.5 508 c 128,-1,76
 963 573 963 573 987.5 658.5 c 128,-1,77
 1012 744 1012 744 1042.5 853.5 c 128,-1,78
 1073 963 1073 963 1111 1103 c 0,79,80
 1123 1146 1123 1146 1129 1185.5 c 128,-1,81
 1135 1225 1135 1225 1139 1261 c 128,-1,82
 1143 1297 1143 1297 1146 1330 c 128,-1,83
 1149 1363 1149 1363 1154 1393 c 1,84,-1
 1275 1393 l 2,85,86
 1294 1393 1294 1393 1307 1389.5 c 128,-1,87
 1320 1386 1320 1386 1328.5 1379.5 c 128,-1,88
 1337 1373 1337 1373 1343 1362.5 c 128,-1,89
 1349 1352 1349 1352 1354 1339 c 2,90,-1
 1719 209 l 1,91,-1
 1729 209 l 1,92,93
 1771 348 1771 348 1805 460 c 128,-1,94
 1839 572 1839 572 1866 663.5 c 128,-1,95
 1893 755 1893 755 1914.5 828.5 c 128,-1,96
 1936 902 1936 902 1953.5 963.5 c 128,-1,97
 1971 1025 1971 1025 1985.5 1078 c 128,-1,98
 2000 1131 2000 1131 2013 1181 c 0,0,1
EndSplineSet
EndChar

StartChar: X
Encoding: 88 88 62
Width: 1615
GlyphClass: 2
Flags: W
LayerCount: 2
Fore
SplineSet
767 589 m 1,0,-1
 528 259 l 2,1,2
 499 219 499 219 484.5 188.5 c 128,-1,3
 470 158 470 158 461 135 c 1,4,5
 479 129 479 129 504 127.5 c 128,-1,6
 529 126 529 126 558 126 c 2,7,-1
 609 126 l 1,8,-1
 609 -14 l 1,9,10
 528 -4 528 -4 449.5 -2 c 128,-1,11
 371 0 371 0 295 0 c 0,12,13
 258 0 258 0 224 0 c 128,-1,14
 190 0 190 0 156 -1.5 c 128,-1,15
 122 -3 122 -3 87.5 -6 c 128,-1,16
 53 -9 53 -9 16 -14 c 1,17,-1
 16 126 l 1,18,-1
 104 126 l 2,19,20
 131 126 131 126 155 127 c 128,-1,21
 179 128 179 128 203 135 c 1,22,23
 227 158 227 158 250.5 189.5 c 128,-1,24
 274 221 274 221 308 256 c 1,25,-1
 684 704 l 1,26,-1
 348 1181 l 2,27,28
 321 1219 321 1219 302.5 1248.5 c 128,-1,29
 284 1278 284 1278 261 1301 c 1,30,31
 235 1309 235 1309 208 1310.5 c 128,-1,32
 181 1312 181 1312 152 1312 c 2,33,-1
 78 1312 l 1,34,-1
 63 1422 l 1,35,36
 117 1430 117 1430 179.5 1433.5 c 128,-1,37
 242 1437 242 1437 318 1437 c 0,38,39
 424 1437 424 1437 514.5 1435 c 128,-1,40
 605 1433 605 1433 680 1422 c 1,41,-1
 694 1312 l 1,42,-1
 633 1312 l 2,43,44
 603 1312 603 1312 578.5 1310.5 c 128,-1,45
 554 1309 554 1309 537 1301 c 1,46,47
 540 1289 540 1289 544 1280 c 128,-1,48
 548 1271 548 1271 554.5 1260.5 c 128,-1,49
 561 1250 561 1250 570 1237.5 c 128,-1,50
 579 1225 579 1225 592 1206 c 2,51,-1
 827 859 l 1,52,-1
 1079 1181 l 2,53,54
 1109 1219 1109 1219 1127 1248.5 c 128,-1,55
 1145 1278 1145 1278 1155 1301 c 1,56,57
 1138 1309 1138 1309 1114 1310.5 c 128,-1,58
 1090 1312 1090 1312 1060 1312 c 2,59,-1
 1020 1312 l 1,60,-1
 1034 1422 l 1,61,62
 1106 1430 1106 1430 1178.5 1433.5 c 128,-1,63
 1251 1437 1251 1437 1339 1437 c 0,64,65
 1411 1437 1411 1437 1469 1435 c 128,-1,66
 1527 1433 1527 1433 1568 1422 c 1,67,-1
 1556 1312 l 1,68,-1
 1474 1312 l 2,69,70
 1445 1312 1445 1312 1418 1310.5 c 128,-1,71
 1391 1309 1391 1309 1363 1301 c 1,72,73
 1339 1278 1339 1278 1313.5 1248.5 c 128,-1,74
 1288 1219 1288 1219 1257 1181 c 0,75,76
 1188 1095 1188 1095 1133.5 1028.5 c 128,-1,77
 1079 962 1079 962 1036.5 911 c 128,-1,78
 994 860 994 860 960.5 821.5 c 128,-1,79
 927 783 927 783 900 753 c 1,80,-1
 1267 256 l 2,81,82
 1296 217 1296 217 1318 187.5 c 128,-1,83
 1340 158 1340 158 1366 135 c 1,84,85
 1390 128 1390 128 1414 127 c 128,-1,86
 1438 126 1438 126 1465 126 c 2,87,-1
 1513 126 l 1,88,-1
 1513 -14 l 1,89,90
 1476 -9 1476 -9 1442.5 -6.5 c 128,-1,91
 1409 -4 1409 -4 1376 -2.5 c 128,-1,92
 1343 -1 1343 -1 1309.5 -0.5 c 128,-1,93
 1276 0 1276 0 1239 0 c 0,94,95
 1161 0 1161 0 1082 -2 c 128,-1,96
 1003 -4 1003 -4 921 -14 c 1,97,-1
 921 126 l 1,98,-1
 971 126 l 2,99,100
 1000 126 1000 126 1025 127.5 c 128,-1,101
 1050 129 1050 129 1068 135 c 1,102,103
 1058 158 1058 158 1042 187.5 c 128,-1,104
 1026 217 1026 217 997 259 c 2,105,-1
 767 589 l 1,0,-1
EndSplineSet
EndChar

StartChar: Y
Encoding: 89 89 63
Width: 1588
GlyphClass: 2
Flags: W
LayerCount: 2
Fore
SplineSet
1122 1212 m 0,0,1
 1133 1239 1133 1239 1141 1260.5 c 128,-1,2
 1149 1282 1149 1282 1153 1301 c 1,3,4
 1134 1309 1134 1309 1109.5 1310.5 c 128,-1,5
 1085 1312 1085 1312 1055 1312 c 2,6,-1
 985 1312 l 1,7,-1
 1009 1422 l 1,8,9
 1076 1430 1076 1430 1146 1433.5 c 128,-1,10
 1216 1437 1216 1437 1301 1437 c 0,11,12
 1392 1437 1392 1437 1467 1435 c 128,-1,13
 1542 1433 1542 1433 1594 1422 c 1,14,-1
 1554 1312 l 1,15,-1
 1469 1312 l 2,16,17
 1440 1312 1440 1312 1413.5 1310.5 c 128,-1,18
 1387 1309 1387 1309 1361 1301 c 1,19,20
 1350 1285 1350 1285 1338 1269 c 128,-1,21
 1326 1253 1326 1253 1316 1234 c 0,22,23
 1314 1229 1314 1229 1294.5 1195.5 c 128,-1,24
 1275 1162 1275 1162 1244.5 1111 c 128,-1,25
 1214 1060 1214 1060 1176 996 c 128,-1,26
 1138 932 1138 932 1099 866 c 0,27,28
 1007 711 1007 711 891 517 c 1,29,-1
 891 259 l 2,30,31
 891 217 891 217 895 187.5 c 128,-1,32
 899 158 899 158 906 135 c 1,33,34
 928 129 928 129 953.5 127.5 c 128,-1,35
 979 126 979 126 1008 126 c 2,36,-1
 1099 126 l 1,37,-1
 1099 -14 l 1,38,39
 1021 -4 1021 -4 952.5 -2 c 128,-1,40
 884 0 884 0 817 0 c 0,41,42
 725 0 725 0 640.5 -2 c 128,-1,43
 556 -4 556 -4 466 -14 c 1,44,-1
 466 126 l 1,45,-1
 555 126 l 2,46,47
 584 126 584 126 609.5 127 c 128,-1,48
 635 128 635 128 658 135 c 1,49,50
 666 158 666 158 670 188 c 128,-1,51
 674 218 674 218 677 256 c 1,52,-1
 677 490 l 1,53,-1
 268 1181 l 2,54,55
 245 1219 245 1219 231 1248.5 c 128,-1,56
 217 1278 217 1278 200 1301 c 1,57,58
 175 1309 175 1309 148.5 1310.5 c 128,-1,59
 122 1312 122 1312 93 1312 c 2,60,-1
 19 1312 l 1,61,-1
 -10 1422 l 1,62,63
 53 1430 53 1430 123 1433.5 c 128,-1,64
 193 1437 193 1437 278 1437 c 0,65,66
 378 1437 378 1437 463.5 1435 c 128,-1,67
 549 1433 549 1433 618 1422 c 1,68,-1
 635 1312 l 1,69,-1
 564 1312 l 2,70,71
 534 1312 534 1312 509 1310.5 c 128,-1,72
 484 1309 484 1309 466 1301 c 1,73,74
 467 1289 467 1289 469.5 1279.5 c 128,-1,75
 472 1270 472 1270 476.5 1259.5 c 128,-1,76
 481 1249 481 1249 488 1236.5 c 128,-1,77
 495 1224 495 1224 506 1206 c 2,78,-1
 827 659 l 1,79,80
 900 790 900 790 961 903 c 0,81,82
 987 951 987 951 1013 999 c 128,-1,83
 1039 1047 1039 1047 1061 1089 c 128,-1,84
 1083 1131 1083 1131 1099 1163.5 c 128,-1,85
 1115 1196 1115 1196 1122 1212 c 0,0,1
EndSplineSet
EndChar

StartChar: Z
Encoding: 90 90 64
Width: 1230
GlyphClass: 2
Flags: W
LayerCount: 2
Fore
SplineSet
113 1405 m 1,0,1
 167 1420 167 1420 294.5 1428.5 c 128,-1,2
 422 1437 422 1437 631 1437 c 2,3,-1
 1098 1437 l 1,4,5
 1117 1427 1117 1427 1128.5 1406 c 128,-1,6
 1140 1385 1140 1385 1140 1362 c 2,7,-1
 1140 1306 l 1,8,-1
 306 126 l 1,9,-1
 816 126 l 2,10,11
 849 126 849 126 879 135 c 128,-1,12
 909 144 909 144 932 172 c 128,-1,13
 955 200 955 200 968.5 252.5 c 128,-1,14
 982 305 982 305 982 393 c 1,15,-1
 1144 393 l 1,16,-1
 1144 86 l 2,17,18
 1144 72 1144 72 1141.5 57.5 c 128,-1,19
 1139 43 1139 43 1136 29 c 0,20,21
 1136 27 1136 27 1135.5 26.5 c 128,-1,22
 1135 26 1135 26 1135 24 c 1,23,24
 1091 6 1091 6 1031 3 c 128,-1,25
 971 0 971 0 888 0 c 2,26,-1
 106 0 l 1,27,28
 86 15 86 15 80 33 c 128,-1,29
 74 51 74 51 74 81 c 2,30,-1
 74 133 l 1,31,-1
 888 1312 l 1,32,-1
 612 1312 l 2,33,34
 586 1312 586 1312 549.5 1310.5 c 128,-1,35
 513 1309 513 1309 474 1306 c 128,-1,36
 435 1303 435 1303 396.5 1297.5 c 128,-1,37
 358 1292 358 1292 327.5 1283.5 c 128,-1,38
 297 1275 297 1275 278 1263 c 128,-1,39
 259 1251 259 1251 259 1235 c 0,40,41
 259 1210 259 1210 260 1184.5 c 128,-1,42
 261 1159 261 1159 264 1127 c 1,43,44
 238 1127 238 1127 211.5 1126.5 c 128,-1,45
 185 1126 185 1126 155 1125 c 1,46,47
 155 1128 155 1128 152.5 1146 c 128,-1,48
 150 1164 150 1164 145.5 1190.5 c 128,-1,49
 141 1217 141 1217 136 1248.5 c 128,-1,50
 131 1280 131 1280 126.5 1310 c 128,-1,51
 122 1340 122 1340 118 1365.5 c 128,-1,52
 114 1391 114 1391 113 1405 c 1,0,1
EndSplineSet
EndChar

StartChar: bracketleft
Encoding: 91 91 65
Width: 648
GlyphClass: 2
Flags: W
LayerCount: 2
Fore
SplineSet
575 -125 m 1,0,-1
 575 -160 l 2,1,2
 575 -185 575 -185 568 -199 c 128,-1,3
 561 -213 561 -213 549 -219.5 c 128,-1,4
 537 -226 537 -226 520.5 -227.5 c 128,-1,5
 504 -229 504 -229 484 -229 c 2,6,-1
 205 -229 l 1,7,-1
 205 1564 l 1,8,-1
 475 1564 l 2,9,10
 497 1564 497 1564 515.5 1563 c 128,-1,11
 534 1562 534 1562 547 1555.5 c 128,-1,12
 560 1549 560 1549 567.5 1534.5 c 128,-1,13
 575 1520 575 1520 575 1494 c 2,14,-1
 575 1461 l 1,15,-1
 366 1461 l 1,16,-1
 366 -125 l 1,17,-1
 575 -125 l 1,0,-1
EndSplineSet
EndChar

StartChar: backslash
Encoding: 92 92 66
Width: 891
GlyphClass: 2
Flags: W
LayerCount: 2
Fore
SplineSet
891 -66 m 1,0,-1
 782 -66 l 2,1,2
 733 -66 733 -66 706 -37 c 1,3,-1
 0 1490 l 1,4,-1
 102 1490 l 2,5,6
 138 1490 138 1490 157 1477.5 c 128,-1,7
 176 1465 176 1465 194 1443 c 1,8,-1
 891 -66 l 1,0,-1
EndSplineSet
EndChar

StartChar: bracketright
Encoding: 93 93 67
Width: 651
GlyphClass: 2
Flags: W
LayerCount: 2
Fore
SplineSet
285 -125 m 1,0,-1
 285 1461 l 1,1,-1
 76 1461 l 1,2,-1
 76 1494 l 2,3,4
 76 1527 76 1527 86 1542.5 c 128,-1,5
 96 1558 96 1558 122 1564 c 1,6,-1
 446 1564 l 1,7,-1
 446 -229 l 1,8,-1
 194 -229 l 2,9,10
 170 -229 170 -229 148.5 -228 c 128,-1,11
 127 -227 127 -227 111 -220.5 c 128,-1,12
 95 -214 95 -214 85.5 -200 c 128,-1,13
 76 -186 76 -186 76 -160 c 2,14,-1
 76 -125 l 1,15,-1
 285 -125 l 1,0,-1
EndSplineSet
EndChar

StartChar: asciicircum
Encoding: 94 94 68
Width: 1191
GlyphClass: 2
Flags: W
LayerCount: 2
Fore
SplineSet
1059 505 m 1,0,1
 1068 487 1068 487 1076 467 c 128,-1,2
 1084 447 1084 447 1084 426 c 0,3,4
 1084 401 1084 401 1069 380 c 1,5,-1
 967 362 l 1,6,-1
 597 1003 l 1,7,-1
 234 364 l 1,8,-1
 165 380 l 2,9,10
 142 385 142 385 127 394.5 c 128,-1,11
 112 404 112 404 104 415 c 1,12,13
 112 437 112 437 121.5 459.5 c 128,-1,14
 131 482 131 482 144 505 c 2,15,-1
 540 1208 l 1,16,-1
 607 1208 l 2,17,18
 620 1208 620 1208 640.5 1203.5 c 128,-1,19
 661 1199 661 1199 677 1172 c 2,20,-1
 1059 505 l 1,0,1
EndSplineSet
EndChar

StartChar: underscore
Encoding: 95 95 69
Width: 965
GlyphClass: 2
Flags: W
LayerCount: 2
Fore
SplineSet
-10 -339 m 1,0,-1
 -10 -278 l 2,1,2
 -10 -253 -10 -253 -2.5 -239.5 c 128,-1,3
 5 -226 5 -226 19 -219.5 c 128,-1,4
 33 -213 33 -213 51.5 -212 c 128,-1,5
 70 -211 70 -211 93 -211 c 2,6,-1
 975 -211 l 1,7,-1
 975 -270 l 2,8,9
 975 -302 975 -302 963.5 -317.5 c 128,-1,10
 952 -333 952 -333 929 -339 c 1,11,-1
 -10 -339 l 1,0,-1
EndSplineSet
EndChar

StartChar: grave
Encoding: 96 96 70
Width: 1223
GlyphClass: 2
Flags: W
LayerCount: 2
Fore
SplineSet
393 1587 m 1,0,-1
 643 1587 l 1,1,-1
 832 1264 l 1,2,-1
 694 1264 l 1,3,-1
 393 1587 l 1,0,-1
EndSplineSet
EndChar

StartChar: a
Encoding: 97 97 71
Width: 1247
GlyphClass: 2
Flags: W
LayerCount: 2
Fore
SplineSet
754 205 m 1,0,1
 760 259 760 259 765 327.5 c 128,-1,2
 770 396 770 396 770 489 c 1,3,-1
 612 489 l 2,4,5
 469 489 469 489 393 436 c 128,-1,6
 317 383 317 383 317 280 c 0,7,8
 317 190 317 190 367 145.5 c 128,-1,9
 417 101 417 101 501 101 c 0,10,11
 564 101 564 101 629 130.5 c 128,-1,12
 694 160 694 160 754 205 c 1,0,1
1159 19 m 1,13,14
 1108 1 1108 1 1044 -6 c 128,-1,15
 980 -13 980 -13 902 -13 c 0,16,17
 861 -13 861 -13 832.5 -11 c 128,-1,18
 804 -9 804 -9 786.5 1.5 c 128,-1,19
 769 12 769 12 761 34 c 128,-1,20
 753 56 753 56 753 95 c 1,21,-1
 751 115 l 1,22,23
 721 88 721 88 687 63 c 128,-1,24
 653 38 653 38 613 18.5 c 128,-1,25
 573 -1 573 -1 527 -12.5 c 128,-1,26
 481 -24 481 -24 427 -24 c 0,27,28
 356 -24 356 -24 296 -5.5 c 128,-1,29
 236 13 236 13 193 50 c 128,-1,30
 150 87 150 87 126 142 c 128,-1,31
 102 197 102 197 102 271 c 0,32,33
 102 437 102 437 231 520 c 128,-1,34
 360 603 360 603 623 603 c 2,35,-1
 770 603 l 1,36,-1
 770 671 l 2,37,38
 770 746 770 746 760 799.5 c 128,-1,39
 750 853 750 853 727.5 887.5 c 128,-1,40
 705 922 705 922 668 938.5 c 128,-1,41
 631 955 631 955 578 955 c 0,42,43
 518 955 518 955 470.5 938 c 128,-1,44
 423 921 423 921 386 893.5 c 128,-1,45
 349 866 349 866 320.5 830 c 128,-1,46
 292 794 292 794 269 755 c 1,47,-1
 130 843 l 1,48,49
 137 884 137 884 170 923 c 128,-1,50
 203 962 203 962 259 993 c 128,-1,51
 315 1024 315 1024 392.5 1042.5 c 128,-1,52
 470 1061 470 1061 566 1061 c 0,53,54
 780 1061 780 1061 881 963.5 c 128,-1,55
 982 866 982 866 982 682 c 2,56,-1
 982 269 l 2,57,58
 982 212 982 212 987 171.5 c 128,-1,59
 992 131 992 131 999 101 c 1,60,-1
 1159 101 l 1,61,-1
 1159 19 l 1,13,14
EndSplineSet
EndChar

StartChar: b
Encoding: 98 98 72
Width: 1337
GlyphClass: 2
Flags: W
LayerCount: 2
Fore
SplineSet
999 544 m 0,0,1
 999 947 999 947 749 947 c 0,2,3
 596 947 596 947 462 825 c 1,4,5
 451 750 451 750 446.5 669.5 c 128,-1,6
 442 589 442 589 442 498 c 0,7,8
 442 404 442 404 445.5 301 c 128,-1,9
 449 198 449 198 455 101 c 1,10,11
 516 95 516 95 583 91 c 128,-1,12
 650 87 650 87 704 87 c 0,13,14
 772 87 772 87 826.5 116 c 128,-1,15
 881 145 881 145 919.5 203 c 128,-1,16
 958 261 958 261 978.5 346 c 128,-1,17
 999 431 999 431 999 544 c 0,0,1
131 105 m 1,18,19
 156 113 156 113 174.5 123.5 c 128,-1,20
 193 134 193 134 205 149 c 128,-1,21
 217 164 217 164 222.5 185.5 c 128,-1,22
 228 207 228 207 228 237 c 2,23,-1
 228 1323 l 2,24,25
 228 1354 228 1354 226.5 1383.5 c 128,-1,26
 225 1413 225 1413 221 1441 c 1,27,28
 203 1447 203 1447 182 1451 c 128,-1,29
 161 1455 161 1455 134 1455 c 2,30,-1
 37 1455 l 1,31,-1
 37 1542 l 1,32,33
 85 1555 85 1555 168.5 1562 c 128,-1,34
 252 1569 252 1569 364 1569 c 0,35,36
 406 1569 406 1569 433 1566 c 1,37,38
 438 1544 438 1544 440 1518 c 128,-1,39
 442 1492 442 1492 442 1464 c 2,40,-1
 442 913 l 1,41,42
 517 991 517 991 605 1026.5 c 128,-1,43
 693 1062 693 1062 793 1062 c 0,44,45
 892 1062 892 1062 972 1028 c 128,-1,46
 1052 994 1052 994 1108.5 929 c 128,-1,47
 1165 864 1165 864 1195 769 c 128,-1,48
 1225 674 1225 674 1225 551 c 0,49,50
 1225 415 1225 415 1187.5 310 c 128,-1,51
 1150 205 1150 205 1087 133 c 128,-1,52
 1024 61 1024 61 941 24 c 128,-1,53
 858 -13 858 -13 768 -13 c 0,54,55
 688 -13 688 -13 621.5 -11 c 128,-1,56
 555 -9 555 -9 491.5 -6.5 c 128,-1,57
 428 -4 428 -4 362 -2 c 128,-1,58
 296 0 296 0 218 0 c 0,59,60
 212 0 212 0 198.5 0 c 128,-1,61
 185 0 185 0 169.5 -0.5 c 128,-1,62
 154 -1 154 -1 140 -1.5 c 128,-1,63
 126 -2 126 -2 119 -2 c 1,64,-1
 131 105 l 1,18,19
EndSplineSet
EndChar

StartChar: c
Encoding: 99 99 73
Width: 1082
GlyphClass: 2
Flags: W
LayerCount: 2
Fore
SplineSet
1002 54 m 1,0,1
 936 15 936 15 843.5 -4.5 c 128,-1,2
 751 -24 751 -24 648 -24 c 0,3,4
 531 -24 531 -24 433 11 c 128,-1,5
 335 46 335 46 263.5 113.5 c 128,-1,6
 192 181 192 181 152.5 279.5 c 128,-1,7
 113 378 113 378 113 505 c 0,8,9
 113 638 113 638 155 742 c 128,-1,10
 197 846 197 846 270.5 916.5 c 128,-1,11
 344 987 344 987 444.5 1024 c 128,-1,12
 545 1061 545 1061 663 1061 c 0,13,14
 714 1061 714 1061 762.5 1054.5 c 128,-1,15
 811 1048 811 1048 854.5 1035.5 c 128,-1,16
 898 1023 898 1023 935 1005.5 c 128,-1,17
 972 988 972 988 999 966 c 1,18,-1
 982 765 l 1,19,-1
 910 765 l 1,20,21
 862 859 862 859 798.5 903 c 128,-1,22
 735 947 735 947 642 947 c 0,23,24
 574 947 574 947 517 918.5 c 128,-1,25
 460 890 460 890 419 839 c 128,-1,26
 378 788 378 788 355 716.5 c 128,-1,27
 332 645 332 645 332 560 c 0,28,29
 332 439 332 439 359 352 c 128,-1,30
 386 265 386 265 432.5 209.5 c 128,-1,31
 479 154 479 154 540.5 127.5 c 128,-1,32
 602 101 602 101 672 101 c 0,33,34
 766 101 766 101 842.5 121.5 c 128,-1,35
 919 142 919 142 988 184 c 1,36,-1
 1002 54 l 1,0,1
EndSplineSet
EndChar

StartChar: d
Encoding: 100 100 74
Width: 1339
GlyphClass: 2
Flags: W
LayerCount: 2
Fore
SplineSet
903 345 m 1,0,1
 903 481 903 481 900.5 602 c 128,-1,2
 898 723 898 723 891 838 c 1,3,4
 868 863 868 863 836 883 c 128,-1,5
 804 903 804 903 769 917.5 c 128,-1,6
 734 932 734 932 697.5 939.5 c 128,-1,7
 661 947 661 947 628 947 c 0,8,9
 550 947 550 947 496 916 c 128,-1,10
 442 885 442 885 407.5 828 c 128,-1,11
 373 771 373 771 357.5 691 c 128,-1,12
 342 611 342 611 342 514 c 0,13,14
 342 302 342 302 412.5 201.5 c 128,-1,15
 483 101 483 101 623 101 c 0,16,17
 672 101 672 101 716.5 117.5 c 128,-1,18
 761 134 761 134 797.5 165.5 c 128,-1,19
 834 197 834 197 861 242.5 c 128,-1,20
 888 288 888 288 903 345 c 1,0,1
1113 269 m 2,21,22
 1113 212 1113 212 1118 171.5 c 128,-1,23
 1123 131 1123 131 1130 101 c 1,24,-1
 1303 101 l 1,25,-1
 1303 15 l 1,26,27
 1252 2 1252 2 1187.5 -5 c 128,-1,28
 1123 -12 1123 -12 1045 -12 c 0,29,30
 1010 -12 1010 -12 984 -10.5 c 128,-1,31
 958 -9 958 -9 941 0 c 128,-1,32
 924 9 924 9 915.5 28.5 c 128,-1,33
 907 48 907 48 907 84 c 2,34,-1
 907 132 l 1,35,36
 874 90 874 90 833.5 60.5 c 128,-1,37
 793 31 793 31 748 12 c 128,-1,38
 703 -7 703 -7 654.5 -15.5 c 128,-1,39
 606 -24 606 -24 557 -24 c 0,40,41
 465 -24 465 -24 384.5 9 c 128,-1,42
 304 42 304 42 243.5 108 c 128,-1,43
 183 174 183 174 148 273 c 128,-1,44
 113 372 113 372 113 503 c 0,45,46
 113 638 113 638 144 743.5 c 128,-1,47
 175 849 175 849 233.5 921.5 c 128,-1,48
 292 994 292 994 376.5 1031.5 c 128,-1,49
 461 1069 461 1069 568 1069 c 0,50,51
 671 1069 671 1069 752.5 1035.5 c 128,-1,52
 834 1002 834 1002 900 936 c 1,53,-1
 900 1354 l 2,54,55
 900 1406 900 1406 893 1441 c 1,56,57
 874 1447 874 1447 853.5 1451 c 128,-1,58
 833 1455 833 1455 806 1455 c 2,59,-1
 709 1455 l 1,60,-1
 709 1542 l 1,61,62
 760 1554 760 1554 848 1561.5 c 128,-1,63
 936 1569 936 1569 1048 1569 c 0,64,65
 1065 1569 1065 1569 1079.5 1568.5 c 128,-1,66
 1094 1568 1094 1568 1105 1566 c 1,67,68
 1110 1549 1110 1549 1111.5 1529 c 128,-1,69
 1113 1509 1113 1509 1113 1486 c 2,70,-1
 1113 269 l 2,21,22
EndSplineSet
EndChar

StartChar: e
Encoding: 101 101 75
Width: 1171
GlyphClass: 2
Flags: W
LayerCount: 2
Fore
SplineSet
851 604 m 1,0,1
 853 608 853 608 853 612 c 128,-1,2
 853 616 853 616 853 621 c 0,3,4
 853 687 853 687 839.5 746.5 c 128,-1,5
 826 806 826 806 797 851.5 c 128,-1,6
 768 897 768 897 721.5 923.5 c 128,-1,7
 675 950 675 950 608 950 c 0,8,9
 475 950 475 950 406.5 862 c 128,-1,10
 338 774 338 774 329 604 c 1,11,-1
 851 604 l 1,0,1
1046 167 m 1,12,13
 989 67 989 67 889 21.5 c 128,-1,14
 789 -24 789 -24 646 -24 c 0,15,16
 525 -24 525 -24 426.5 12 c 128,-1,17
 328 48 328 48 258.5 117.5 c 128,-1,18
 189 187 189 187 151 288 c 128,-1,19
 113 389 113 389 113 519 c 0,20,21
 113 645 113 645 150 745.5 c 128,-1,22
 187 846 187 846 256 916 c 128,-1,23
 325 986 325 986 422.5 1023.5 c 128,-1,24
 520 1061 520 1061 642 1061 c 0,25,26
 732 1061 732 1061 810 1033.5 c 128,-1,27
 888 1006 888 1006 945.5 954.5 c 128,-1,28
 1003 903 1003 903 1035.5 828 c 128,-1,29
 1068 753 1068 753 1068 659 c 0,30,31
 1068 602 1068 602 1058.5 568 c 128,-1,32
 1049 534 1049 534 1030.5 516 c 128,-1,33
 1012 498 1012 498 983.5 492.5 c 128,-1,34
 955 487 955 487 916 487 c 2,35,-1
 330 487 l 1,36,37
 341 294 341 294 432.5 197.5 c 128,-1,38
 524 101 524 101 679 101 c 0,39,40
 760 101 760 101 830 126 c 128,-1,41
 900 151 900 151 960 205 c 1,42,-1
 1046 167 l 1,12,13
EndSplineSet
EndChar

StartChar: f
Encoding: 102 102 76
Width: 786
GlyphClass: 2
Flags: W
LayerCount: 2
Fore
SplineSet
136 71 m 1,0,1
 190 77 190 77 219.5 85 c 128,-1,2
 249 93 249 93 262.5 107 c 128,-1,3
 276 121 276 121 278.5 143.5 c 128,-1,4
 281 166 281 166 281 200 c 2,5,-1
 281 912 l 1,6,-1
 55 912 l 1,7,-1
 55 987 l 1,8,9
 69 1013 69 1013 95.5 1022.5 c 128,-1,10
 122 1032 122 1032 162 1032 c 2,11,-1
 281 1032 l 1,12,-1
 281 1124 l 2,13,14
 281 1242 281 1242 311.5 1325.5 c 128,-1,15
 342 1409 342 1409 398 1462 c 128,-1,16
 454 1515 454 1515 533 1539.5 c 128,-1,17
 612 1564 612 1564 709 1564 c 0,18,19
 789 1564 789 1564 841.5 1548 c 128,-1,20
 894 1532 894 1532 929 1512 c 1,21,-1
 929 1288 l 1,22,-1
 832 1288 l 1,23,24
 819 1334 819 1334 802 1365.5 c 128,-1,25
 785 1397 785 1397 764.5 1416 c 128,-1,26
 744 1435 744 1435 721 1443.5 c 128,-1,27
 698 1452 698 1452 673 1452 c 0,28,29
 626 1452 626 1452 592.5 1438.5 c 128,-1,30
 559 1425 559 1425 537.5 1392.5 c 128,-1,31
 516 1360 516 1360 505.5 1306 c 128,-1,32
 495 1252 495 1252 495 1170 c 2,33,-1
 495 1032 l 1,34,-1
 779 1032 l 1,35,-1
 779 980 l 2,36,37
 779 949 779 949 767.5 933.5 c 128,-1,38
 756 918 756 918 731 912 c 1,39,-1
 495 912 l 1,40,-1
 495 238 l 2,41,42
 495 194 495 194 497.5 165 c 128,-1,43
 500 136 500 136 515.5 117.5 c 128,-1,44
 531 99 531 99 564 88.5 c 128,-1,45
 597 78 597 78 657 71 c 1,46,-1
 665 -13 l 1,47,48
 584 -7 584 -7 518 -3.5 c 128,-1,49
 452 0 452 0 388 0 c 0,50,51
 327 0 327 0 265.5 -3 c 128,-1,52
 204 -6 204 -6 134 -13 c 1,53,-1
 136 71 l 1,0,1
EndSplineSet
EndChar

StartChar: g
Encoding: 103 103 77
Width: 1102
GlyphClass: 2
Flags: W
LayerCount: 2
Fore
SplineSet
1003 1052 m 1,0,1
 1030 1052 1030 1052 1044.5 1046.5 c 128,-1,2
 1059 1041 1059 1041 1066 1027.5 c 128,-1,3
 1073 1014 1073 1014 1074 992 c 128,-1,4
 1075 970 1075 970 1075 936 c 2,5,-1
 1075 918 l 1,6,-1
 853 918 l 1,7,8
 898 864 898 864 917.5 809.5 c 128,-1,9
 937 755 937 755 937 701 c 0,10,11
 937 615 937 615 911 544.5 c 128,-1,12
 885 474 885 474 829 424 c 128,-1,13
 773 374 773 374 685.5 346 c 128,-1,14
 598 318 598 318 475 318 c 0,15,16
 453 318 453 318 429 320 c 128,-1,17
 405 322 405 322 385 325 c 0,18,19
 361 328 361 328 338 332 c 1,20,21
 330 319 330 319 325 305 c 0,22,23
 320 293 320 293 316.5 278 c 128,-1,24
 313 263 313 263 313 247 c 0,25,26
 313 230 313 230 318.5 217 c 128,-1,27
 324 204 324 204 344.5 196 c 128,-1,28
 365 188 365 188 405 184 c 128,-1,29
 445 180 445 180 514 180 c 0,30,31
 622 180 622 180 716 168 c 128,-1,32
 810 156 810 156 879.5 121.5 c 128,-1,33
 949 87 949 87 989 24.5 c 128,-1,34
 1029 -38 1029 -38 1029 -138 c 0,35,36
 1029 -204 1029 -204 1002 -261 c 128,-1,37
 975 -318 975 -318 912.5 -359.5 c 128,-1,38
 850 -401 850 -401 749.5 -425 c 128,-1,39
 649 -449 649 -449 502 -449 c 0,40,41
 380 -449 380 -449 294 -424.5 c 128,-1,42
 208 -400 208 -400 153 -359.5 c 128,-1,43
 98 -319 98 -319 72.5 -265.5 c 128,-1,44
 47 -212 47 -212 47 -153 c 0,45,46
 47 -75 47 -75 93.5 -20.5 c 128,-1,47
 140 34 140 34 229 60 c 1,48,-1
 229 65 l 1,49,50
 209 67 209 67 194.5 78 c 128,-1,51
 180 89 180 89 170.5 106 c 128,-1,52
 161 123 161 123 156 144.5 c 128,-1,53
 151 166 151 166 151 189 c 0,54,55
 151 263 151 263 181.5 318.5 c 128,-1,56
 212 374 212 374 275 390 c 1,57,-1
 275 394 l 1,58,59
 190 445 190 445 150 524 c 128,-1,60
 110 603 110 603 110 697 c 0,61,62
 110 780 110 780 140.5 847.5 c 128,-1,63
 171 915 171 915 226 962.5 c 128,-1,64
 281 1010 281 1010 358.5 1036 c 128,-1,65
 436 1062 436 1062 531 1062 c 0,66,67
 588 1062 588 1062 644.5 1049 c 128,-1,68
 701 1036 701 1036 750 1018 c 1,69,-1
 1003 1052 l 1,0,1
841 -149 m 0,70,71
 841 -106 841 -106 831 -71.5 c 128,-1,72
 821 -37 821 -37 787.5 -12 c 128,-1,73
 754 13 754 13 691 26.5 c 128,-1,74
 628 40 628 40 522 40 c 0,75,76
 491 40 491 40 457.5 39 c 128,-1,77
 424 38 424 38 395 37 c 0,78,79
 362 35 362 35 330 34 c 1,80,81
 303 1 303 1 282 -32 c 0,82,83
 264 -60 264 -60 249.5 -91.5 c 128,-1,84
 235 -123 235 -123 235 -149 c 0,85,86
 235 -181 235 -181 246 -213.5 c 128,-1,87
 257 -246 257 -246 288.5 -272.5 c 128,-1,88
 320 -299 320 -299 376 -316 c 128,-1,89
 432 -333 432 -333 522 -333 c 0,90,91
 622 -333 622 -333 684 -319 c 128,-1,92
 746 -305 746 -305 781 -280 c 128,-1,93
 816 -255 816 -255 828.5 -221.5 c 128,-1,94
 841 -188 841 -188 841 -149 c 0,70,71
747 686 m 0,95,96
 747 819 747 819 689 883 c 128,-1,97
 631 947 631 947 525 947 c 0,98,99
 405 947 405 947 352 882 c 128,-1,100
 299 817 299 817 299 686 c 0,101,102
 299 620 299 620 316 575 c 128,-1,103
 333 530 333 530 363 502 c 128,-1,104
 393 474 393 474 434 461.5 c 128,-1,105
 475 449 475 449 522 449 c 0,106,107
 571 449 571 449 612 462 c 128,-1,108
 653 475 653 475 683 503.5 c 128,-1,109
 713 532 713 532 730 577 c 128,-1,110
 747 622 747 622 747 686 c 0,95,96
EndSplineSet
EndChar

StartChar: h
Encoding: 104 104 78
Width: 1362
GlyphClass: 2
Flags: W
LayerCount: 2
Fore
SplineSet
1305 12 m 1,0,1
 1257 -1 1257 -1 1186.5 -7 c 128,-1,2
 1116 -13 1116 -13 1041 -13 c 0,3,4
 1019 -13 1019 -13 996.5 -9.5 c 128,-1,5
 974 -6 974 -6 956 3.5 c 128,-1,6
 938 13 938 13 926.5 29.5 c 128,-1,7
 915 46 915 46 915 73 c 0,8,9
 915 122 915 122 918 170 c 128,-1,10
 921 218 921 218 921 281 c 2,11,-1
 921 644 l 2,12,13
 921 741 921 741 910.5 800.5 c 128,-1,14
 900 860 900 860 879 892.5 c 128,-1,15
 858 925 858 925 826 935.5 c 128,-1,16
 794 946 794 946 751 946 c 0,17,18
 694 946 694 946 640 927.5 c 128,-1,19
 586 909 586 909 543.5 879.5 c 128,-1,20
 501 850 501 850 473.5 815 c 128,-1,21
 446 780 446 780 442 747 c 1,22,-1
 442 226 l 2,23,24
 442 185 442 185 444.5 158.5 c 128,-1,25
 447 132 447 132 458.5 114.5 c 128,-1,26
 470 97 470 97 494 87.5 c 128,-1,27
 518 78 518 78 562 71 c 1,28,-1
 570 -13 l 1,29,30
 498 -7 498 -7 439 -3.5 c 128,-1,31
 380 0 380 0 323 0 c 0,32,33
 269 0 269 0 214.5 -3 c 128,-1,34
 160 -6 160 -6 100 -13 c 1,35,-1
 104 71 l 1,36,37
 150 77 150 77 175 85 c 128,-1,38
 200 93 200 93 212 107.5 c 128,-1,39
 224 122 224 122 226 144.5 c 128,-1,40
 228 167 228 167 228 200 c 2,41,-1
 228 1353 l 2,42,43
 228 1376 228 1376 226.5 1398.5 c 128,-1,44
 225 1421 225 1421 220 1441 c 1,45,46
 203 1447 203 1447 182 1451 c 128,-1,47
 161 1455 161 1455 135 1455 c 2,48,-1
 37 1455 l 1,49,-1
 37 1542 l 1,50,51
 86 1554 86 1554 169 1562 c 128,-1,52
 252 1570 252 1570 355 1570 c 0,53,54
 388 1570 388 1570 405.5 1566.5 c 128,-1,55
 423 1563 423 1563 431 1553 c 128,-1,56
 439 1543 439 1543 440.5 1524 c 128,-1,57
 442 1505 442 1505 442 1475 c 2,58,-1
 442 918 l 1,59,60
 515 987 515 987 616 1024 c 128,-1,61
 717 1061 717 1061 826 1061 c 0,62,63
 988 1061 988 1061 1061.5 983.5 c 128,-1,64
 1135 906 1135 906 1135 745 c 2,65,-1
 1135 269 l 2,66,67
 1135 212 1135 212 1140 171.5 c 128,-1,68
 1145 131 1145 131 1152 101 c 1,69,-1
 1305 101 l 1,70,-1
 1305 12 l 1,0,1
EndSplineSet
EndChar

StartChar: i
Encoding: 105 105 79
Width: 640
GlyphClass: 2
Flags: W
LayerCount: 2
Fore
SplineSet
198 1407 m 0,0,1
 198 1471 198 1471 236.5 1509 c 128,-1,2
 275 1547 275 1547 335 1547 c 0,3,4
 365 1547 365 1547 390 1537 c 128,-1,5
 415 1527 415 1527 433 1509 c 128,-1,6
 451 1491 451 1491 461.5 1465 c 128,-1,7
 472 1439 472 1439 472 1407 c 0,8,9
 472 1377 472 1377 461.5 1351.5 c 128,-1,10
 451 1326 451 1326 433 1307.5 c 128,-1,11
 415 1289 415 1289 390 1279 c 128,-1,12
 365 1269 365 1269 335 1269 c 256,13,14
 305 1269 305 1269 280 1279 c 128,-1,15
 255 1289 255 1289 236.5 1307.5 c 128,-1,16
 218 1326 218 1326 208 1351.5 c 128,-1,17
 198 1377 198 1377 198 1407 c 0,0,1
614 11 m 1,18,19
 562 -2 562 -2 496 -7.5 c 128,-1,20
 430 -13 430 -13 349 -13 c 0,21,22
 327 -13 327 -13 304.5 -9.5 c 128,-1,23
 282 -6 282 -6 264 3.5 c 128,-1,24
 246 13 246 13 234.5 29.5 c 128,-1,25
 223 46 223 46 223 73 c 0,26,27
 223 122 223 122 226.5 170 c 128,-1,28
 230 218 230 218 230 281 c 2,29,-1
 230 842 l 2,30,31
 230 862 230 862 228.5 883 c 128,-1,32
 227 904 227 904 223 921 c 1,33,34
 187 936 187 936 137 936 c 2,35,-1
 40 936 l 1,36,-1
 40 1032 l 1,37,38
 52 1035 52 1035 77.5 1038.5 c 128,-1,39
 103 1042 103 1042 135.5 1045 c 128,-1,40
 168 1048 168 1048 206 1050 c 128,-1,41
 244 1052 244 1052 282 1052 c 0,42,43
 330 1052 330 1052 372.5 1047.5 c 128,-1,44
 415 1043 415 1043 443 1032 c 1,45,-1
 443 269 l 2,46,47
 443 212 443 212 448 171.5 c 128,-1,48
 453 131 453 131 460 101 c 1,49,-1
 604 101 l 1,50,-1
 614 11 l 1,18,19
EndSplineSet
EndChar

StartChar: j
Encoding: 106 106 80
Width: 810
GlyphClass: 2
Flags: W
LayerCount: 2
Fore
SplineSet
592 86 m 2,0,1
 592 -144 592 -144 507 -259 c 128,-1,2
 422 -374 422 -374 259 -374 c 0,3,4
 213 -374 213 -374 167 -368 c 128,-1,5
 121 -362 121 -362 84 -354 c 0,6,7
 40 -345 40 -345 0 -333 c 1,8,-1
 47 -56 l 1,9,10
 69 -60 69 -60 88 -64 c 0,11,12
 105 -67 105 -67 122.5 -69.5 c 128,-1,13
 140 -72 140 -72 153 -74 c 1,14,15
 153 -104 153 -104 155.5 -134 c 128,-1,16
 158 -164 158 -164 160 -187 c 0,17,18
 163 -215 163 -215 167 -240 c 1,19,20
 188 -243 188 -243 208 -246 c 0,21,22
 225 -248 225 -248 243.5 -250 c 128,-1,23
 262 -252 262 -252 276 -252 c 0,24,25
 311 -252 311 -252 331.5 -222 c 128,-1,26
 352 -192 352 -192 362.5 -142.5 c 128,-1,27
 373 -93 373 -93 376 -28.5 c 128,-1,28
 379 36 379 36 379 104 c 2,29,-1
 379 842 l 2,30,31
 379 862 379 862 377.5 883 c 128,-1,32
 376 904 376 904 372 921 c 1,33,34
 336 936 336 936 286 936 c 2,35,-1
 189 936 l 1,36,-1
 189 1032 l 1,37,38
 201 1035 201 1035 226.5 1038.5 c 128,-1,39
 252 1042 252 1042 284.5 1045 c 128,-1,40
 317 1048 317 1048 355 1050 c 128,-1,41
 393 1052 393 1052 431 1052 c 0,42,43
 479 1052 479 1052 521.5 1047.5 c 128,-1,44
 564 1043 564 1043 592 1032 c 1,45,-1
 592 86 l 2,0,1
348 1407 m 0,46,47
 348 1439 348 1439 358.5 1465 c 128,-1,48
 369 1491 369 1491 387 1509 c 128,-1,49
 405 1527 405 1527 430 1537 c 128,-1,50
 455 1547 455 1547 485 1547 c 256,51,52
 515 1547 515 1547 540 1537 c 128,-1,53
 565 1527 565 1527 583 1509 c 128,-1,54
 601 1491 601 1491 611.5 1465 c 128,-1,55
 622 1439 622 1439 622 1407 c 0,56,57
 622 1377 622 1377 611.5 1351.5 c 128,-1,58
 601 1326 601 1326 583 1307.5 c 128,-1,59
 565 1289 565 1289 540 1279 c 128,-1,60
 515 1269 515 1269 485 1269 c 256,61,62
 455 1269 455 1269 430 1279 c 128,-1,63
 405 1289 405 1289 387 1307.5 c 128,-1,64
 369 1326 369 1326 358.5 1351.5 c 128,-1,65
 348 1377 348 1377 348 1407 c 0,46,47
EndSplineSet
EndChar

StartChar: k
Encoding: 107 107 81
Width: 1245
GlyphClass: 2
Flags: W
LayerCount: 2
Fore
SplineSet
104 72 m 1,0,1
 150 78 150 78 175 86 c 128,-1,2
 200 94 200 94 212 108.5 c 128,-1,3
 224 123 224 123 226 145.5 c 128,-1,4
 228 168 228 168 228 201 c 2,5,-1
 228 1337 l 2,6,7
 228 1364 228 1364 226.5 1389.5 c 128,-1,8
 225 1415 225 1415 220 1440 c 1,9,10
 203 1446 203 1446 182 1450 c 128,-1,11
 161 1454 161 1454 134 1454 c 2,12,-1
 37 1454 l 1,13,-1
 37 1541 l 1,14,15
 65 1547 65 1547 104.5 1552 c 128,-1,16
 144 1557 144 1557 191 1560.5 c 128,-1,17
 238 1564 238 1564 289.5 1567 c 128,-1,18
 341 1570 341 1570 392 1572 c 1,19,20
 425 1550 425 1550 433.5 1522.5 c 128,-1,21
 442 1495 442 1495 442 1456 c 2,22,-1
 442 523 l 1,23,-1
 706 778 l 2,24,25
 820 887 820 887 821 918 c 0,26,27
 821 936 821 936 783 936 c 1,28,-1
 783 1032 l 1,29,-1
 1216 1032 l 1,30,-1
 1216 936 l 1,31,-1
 1178 936 l 2,32,33
 1157 936 1157 936 1133 930 c 128,-1,34
 1109 924 1109 924 1086 915 c 128,-1,35
 1063 906 1063 906 1043.5 894.5 c 128,-1,36
 1024 883 1024 883 1012 872 c 2,37,-1
 669 566 l 1,38,-1
 1039 145 l 2,39,40
 1050 132 1050 132 1069 120.5 c 128,-1,41
 1088 109 1088 109 1111 100 c 128,-1,42
 1134 91 1134 91 1158.5 86 c 128,-1,43
 1183 81 1183 81 1205 81 c 0,44,45
 1222 81 1222 81 1234 84 c 1,46,-1
 1247 -14 l 1,47,48
 1186 -7 1186 -7 1125.5 -3.5 c 128,-1,49
 1065 0 1065 0 1002 0 c 256,50,51
 939 0 939 0 877.5 -3.5 c 128,-1,52
 816 -7 816 -7 750 -13 c 1,53,-1
 750 75 l 1,54,55
 773 75 773 75 786 77 c 128,-1,56
 799 79 799 79 799 92 c 1,57,58
 788 111 788 111 772 132 c 128,-1,59
 756 153 756 153 734 179 c 2,60,-1
 495 470 l 1,61,-1
 442 432 l 1,62,-1
 442 226 l 2,63,64
 442 186 442 186 444.5 159.5 c 128,-1,65
 447 133 447 133 458.5 115.5 c 128,-1,66
 470 98 470 98 494 88.5 c 128,-1,67
 518 79 518 79 562 72 c 1,68,-1
 567 -13 l 1,69,70
 498 -7 498 -7 444 -3.5 c 128,-1,71
 390 0 390 0 335 0 c 0,72,73
 278 0 278 0 221.5 -3 c 128,-1,74
 165 -6 165 -6 101 -13 c 1,75,-1
 104 72 l 1,0,1
EndSplineSet
EndChar

StartChar: l
Encoding: 108 108 82
Width: 638
GlyphClass: 2
Flags: W
LayerCount: 2
Fore
SplineSet
219 1339 m 2,0,1
 219 1365 219 1365 217 1391 c 128,-1,2
 215 1417 215 1417 210 1441 c 1,3,4
 193 1447 193 1447 171.5 1451 c 128,-1,5
 150 1455 150 1455 123 1455 c 2,6,-1
 27 1455 l 1,7,-1
 27 1542 l 1,8,9
 73 1552 73 1552 149.5 1560.5 c 128,-1,10
 226 1569 226 1569 323 1569 c 0,11,12
 371 1569 371 1569 394 1564 c 128,-1,13
 417 1559 417 1559 430 1543 c 1,14,-1
 430 269 l 2,15,16
 430 212 430 212 435 171.5 c 128,-1,17
 440 131 440 131 447 101 c 1,18,-1
 611 101 l 1,19,-1
 611 11 l 1,20,21
 557 -2 557 -2 490 -7.5 c 128,-1,22
 423 -13 423 -13 338 -13 c 0,23,24
 316 -13 316 -13 293.5 -9.5 c 128,-1,25
 271 -6 271 -6 253 3.5 c 128,-1,26
 235 13 235 13 223.5 29.5 c 128,-1,27
 212 46 212 46 212 73 c 0,28,29
 212 122 212 122 215.5 170 c 128,-1,30
 219 218 219 218 219 281 c 2,31,-1
 219 1339 l 2,0,1
EndSplineSet
EndChar

StartChar: m
Encoding: 109 109 83
Width: 2006
GlyphClass: 2
Flags: W
LayerCount: 2
Fore
SplineSet
1562 660 m 2,0,1
 1562 742 1562 742 1554 795.5 c 128,-1,2
 1546 849 1546 849 1528 880 c 128,-1,3
 1510 911 1510 911 1480 923.5 c 128,-1,4
 1450 936 1450 936 1405 936 c 0,5,6
 1352 936 1352 936 1305.5 917.5 c 128,-1,7
 1259 899 1259 899 1221.5 871 c 128,-1,8
 1184 843 1184 843 1157.5 809.5 c 128,-1,9
 1131 776 1131 776 1118 746 c 1,10,-1
 1118 237 l 2,11,12
 1118 193 1118 193 1120 164.5 c 128,-1,13
 1122 136 1122 136 1134.5 118 c 128,-1,14
 1147 100 1147 100 1173.5 89.5 c 128,-1,15
 1200 79 1200 79 1248 72 c 1,16,-1
 1257 -13 l 1,17,18
 1197 -7 1197 -7 1132 -3.5 c 128,-1,19
 1067 0 1067 0 1001 0 c 0,20,21
 940 0 940 0 883.5 -3 c 128,-1,22
 827 -6 827 -6 776 -13 c 1,23,-1
 780 72 l 1,24,25
 826 78 826 78 851 85.5 c 128,-1,26
 876 93 876 93 888 107 c 128,-1,27
 900 121 900 121 902 143 c 128,-1,28
 904 165 904 165 904 199 c 2,29,-1
 904 660 l 2,30,31
 904 743 904 743 896.5 796.5 c 128,-1,32
 889 850 889 850 870.5 881 c 128,-1,33
 852 912 852 912 821.5 924 c 128,-1,34
 791 936 791 936 746 936 c 0,35,36
 699 936 699 936 652.5 918 c 128,-1,37
 606 900 606 900 567 872 c 128,-1,38
 528 844 528 844 500 810.5 c 128,-1,39
 472 777 472 777 461 746 c 1,40,-1
 461 236 l 2,41,42
 461 192 461 192 463 164 c 128,-1,43
 465 136 465 136 476.5 118 c 128,-1,44
 488 100 488 100 512 89.5 c 128,-1,45
 536 79 536 79 581 72 c 1,46,-1
 589 -13 l 1,47,48
 532 -7 532 -7 468.5 -3.5 c 128,-1,49
 405 0 405 0 339 0 c 0,50,51
 279 0 279 0 223 -3 c 128,-1,52
 167 -6 167 -6 119 -13 c 1,53,-1
 122 72 l 1,54,55
 169 78 169 78 194.5 86.5 c 128,-1,56
 220 95 220 95 231.5 110.5 c 128,-1,57
 243 126 243 126 245 150 c 128,-1,58
 247 174 247 174 247 209 c 2,59,-1
 247 841 l 2,60,61
 247 861 247 861 245.5 882 c 128,-1,62
 244 903 244 903 240 921 c 1,63,64
 205 936 205 936 154 936 c 2,65,-1
 57 936 l 1,66,-1
 57 1032 l 1,67,68
 69 1035 69 1035 93.5 1038.5 c 128,-1,69
 118 1042 118 1042 150 1045 c 128,-1,70
 182 1048 182 1048 219 1050 c 128,-1,71
 256 1052 256 1052 292 1052 c 0,72,73
 340 1052 340 1052 384 1047.5 c 128,-1,74
 428 1043 428 1043 456 1032 c 1,75,-1
 456 905 l 1,76,77
 544 983 544 983 636.5 1022.5 c 128,-1,78
 729 1062 729 1062 842 1062 c 0,79,80
 1045 1062 1045 1062 1101 885 c 1,81,82
 1125 912 1125 912 1160 943.5 c 128,-1,83
 1195 975 1195 975 1241.5 1001 c 128,-1,84
 1288 1027 1288 1027 1347 1044.5 c 128,-1,85
 1406 1062 1406 1062 1480 1062 c 0,86,87
 1634 1062 1634 1062 1706 986.5 c 128,-1,88
 1778 911 1778 911 1778 748 c 2,89,-1
 1778 269 l 2,90,91
 1778 212 1778 212 1783 171.5 c 128,-1,92
 1788 131 1788 131 1795 101 c 1,93,-1
 1939 101 l 1,94,-1
 1949 12 l 1,95,96
 1897 -1 1897 -1 1830.5 -7 c 128,-1,97
 1764 -13 1764 -13 1683 -13 c 0,98,99
 1661 -13 1661 -13 1638.5 -9.5 c 128,-1,100
 1616 -6 1616 -6 1598 3.5 c 128,-1,101
 1580 13 1580 13 1568.5 29.5 c 128,-1,102
 1557 46 1557 46 1557 73 c 0,103,104
 1557 122 1557 122 1560.5 170 c 128,-1,105
 1564 218 1564 218 1564 281 c 2,106,-1
 1562 660 l 2,0,1
EndSplineSet
EndChar

StartChar: n
Encoding: 110 110 84
Width: 1382
GlyphClass: 2
Flags: W
LayerCount: 2
Fore
SplineSet
1153 269 m 2,0,1
 1153 212 1153 212 1158 171.5 c 128,-1,2
 1163 131 1163 131 1170 101 c 1,3,-1
 1314 101 l 1,4,-1
 1325 12 l 1,5,6
 1224 -13 1224 -13 1058 -13 c 0,7,8
 1037 -13 1037 -13 1015 -9.5 c 128,-1,9
 993 -6 993 -6 975 4 c 128,-1,10
 957 14 957 14 945.5 30.5 c 128,-1,11
 934 47 934 47 934 74 c 0,12,13
 934 123 934 123 937 174.5 c 128,-1,14
 940 226 940 226 940 289 c 2,15,-1
 940 651 l 2,16,17
 940 730 940 730 926.5 784.5 c 128,-1,18
 913 839 913 839 889.5 873 c 128,-1,19
 866 907 866 907 834.5 921.5 c 128,-1,20
 803 936 803 936 767 936 c 0,21,22
 727 936 727 936 683.5 921.5 c 128,-1,23
 640 907 640 907 599 883 c 128,-1,24
 558 859 558 859 522 828.5 c 128,-1,25
 486 798 486 798 461 766 c 1,26,-1
 461 237 l 2,27,28
 461 193 461 193 463 164.5 c 128,-1,29
 465 136 465 136 476.5 118 c 128,-1,30
 488 100 488 100 512 89.5 c 128,-1,31
 536 79 536 79 581 72 c 1,32,-1
 589 -13 l 1,33,34
 532 -7 532 -7 468.5 -3.5 c 128,-1,35
 405 0 405 0 339 0 c 0,36,37
 279 0 279 0 223 -3 c 128,-1,38
 167 -6 167 -6 119 -13 c 1,39,-1
 122 72 l 1,40,41
 169 78 169 78 194.5 86 c 128,-1,42
 220 94 220 94 231.5 109 c 128,-1,43
 243 124 243 124 245 147 c 128,-1,44
 247 170 247 170 247 206 c 2,45,-1
 247 845 l 2,46,47
 247 865 247 865 245.5 884.5 c 128,-1,48
 244 904 244 904 240 921 c 1,49,50
 226 929 226 929 209.5 932.5 c 128,-1,51
 193 936 193 936 170 936 c 2,52,-1
 57 936 l 1,53,-1
 57 1032 l 1,54,55
 69 1035 69 1035 94 1038.5 c 128,-1,56
 119 1042 119 1042 151 1045 c 128,-1,57
 183 1048 183 1048 220.5 1050 c 128,-1,58
 258 1052 258 1052 296 1052 c 0,59,60
 344 1052 344 1052 386.5 1047.5 c 128,-1,61
 429 1043 429 1043 456 1032 c 1,62,-1
 456 906 l 1,63,64
 494 943 494 943 539.5 972 c 128,-1,65
 585 1001 585 1001 634.5 1021 c 128,-1,66
 684 1041 684 1041 735 1051.5 c 128,-1,67
 786 1062 786 1062 835 1062 c 0,68,69
 898 1062 898 1062 955.5 1044 c 128,-1,70
 1013 1026 1013 1026 1057 987.5 c 128,-1,71
 1101 949 1101 949 1127 888.5 c 128,-1,72
 1153 828 1153 828 1153 744 c 2,73,-1
 1153 269 l 2,0,1
EndSplineSet
EndChar

StartChar: o
Encoding: 111 111 85
Width: 1285
GlyphClass: 2
Flags: W
LayerCount: 2
Fore
SplineSet
1172 518 m 0,0,1
 1172 384 1172 384 1129.5 282.5 c 128,-1,2
 1087 181 1087 181 1015 113 c 128,-1,3
 943 45 943 45 847 10.5 c 128,-1,4
 751 -24 751 -24 643 -24 c 0,5,6
 531 -24 531 -24 434.5 12 c 128,-1,7
 338 48 338 48 266.5 117 c 128,-1,8
 195 186 195 186 154 287 c 128,-1,9
 113 388 113 388 113 518 c 0,10,11
 113 647 113 647 154 748 c 128,-1,12
 195 849 195 849 266.5 918.5 c 128,-1,13
 338 988 338 988 434.5 1025 c 128,-1,14
 531 1062 531 1062 643 1062 c 0,15,16
 754 1062 754 1062 851 1025 c 128,-1,17
 948 988 948 988 1019 918.5 c 128,-1,18
 1090 849 1090 849 1131 748 c 128,-1,19
 1172 647 1172 647 1172 518 c 0,0,1
342 519 m 0,20,21
 342 297 342 297 414.5 192 c 128,-1,22
 487 87 487 87 642 87 c 0,23,24
 723 87 723 87 780.5 114 c 128,-1,25
 838 141 838 141 874 195 c 128,-1,26
 910 249 910 249 926.5 330 c 128,-1,27
 943 411 943 411 943 519 c 0,28,29
 943 733 943 733 870.5 839.5 c 128,-1,30
 798 946 798 946 642 946 c 0,31,32
 562 946 562 946 505 918.5 c 128,-1,33
 448 891 448 891 412 837 c 128,-1,34
 376 783 376 783 359 703 c 128,-1,35
 342 623 342 623 342 519 c 0,20,21
EndSplineSet
EndChar

StartChar: p
Encoding: 112 112 86
Width: 1327
GlyphClass: 2
Flags: W
LayerCount: 2
Fore
SplineSet
432 292 m 1,0,1
 481 198 481 198 546 149.5 c 128,-1,2
 611 101 611 101 704 101 c 0,3,4
 778 101 778 101 832 131 c 128,-1,5
 886 161 886 161 920.5 216 c 128,-1,6
 955 271 955 271 971.5 348.5 c 128,-1,7
 988 426 988 426 988 522 c 0,8,9
 988 734 988 734 932 840 c 128,-1,10
 876 946 876 946 755 946 c 0,11,12
 721 946 721 946 682.5 939 c 128,-1,13
 644 932 644 932 603.5 915.5 c 128,-1,14
 563 899 563 899 522 871 c 128,-1,15
 481 843 481 843 442 802 c 1,16,-1
 432 292 l 1,0,1
430 917 m 1,17,18
 496 986 496 986 587.5 1024 c 128,-1,19
 679 1062 679 1062 788 1062 c 0,20,21
 886 1062 886 1062 965 1026.5 c 128,-1,22
 1044 991 1044 991 1099.5 924 c 128,-1,23
 1155 857 1155 857 1185 759 c 128,-1,24
 1215 661 1215 661 1215 537 c 0,25,26
 1215 395 1215 395 1178 289.5 c 128,-1,27
 1141 184 1141 184 1078.5 114.5 c 128,-1,28
 1016 45 1016 45 933 10.5 c 128,-1,29
 850 -24 850 -24 758 -24 c 0,30,31
 664 -24 664 -24 584 6.5 c 128,-1,32
 504 37 504 37 432 91 c 1,33,-1
 432 -240 l 2,34,35
 432 -282 432 -282 434 -309.5 c 128,-1,36
 436 -337 436 -337 447.5 -355 c 128,-1,37
 459 -373 459 -373 483.5 -383.5 c 128,-1,38
 508 -394 508 -394 553 -401 c 1,39,-1
 561 -489 l 1,40,41
 486 -477 486 -477 424 -474 c 128,-1,42
 362 -471 362 -471 307 -471 c 0,43,44
 250 -471 250 -471 198.5 -474 c 128,-1,45
 147 -477 147 -477 90 -489 c 1,46,-1
 95 -401 l 1,47,48
 141 -394 141 -394 166.5 -385.5 c 128,-1,49
 192 -377 192 -377 203.5 -362.5 c 128,-1,50
 215 -348 215 -348 217 -325 c 128,-1,51
 219 -302 219 -302 219 -266 c 2,52,-1
 219 831 l 2,53,54
 219 854 219 854 218 877.5 c 128,-1,55
 217 901 217 901 212 921 c 1,56,57
 176 936 176 936 124 936 c 2,58,-1
 27 936 l 1,59,-1
 27 1032 l 1,60,61
 39 1035 39 1035 64 1038.5 c 128,-1,62
 89 1042 89 1042 122 1045 c 128,-1,63
 155 1048 155 1048 192.5 1050 c 128,-1,64
 230 1052 230 1052 268 1052 c 0,65,66
 316 1052 316 1052 358.5 1047.5 c 128,-1,67
 401 1043 401 1043 428 1032 c 1,68,-1
 430 917 l 1,17,18
EndSplineSet
EndChar

StartChar: q
Encoding: 113 113 87
Width: 1337
GlyphClass: 2
Flags: W
LayerCount: 2
Fore
SplineSet
900 1032 m 1,0,1
 912 1035 912 1035 937 1038.5 c 128,-1,2
 962 1042 962 1042 994.5 1045 c 128,-1,3
 1027 1048 1027 1048 1064.5 1050 c 128,-1,4
 1102 1052 1102 1052 1140 1052 c 0,5,6
 1188 1052 1188 1052 1230.5 1047.5 c 128,-1,7
 1273 1043 1273 1043 1301 1032 c 1,8,-1
 1301 936 l 1,9,-1
 1204 936 l 2,10,11
 1152 936 1152 936 1116 921 c 1,12,13
 1111 901 1111 901 1110 877.5 c 128,-1,14
 1109 854 1109 854 1109 831 c 2,15,-1
 1109 -266 l 2,16,17
 1109 -302 1109 -302 1111 -325 c 128,-1,18
 1113 -348 1113 -348 1124.5 -362.5 c 128,-1,19
 1136 -377 1136 -377 1161 -385.5 c 128,-1,20
 1186 -394 1186 -394 1233 -401 c 1,21,-1
 1238 -489 l 1,22,23
 1181 -477 1181 -477 1129.5 -474 c 128,-1,24
 1078 -471 1078 -471 1021 -471 c 0,25,26
 966 -471 966 -471 904 -474 c 128,-1,27
 842 -477 842 -477 767 -489 c 1,28,-1
 775 -401 l 1,29,30
 820 -394 820 -394 844.5 -383.5 c 128,-1,31
 869 -373 869 -373 880.5 -354 c 128,-1,32
 892 -335 892 -335 894 -306.5 c 128,-1,33
 896 -278 896 -278 896 -235 c 2,34,-1
 896 91 l 1,35,36
 824 37 824 37 744 6.5 c 128,-1,37
 664 -24 664 -24 570 -24 c 0,38,39
 478 -24 478 -24 395 10.5 c 128,-1,40
 312 45 312 45 249.5 114.5 c 128,-1,41
 187 184 187 184 150 289.5 c 128,-1,42
 113 395 113 395 113 537 c 0,43,44
 113 661 113 661 143 759 c 128,-1,45
 173 857 173 857 228.5 924 c 128,-1,46
 284 991 284 991 363 1026.5 c 128,-1,47
 442 1062 442 1062 540 1062 c 0,48,49
 649 1062 649 1062 740 1031.5 c 128,-1,50
 831 1001 831 1001 900 947 c 1,51,-1
 900 1032 l 1,0,1
886 832 m 1,52,53
 847 864 847 864 806 886 c 128,-1,54
 765 908 765 908 724.5 921.5 c 128,-1,55
 684 935 684 935 645.5 940.5 c 128,-1,56
 607 946 607 946 573 946 c 0,57,58
 452 946 452 946 396 840 c 128,-1,59
 340 734 340 734 340 522 c 0,60,61
 340 426 340 426 356.5 348.5 c 128,-1,62
 373 271 373 271 407.5 216 c 128,-1,63
 442 161 442 161 496 131 c 128,-1,64
 550 101 550 101 624 101 c 0,65,66
 713 101 713 101 777.5 133.5 c 128,-1,67
 842 166 842 166 886 212 c 1,68,-1
 886 832 l 1,52,53
EndSplineSet
EndChar

StartChar: r
Encoding: 114 114 88
Width: 994
GlyphClass: 2
Flags: W
LayerCount: 2
Fore
SplineSet
463 791 m 1,0,1
 500 850 500 850 536 900 c 128,-1,2
 572 950 572 950 613.5 986 c 128,-1,3
 655 1022 655 1022 705 1042 c 128,-1,4
 755 1062 755 1062 820 1062 c 0,5,6
 882 1062 882 1062 914 1052 c 128,-1,7
 946 1042 946 1042 963 1032 c 1,8,-1
 938 756 l 1,9,-1
 848 756 l 1,10,-1
 824 902 l 1,11,12
 797 905 797 905 782 907 c 128,-1,13
 767 909 767 909 756 909 c 0,14,15
 709 909 709 909 658.5 880.5 c 128,-1,16
 608 852 608 852 566 804.5 c 128,-1,17
 524 757 524 757 497 695.5 c 128,-1,18
 470 634 470 634 470 568 c 2,19,-1
 470 231 l 2,20,21
 470 189 470 189 472 161.5 c 128,-1,22
 474 134 474 134 485.5 116 c 128,-1,23
 497 98 497 98 521.5 88 c 128,-1,24
 546 78 546 78 591 71 c 1,25,-1
 600 -13 l 1,26,27
 528 -7 528 -7 469 -3.5 c 128,-1,28
 410 0 410 0 353 0 c 0,29,30
 299 0 299 0 244.5 -3 c 128,-1,31
 190 -6 190 -6 129 -13 c 1,32,-1
 133 71 l 1,33,34
 180 77 180 77 205.5 85 c 128,-1,35
 231 93 231 93 242.5 108 c 128,-1,36
 254 123 254 123 256 146 c 128,-1,37
 258 169 258 169 258 205 c 2,38,-1
 258 852 l 2,39,40
 258 870 258 870 256.5 887.5 c 128,-1,41
 255 905 255 905 250 921 c 1,42,43
 236 928 236 928 220 932 c 128,-1,44
 204 936 204 936 181 936 c 2,45,-1
 68 936 l 1,46,-1
 68 1032 l 1,47,48
 80 1035 80 1035 104 1038.5 c 128,-1,49
 128 1042 128 1042 159.5 1045 c 128,-1,50
 191 1048 191 1048 227.5 1050 c 128,-1,51
 264 1052 264 1052 302 1052 c 0,52,53
 350 1052 350 1052 392.5 1047.5 c 128,-1,54
 435 1043 435 1043 463 1032 c 1,55,-1
 463 791 l 1,0,1
EndSplineSet
EndChar

StartChar: s
Encoding: 115 115 89
Width: 1010
GlyphClass: 2
Flags: W
LayerCount: 2
Fore
SplineSet
245 325 m 1,0,1
 250 265 250 265 254 219.5 c 128,-1,2
 258 174 258 174 263 132 c 1,3,4
 308 109 308 109 366.5 98 c 128,-1,5
 425 87 425 87 512 87 c 0,6,7
 566 87 566 87 605 99.5 c 128,-1,8
 644 112 644 112 669 134 c 128,-1,9
 694 156 694 156 706 184 c 128,-1,10
 718 212 718 212 718 244 c 0,11,12
 718 275 718 275 704 300 c 128,-1,13
 690 325 690 325 664.5 346 c 128,-1,14
 639 367 639 367 603 384.5 c 128,-1,15
 567 402 567 402 523 419 c 2,16,-1
 437 452 l 2,17,18
 357 483 357 483 297 511 c 128,-1,19
 237 539 237 539 197 573.5 c 128,-1,20
 157 608 157 608 137 653 c 128,-1,21
 117 698 117 698 117 763 c 0,22,23
 117 831 117 831 146 886.5 c 128,-1,24
 175 942 175 942 230 981 c 128,-1,25
 285 1020 285 1020 365.5 1041 c 128,-1,26
 446 1062 446 1062 548 1062 c 0,27,28
 654 1062 654 1062 732.5 1043.5 c 128,-1,29
 811 1025 811 1025 854 997 c 1,30,31
 854 985 854 985 850 959.5 c 128,-1,32
 846 934 846 934 839.5 900.5 c 128,-1,33
 833 867 833 867 825.5 828 c 128,-1,34
 818 789 818 789 811 750 c 1,35,-1
 711 767 l 1,36,37
 709 812 709 812 707 849 c 128,-1,38
 705 886 705 886 703 911 c 1,39,40
 661 934 661 934 610 940 c 128,-1,41
 559 946 559 946 492 946 c 0,42,43
 395 946 395 946 350 909 c 128,-1,44
 305 872 305 872 305 808 c 0,45,46
 305 770 305 770 321 742 c 128,-1,47
 337 714 337 714 364.5 693 c 128,-1,48
 392 672 392 672 429.5 655.5 c 128,-1,49
 467 639 467 639 510 624 c 2,50,-1
 612 588 l 2,51,52
 691 560 691 560 749 530.5 c 128,-1,53
 807 501 807 501 845 466 c 128,-1,54
 883 431 883 431 901.5 389 c 128,-1,55
 920 347 920 347 920 296 c 0,56,57
 920 215 920 215 888 155 c 128,-1,58
 856 95 856 95 799 55.5 c 128,-1,59
 742 16 742 16 663.5 -4 c 128,-1,60
 585 -24 585 -24 493 -24 c 0,61,62
 433 -24 433 -24 372.5 -15 c 128,-1,63
 312 -6 312 -6 258.5 8.5 c 128,-1,64
 205 23 205 23 161.5 41.5 c 128,-1,65
 118 60 118 60 92 78 c 1,66,-1
 141 338 l 1,67,-1
 245 325 l 1,0,1
EndSplineSet
EndChar

StartChar: t
Encoding: 116 116 90
Width: 894
GlyphClass: 2
Flags: W
LayerCount: 2
Fore
SplineSet
280 1217 m 1,0,1
 282 1238 282 1238 289.5 1262.5 c 128,-1,2
 297 1287 297 1287 305 1307 c 2,3,-1
 323 1355 l 1,4,-1
 455 1355 l 1,5,-1
 455 1032 l 1,6,-1
 777 1032 l 1,7,-1
 777 980 l 2,8,9
 777 957 777 957 773 943.5 c 128,-1,10
 769 930 769 930 760.5 923 c 128,-1,11
 752 916 752 916 738.5 914 c 128,-1,12
 725 912 725 912 706 912 c 2,13,-1
 455 912 l 1,14,-1
 455 319 l 2,15,16
 455 259 455 259 465.5 217 c 128,-1,17
 476 175 476 175 494.5 149 c 128,-1,18
 513 123 513 123 540 111.5 c 128,-1,19
 567 100 567 100 600 100 c 0,20,21
 611 100 611 100 625.5 102.5 c 128,-1,22
 640 105 640 105 653 109 c 0,23,24
 668 113 668 113 683 118 c 1,25,26
 687 151 687 151 691 184 c 0,27,28
 695 213 695 213 698.5 246 c 128,-1,29
 702 279 702 279 706 309 c 1,30,-1
 837 319 l 1,31,-1
 847 48 l 1,32,33
 785 17 785 17 705.5 3 c 128,-1,34
 626 -11 626 -11 538 -11 c 0,35,36
 391 -11 391 -11 316.5 65.5 c 128,-1,37
 242 142 242 142 242 299 c 2,38,-1
 242 912 l 1,39,-1
 39 912 l 1,40,-1
 39 966 l 2,41,42
 39 992 39 992 50.5 1000 c 128,-1,43
 62 1008 62 1008 86 1011 c 2,44,-1
 253 1032 l 1,45,-1
 280 1217 l 1,0,1
EndSplineSet
EndChar

StartChar: u
Encoding: 117 117 91
Width: 1353
GlyphClass: 2
Flags: W
LayerCount: 2
Fore
SplineSet
1128 269 m 2,0,1
 1128 212 1128 212 1133 171.5 c 128,-1,2
 1138 131 1138 131 1145 101 c 1,3,-1
 1306 101 l 1,4,-1
 1306 15 l 1,5,6
 1254 2 1254 2 1188.5 -5.5 c 128,-1,7
 1123 -13 1123 -13 1042 -13 c 0,8,9
 1004 -13 1004 -13 976.5 -10.5 c 128,-1,10
 949 -8 949 -8 932 1.5 c 128,-1,11
 915 11 915 11 907 30 c 128,-1,12
 899 49 899 49 899 81 c 2,13,-1
 899 115 l 1,14,-1
 884 104 l 2,15,16
 853 81 853 81 819 58.5 c 128,-1,17
 785 36 785 36 741.5 17.5 c 128,-1,18
 698 -1 698 -1 643 -12.5 c 128,-1,19
 588 -24 588 -24 516 -24 c 0,20,21
 364 -24 364 -24 294 58 c 128,-1,22
 224 140 224 140 224 299 c 2,23,-1
 224 829 l 2,24,25
 224 858 224 858 221 881.5 c 128,-1,26
 218 905 218 905 213 925 c 1,27,28
 195 931 195 931 174 933.5 c 128,-1,29
 153 936 153 936 130 936 c 2,30,-1
 47 936 l 1,31,-1
 47 1032 l 1,32,33
 60 1035 60 1035 86 1038.5 c 128,-1,34
 112 1042 112 1042 146.5 1045 c 128,-1,35
 181 1048 181 1048 221.5 1050 c 128,-1,36
 262 1052 262 1052 304 1052 c 0,37,38
 342 1052 342 1052 377 1047.5 c 128,-1,39
 412 1043 412 1043 436 1032 c 1,40,-1
 436 352 l 2,41,42
 436 300 436 300 439.5 254.5 c 128,-1,43
 443 209 443 209 460 175 c 128,-1,44
 477 141 477 141 513.5 121 c 128,-1,45
 550 101 550 101 616 101 c 0,46,47
 666 101 666 101 716 116.5 c 128,-1,48
 766 132 766 132 806.5 150.5 c 128,-1,49
 847 169 847 169 872.5 185.5 c 128,-1,50
 898 202 898 202 899 205 c 0,51,52
 910 272 910 272 913 356 c 128,-1,53
 916 440 916 440 916 531 c 2,54,-1
 916 829 l 2,55,56
 916 886 916 886 904 925 c 1,57,58
 887 931 887 931 866 933.5 c 128,-1,59
 845 936 845 936 822 936 c 2,60,-1
 739 936 l 1,61,-1
 739 1032 l 1,62,63
 752 1035 752 1035 778 1038.5 c 128,-1,64
 804 1042 804 1042 838.5 1045 c 128,-1,65
 873 1048 873 1048 913.5 1050 c 128,-1,66
 954 1052 954 1052 996 1052 c 0,67,68
 1034 1052 1034 1052 1069.5 1047.5 c 128,-1,69
 1105 1043 1105 1043 1128 1032 c 1,70,-1
 1128 269 l 2,0,1
EndSplineSet
EndChar

StartChar: v
Encoding: 118 118 92
Width: 1319
GlyphClass: 2
Flags: W
LayerCount: 2
Fore
SplineSet
966 835 m 2,0,1
 975 858 975 858 981 879.5 c 128,-1,2
 987 901 987 901 993 921 c 1,3,4
 979 929 979 929 960.5 932.5 c 128,-1,5
 942 936 942 936 914 936 c 2,6,-1
 859 936 l 1,7,-1
 870 1032 l 1,8,9
 909 1043 909 1043 965.5 1047.5 c 128,-1,10
 1022 1052 1022 1052 1094 1052 c 0,11,12
 1167 1052 1167 1052 1224 1047.5 c 128,-1,13
 1281 1043 1281 1043 1313 1032 c 1,14,-1
 1313 936 l 1,15,-1
 1259 936 l 2,16,17
 1209 936 1209 936 1167 921 c 1,18,19
 1153 902 1153 902 1129 851 c 128,-1,20
 1105 800 1105 800 1075 731 c 128,-1,21
 1045 662 1045 662 1012 581.5 c 128,-1,22
 979 501 979 501 947 423.5 c 128,-1,23
 915 346 915 346 886.5 278 c 128,-1,24
 858 210 858 210 838 166 c 2,25,-1
 759 -8 l 1,26,-1
 647 -8 l 2,27,28
 631 -8 631 -8 619.5 -7.5 c 128,-1,29
 608 -7 608 -7 598 -4.5 c 128,-1,30
 588 -2 588 -2 579.5 3.5 c 128,-1,31
 571 9 571 9 562 20 c 1,32,-1
 218 835 l 2,33,34
 208 858 208 858 196.5 879.5 c 128,-1,35
 185 901 185 901 171 921 c 1,36,37
 150 929 150 929 128 932.5 c 128,-1,38
 106 936 106 936 79 936 c 2,39,-1
 24 936 l 1,40,-1
 8 1032 l 1,41,42
 43 1043 43 1043 103 1047.5 c 128,-1,43
 163 1052 163 1052 244 1052 c 0,44,45
 335 1052 335 1052 410.5 1047.5 c 128,-1,46
 486 1043 486 1043 535 1032 c 1,47,-1
 552 936 l 1,48,-1
 497 936 l 2,49,50
 445 936 445 936 417 921 c 1,51,52
 421 901 421 901 430.5 879.5 c 128,-1,53
 440 858 440 858 448 835 c 0,54,55
 525 620 525 620 590 453.5 c 128,-1,56
 655 287 655 287 710 157 c 1,57,-1
 966 835 l 2,0,1
EndSplineSet
EndChar

StartChar: w
Encoding: 119 119 93
Width: 1906
GlyphClass: 2
Flags: W
LayerCount: 2
Fore
SplineSet
1556 835 m 2,0,1
 1563 858 1563 858 1565.5 879.5 c 128,-1,2
 1568 901 1568 901 1577 921 c 1,3,4
 1563 929 1563 929 1547 932.5 c 128,-1,5
 1531 936 1531 936 1504 936 c 2,6,-1
 1449 936 l 1,7,-1
 1460 1032 l 1,8,9
 1499 1043 1499 1043 1555 1047.5 c 128,-1,10
 1611 1052 1611 1052 1683 1052 c 0,11,12
 1756 1052 1756 1052 1813.5 1047.5 c 128,-1,13
 1871 1043 1871 1043 1903 1032 c 1,14,-1
 1903 936 l 1,15,-1
 1849 936 l 2,16,17
 1797 936 1797 936 1757 921 c 1,18,19
 1721 822 1721 822 1685.5 722.5 c 128,-1,20
 1650 623 1650 623 1616 529.5 c 128,-1,21
 1582 436 1582 436 1551.5 351 c 128,-1,22
 1521 266 1521 266 1496 195.5 c 128,-1,23
 1471 125 1471 125 1452 72.5 c 128,-1,24
 1433 20 1433 20 1423 -8 c 1,25,-1
 1308 -8 l 2,26,27
 1275 -8 1275 -8 1255 -3 c 128,-1,28
 1235 2 1235 2 1222 13.5 c 128,-1,29
 1209 25 1209 25 1201.5 42 c 128,-1,30
 1194 59 1194 59 1186 83 c 2,31,-1
 974 710 l 1,32,33
 947 630 947 630 914.5 535.5 c 128,-1,34
 882 441 882 441 847.5 345 c 128,-1,35
 813 249 813 249 780 158 c 128,-1,36
 747 67 747 67 719 -8 c 1,37,-1
 604 -8 l 2,38,39
 545 -8 545 -8 523 4.5 c 128,-1,40
 501 17 501 17 496 35 c 1,41,-1
 210 835 l 2,42,43
 202 858 202 858 189.5 879.5 c 128,-1,44
 177 901 177 901 163 921 c 1,45,46
 124 936 124 936 72 936 c 2,47,-1
 18 936 l 1,48,-1
 2 1032 l 1,49,50
 35 1043 35 1043 92 1047.5 c 128,-1,51
 149 1052 149 1052 227 1052 c 0,52,53
 318 1052 318 1052 393.5 1047.5 c 128,-1,54
 469 1043 469 1043 518 1032 c 1,55,-1
 535 936 l 1,56,-1
 480 936 l 2,57,58
 427 936 427 936 402 921 c 1,59,-1
 657 146 l 1,60,-1
 767 489 l 2,61,62
 789 558 789 558 812.5 631 c 128,-1,63
 836 704 836 704 858 772.5 c 128,-1,64
 880 841 880 841 899.5 900.5 c 128,-1,65
 919 960 919 960 933 1004 c 1,66,-1
 988 1004 l 2,67,68
 1030 1004 1030 1004 1055 998.5 c 128,-1,69
 1080 993 1080 993 1088 969 c 2,70,-1
 1360 133 l 1,71,-1
 1556 835 l 2,0,1
EndSplineSet
EndChar

StartChar: x
Encoding: 120 120 94
Width: 1241
GlyphClass: 2
Flags: W
LayerCount: 2
Fore
SplineSet
987 222 m 2,0,1
 1011 186 1011 186 1029 162 c 128,-1,2
 1047 138 1047 138 1067.5 122 c 128,-1,3
 1088 106 1088 106 1114 96.5 c 128,-1,4
 1140 87 1140 87 1181 81 c 1,5,-1
 1221 -13 l 1,6,7
 1204 -10 1204 -10 1176 -7.5 c 128,-1,8
 1148 -5 1148 -5 1113.5 -3.5 c 128,-1,9
 1079 -2 1079 -2 1039.5 -1 c 128,-1,10
 1000 0 1000 0 960 0 c 0,11,12
 890 0 890 0 828 -3 c 128,-1,13
 766 -6 766 -6 732 -13 c 1,14,-1
 723 71 l 1,15,16
 769 77 769 77 789 86 c 128,-1,17
 809 95 809 95 809 112 c 0,18,19
 809 126 809 126 792.5 152.5 c 128,-1,20
 776 179 776 179 747 221 c 2,21,-1
 598 434 l 1,22,-1
 459 242 l 2,23,24
 424 194 424 194 405 164 c 128,-1,25
 386 134 386 134 386 115 c 0,26,27
 386 98 386 98 403.5 88 c 128,-1,28
 421 78 421 78 460 71 c 1,29,-1
 426 -13 l 1,30,31
 400 -6 400 -6 346.5 -3 c 128,-1,32
 293 0 293 0 231 0 c 0,33,34
 198 0 198 0 164.5 -1 c 128,-1,35
 131 -2 131 -2 102 -3.5 c 128,-1,36
 73 -5 73 -5 49 -7.5 c 128,-1,37
 25 -10 25 -10 10 -13 c 1,38,-1
 46 71 l 1,39,40
 102 77 102 77 134.5 86.5 c 128,-1,41
 167 96 167 96 190 113 c 128,-1,42
 213 130 213 130 233.5 156 c 128,-1,43
 254 182 254 182 286 221 c 2,44,-1
 528 515 l 1,45,-1
 295 835 l 2,46,47
 278 858 278 858 258 879 c 128,-1,48
 238 900 238 900 216 921 c 1,49,50
 171 936 171 936 119 936 c 2,51,-1
 86 936 l 1,52,-1
 59 1032 l 1,53,54
 92 1043 92 1043 154 1047.5 c 128,-1,55
 216 1052 216 1052 304 1052 c 256,56,57
 392 1052 392 1052 468.5 1047.5 c 128,-1,58
 545 1043 545 1043 596 1032 c 1,59,-1
 613 936 l 1,60,-1
 557 936 l 2,61,62
 506 936 506 936 484 921 c 1,63,64
 496 901 496 901 513 880 c 128,-1,65
 530 859 530 859 547 835 c 2,66,-1
 687 642 l 1,67,68
 732 699 732 699 784.5 773.5 c 128,-1,69
 837 848 837 848 887 921 c 1,70,71
 875 929 875 929 861 932.5 c 128,-1,72
 847 936 847 936 819 936 c 2,73,-1
 764 936 l 1,74,-1
 788 1032 l 1,75,76
 833 1043 833 1043 895 1047.5 c 128,-1,77
 957 1052 957 1052 1032 1052 c 0,78,79
 1101 1052 1101 1052 1153 1047.5 c 128,-1,80
 1205 1043 1205 1043 1231 1032 c 1,81,-1
 1197 936 l 1,82,-1
 1154 936 l 2,83,84
 1103 936 1103 936 1057 921 c 1,85,-1
 934 771 l 2,86,87
 909 741 909 741 883 710 c 128,-1,88
 857 679 857 679 833 650.5 c 128,-1,89
 809 622 809 622 788 598 c 128,-1,90
 767 574 767 574 753 559 c 1,91,-1
 987 222 l 2,0,1
EndSplineSet
EndChar

StartChar: y
Encoding: 121 121 95
Width: 1317
GlyphClass: 2
Flags: W
LayerCount: 2
Fore
SplineSet
970 835 m 1,0,1
 977 858 977 858 984 879.5 c 128,-1,2
 991 901 991 901 996 921 c 1,3,4
 982 929 982 929 963.5 932.5 c 128,-1,5
 945 936 945 936 918 936 c 2,6,-1
 862 936 l 1,7,-1
 874 1032 l 1,8,9
 913 1043 913 1043 969 1047.5 c 128,-1,10
 1025 1052 1025 1052 1097 1052 c 0,11,12
 1170 1052 1170 1052 1227.5 1047.5 c 128,-1,13
 1285 1043 1285 1043 1317 1032 c 1,14,-1
 1317 936 l 1,15,-1
 1263 936 l 2,16,17
 1235 936 1235 936 1213 932.5 c 128,-1,18
 1191 929 1191 929 1171 921 c 1,19,20
 1169 919 1169 919 1165.5 913 c 128,-1,21
 1162 907 1162 907 1154 889.5 c 128,-1,22
 1146 872 1146 872 1132.5 841.5 c 128,-1,23
 1119 811 1119 811 1097 761 c 2,24,-1
 682 -196 l 2,25,26
 644 -283 644 -283 601.5 -339.5 c 128,-1,27
 559 -396 559 -396 510.5 -429 c 128,-1,28
 462 -462 462 -462 405.5 -475 c 128,-1,29
 349 -488 349 -488 285 -488 c 0,30,31
 258 -488 258 -488 232.5 -485.5 c 128,-1,32
 207 -483 207 -483 186 -479.5 c 128,-1,33
 165 -476 165 -476 150.5 -471 c 128,-1,34
 136 -466 136 -466 130 -460 c 1,35,-1
 152 -321 l 1,36,37
 190 -335 190 -335 232 -342 c 128,-1,38
 274 -349 274 -349 304 -349 c 0,39,40
 349 -349 349 -349 383 -340 c 128,-1,41
 417 -331 417 -331 448.5 -299.5 c 128,-1,42
 480 -268 480 -268 513 -208.5 c 128,-1,43
 546 -149 546 -149 590 -47 c 1,44,-1
 217 834 l 2,45,46
 207 857 207 857 196 878.5 c 128,-1,47
 185 900 185 900 170 920 c 1,48,49
 131 935 131 935 79 935 c 2,50,-1
 25 935 l 1,51,-1
 8 1031 l 1,52,53
 43 1042 43 1042 104 1047 c 128,-1,54
 165 1052 165 1052 244 1052 c 0,55,56
 335 1052 335 1052 411 1047 c 128,-1,57
 487 1042 487 1042 536 1031 c 1,58,-1
 551 935 l 1,59,-1
 496 935 l 2,60,61
 470 935 470 935 447.5 931.5 c 128,-1,62
 425 928 425 928 411 920 c 1,63,64
 412 915 412 915 425.5 880 c 128,-1,65
 439 845 439 845 460 791.5 c 128,-1,66
 481 738 481 738 507.5 671.5 c 128,-1,67
 534 605 534 605 561 536 c 2,68,-1
 706 171 l 1,69,-1
 970 835 l 1,0,1
EndSplineSet
EndChar

StartChar: z
Encoding: 122 122 96
Width: 1095
GlyphClass: 2
Flags: W
LayerCount: 2
Fore
SplineSet
698 105 m 2,0,1
 738 105 738 105 773 108.5 c 128,-1,2
 808 112 808 112 834 127 c 1,3,-1
 876 279 l 1,4,5
 900 281 900 281 924 282 c 128,-1,6
 948 283 948 283 972 283 c 1,7,-1
 978 115 l 2,8,9
 979 101 979 101 979 89.5 c 128,-1,10
 979 78 979 78 980 70 c 1,11,-1
 980 -10 l 1,12,13
 948 -6 948 -6 903.5 -4 c 128,-1,14
 859 -2 859 -2 808.5 -1 c 128,-1,15
 758 0 758 0 707 0 c 128,-1,16
 656 0 656 0 611 0 c 2,17,-1
 133 0 l 2,18,19
 121 0 121 0 112.5 2 c 128,-1,20
 104 4 104 4 98 12.5 c 128,-1,21
 92 21 92 21 89 37 c 128,-1,22
 86 53 86 53 86 81 c 2,23,-1
 86 140 l 1,24,-1
 756 927 l 1,25,-1
 390 927 l 2,26,27
 350 927 350 927 315 923.5 c 128,-1,28
 280 920 280 920 254 905 c 1,29,-1
 212 753 l 1,30,31
 188 751 188 751 164 750 c 128,-1,32
 140 749 140 749 116 749 c 1,33,34
 111 829 111 829 109.5 874.5 c 128,-1,35
 108 920 108 920 108 944 c 2,36,-1
 108 1037 l 1,37,38
 135 1037 135 1037 172 1036 c 128,-1,39
 209 1035 209 1035 249.5 1034.5 c 128,-1,40
 290 1034 290 1034 331 1033 c 128,-1,41
 372 1032 372 1032 405 1032 c 2,42,-1
 865 1032 l 1,43,44
 885 1031 885 1031 901 1029 c 128,-1,45
 917 1027 917 1027 928.5 1019.5 c 128,-1,46
 940 1012 940 1012 946 997 c 128,-1,47
 952 982 952 982 952 955 c 2,48,-1
 952 877 l 1,49,-1
 295 105 l 1,50,-1
 698 105 l 2,0,1
EndSplineSet
EndChar

StartChar: braceleft
Encoding: 123 123 97
Width: 702
GlyphClass: 2
Flags: W
LayerCount: 2
Fore
SplineSet
393 910 m 2,0,1
 393 813 393 813 360 750 c 128,-1,2
 327 687 327 687 258 665 c 1,3,4
 324 644 324 644 360 584.5 c 128,-1,5
 396 525 396 525 396 422 c 2,6,-1
 396 16 l 2,7,8
 396 -29 396 -29 402 -56.5 c 128,-1,9
 408 -84 408 -84 420 -100.5 c 128,-1,10
 432 -117 432 -117 448.5 -125.5 c 128,-1,11
 465 -134 465 -134 486 -141 c 0,12,13
 510 -149 510 -149 538.5 -153.5 c 128,-1,14
 567 -158 567 -158 599 -161 c 1,15,-1
 599 -177 l 2,16,17
 599 -209 599 -209 587 -222 c 1,18,19
 569 -227 569 -227 547 -229.5 c 128,-1,20
 525 -232 525 -232 500 -232 c 0,21,22
 438 -232 438 -232 388.5 -221.5 c 128,-1,23
 339 -211 339 -211 304 -183 c 128,-1,24
 269 -155 269 -155 250.5 -106.5 c 128,-1,25
 232 -58 232 -58 232 17 c 2,26,-1
 232 437 l 2,27,28
 232 521 232 521 202 570.5 c 128,-1,29
 172 620 172 620 102 646 c 1,30,31
 101 660 101 660 101.5 676 c 128,-1,32
 102 692 102 692 100 703 c 1,33,34
 135 720 135 720 160 738.5 c 128,-1,35
 185 757 185 757 201 779.5 c 128,-1,36
 217 802 217 802 224.5 830 c 128,-1,37
 232 858 232 858 232 896 c 2,38,-1
 232 1323 l 2,39,40
 232 1397 232 1397 251.5 1444 c 128,-1,41
 271 1491 271 1491 307 1517.5 c 128,-1,42
 343 1544 343 1544 394.5 1554 c 128,-1,43
 446 1564 446 1564 510 1564 c 0,44,45
 527 1564 527 1564 543 1562.5 c 128,-1,46
 559 1561 559 1561 571.5 1555 c 128,-1,47
 584 1549 584 1549 591.5 1538.5 c 128,-1,48
 599 1528 599 1528 599 1510 c 2,49,-1
 599 1494 l 1,50,51
 530 1490 530 1490 489 1479.5 c 128,-1,52
 448 1469 448 1469 427 1449 c 128,-1,53
 406 1429 406 1429 399.5 1397 c 128,-1,54
 393 1365 393 1365 393 1317 c 2,55,-1
 393 910 l 2,0,1
EndSplineSet
EndChar

StartChar: bar
Encoding: 124 124 98
Width: 1168
GlyphClass: 2
Flags: W
LayerCount: 2
Fore
SplineSet
656 -248 m 1,0,-1
 586 -248 l 2,1,2
 564 -248 564 -248 548 -245 c 128,-1,3
 532 -242 532 -242 519 -237 c 1,4,5
 514 -197 514 -197 512 -154.5 c 128,-1,6
 510 -112 510 -112 510 -66 c 2,7,-1
 510 1595 l 1,8,-1
 580 1595 l 2,9,10
 613 1595 613 1595 630.5 1584 c 128,-1,11
 648 1573 648 1573 656 1548 c 1,12,-1
 656 -248 l 1,0,-1
EndSplineSet
EndChar

StartChar: braceright
Encoding: 125 125 99
Width: 701
GlyphClass: 2
Flags: W
LayerCount: 2
Fore
SplineSet
191 1564 m 0,0,1
 265 1564 265 1564 317 1552 c 128,-1,2
 369 1540 369 1540 402 1510 c 128,-1,3
 435 1480 435 1480 450 1428 c 128,-1,4
 465 1376 465 1376 465 1295 c 2,5,-1
 465 922 l 2,6,7
 465 886 465 886 470 858 c 128,-1,8
 475 830 475 830 489.5 807.5 c 128,-1,9
 504 785 504 785 530 766.5 c 128,-1,10
 556 748 556 748 598 732 c 1,11,-1
 598 646 l 1,12,13
 554 631 554 631 527.5 607 c 128,-1,14
 501 583 501 583 487 549.5 c 128,-1,15
 473 516 473 516 469 471.5 c 128,-1,16
 465 427 465 427 465 370 c 2,17,-1
 465 17 l 2,18,19
 465 -61 465 -61 446 -110 c 128,-1,20
 427 -159 427 -159 391 -186 c 128,-1,21
 355 -213 355 -213 304.5 -222.5 c 128,-1,22
 254 -232 254 -232 191 -232 c 0,23,24
 173 -232 173 -232 157 -230.5 c 128,-1,25
 141 -229 141 -229 129 -223 c 128,-1,26
 117 -217 117 -217 109.5 -206 c 128,-1,27
 102 -195 102 -195 102 -177 c 2,28,-1
 102 -161 l 1,29,30
 168 -157 168 -157 208.5 -147.5 c 128,-1,31
 249 -138 249 -138 270.5 -118.5 c 128,-1,32
 292 -99 292 -99 299.5 -66.5 c 128,-1,33
 307 -34 307 -34 307 16 c 2,34,-1
 307 358 l 2,35,36
 307 416 307 416 312 466 c 128,-1,37
 317 516 317 516 331.5 555.5 c 128,-1,38
 346 595 346 595 372.5 623 c 128,-1,39
 399 651 399 651 443 665 c 1,40,41
 402 676 402 676 375.5 701.5 c 128,-1,42
 349 727 349 727 334 762 c 128,-1,43
 319 797 319 797 313 838.5 c 128,-1,44
 307 880 307 880 307 924 c 2,45,-1
 307 1293 l 2,46,47
 307 1360 307 1360 296.5 1398.5 c 128,-1,48
 286 1437 286 1437 262 1456.5 c 128,-1,49
 238 1476 238 1476 199 1483 c 128,-1,50
 160 1490 160 1490 102 1494 c 1,51,-1
 102 1510 l 2,52,53
 102 1528 102 1528 109.5 1538.5 c 128,-1,54
 117 1549 117 1549 129 1555 c 128,-1,55
 141 1561 141 1561 157 1562.5 c 128,-1,56
 173 1564 173 1564 191 1564 c 0,0,1
EndSplineSet
EndChar

StartChar: asciitilde
Encoding: 126 126 100
Width: 1205
GlyphClass: 2
Flags: W
LayerCount: 2
Fore
SplineSet
1026 645 m 1,0,1
 1049 615 1049 615 1065.5 589.5 c 128,-1,2
 1082 564 1082 564 1090 543 c 1,3,4
 1078 505 1078 505 1052.5 477.5 c 128,-1,5
 1027 450 1027 450 993.5 431 c 128,-1,6
 960 412 960 412 922 403 c 128,-1,7
 884 394 884 394 847 394 c 0,8,9
 804 394 804 394 762 404 c 128,-1,10
 720 414 720 414 680 429 c 128,-1,11
 640 444 640 444 601 462 c 128,-1,12
 562 480 562 480 523.5 495 c 128,-1,13
 485 510 485 510 448 520 c 128,-1,14
 411 530 411 530 374 530 c 0,15,16
 316 530 316 530 270 492.5 c 128,-1,17
 224 455 224 455 189 398 c 1,18,19
 160 429 160 429 140.5 453 c 128,-1,20
 121 477 121 477 113 495 c 1,21,22
 123 535 123 535 152.5 568 c 128,-1,23
 182 601 182 601 219.5 623.5 c 128,-1,24
 257 646 257 646 297.5 658.5 c 128,-1,25
 338 671 338 671 370 671 c 0,26,27
 405 671 405 671 444 661 c 128,-1,28
 483 651 483 651 523.5 636.5 c 128,-1,29
 564 622 564 622 604.5 604.5 c 128,-1,30
 645 587 645 587 683.5 572.5 c 128,-1,31
 722 558 722 558 757.5 548 c 128,-1,32
 793 538 793 538 823 538 c 0,33,34
 864 538 864 538 897 548.5 c 128,-1,35
 930 559 930 559 955.5 575 c 128,-1,36
 981 591 981 591 998.5 609.5 c 128,-1,37
 1016 628 1016 628 1026 645 c 1,0,1
EndSplineSet
EndChar

StartChar: cent
Encoding: 162 162 103
Width: 1206
GlyphClass: 2
Flags: W
LayerCount: 2
Fore
SplineSet
601 1064 m 1,0,1
 500 1024 500 1024 441 917.5 c 128,-1,2
 382 811 382 811 382 636 c 0,3,4
 382 554 382 554 398 488.5 c 128,-1,5
 414 423 414 423 442.5 373 c 128,-1,6
 471 323 471 323 511.5 288.5 c 128,-1,7
 552 254 552 254 601 235 c 1,8,-1
 601 1064 l 1,0,1
1077 312 m 1,9,10
 1056 256 1056 256 1019 216 c 128,-1,11
 982 176 982 176 934 149.5 c 128,-1,12
 886 123 886 123 829.5 108.5 c 128,-1,13
 773 94 773 94 713 90 c 1,14,-1
 713 -76 l 1,15,-1
 668 -76 l 2,16,17
 643 -76 643 -76 629.5 -71.5 c 128,-1,18
 616 -67 616 -67 609.5 -57.5 c 128,-1,19
 603 -48 603 -48 602 -33 c 128,-1,20
 601 -18 601 -18 601 2 c 2,21,-1
 601 92 l 1,22,23
 499 103 499 103 417.5 142.5 c 128,-1,24
 336 182 336 182 279.5 247 c 128,-1,25
 223 312 223 312 192.5 401.5 c 128,-1,26
 162 491 162 491 162 602 c 0,27,28
 162 721 162 721 194.5 816.5 c 128,-1,29
 227 912 227 912 285 983 c 128,-1,30
 343 1054 343 1054 423.5 1100.5 c 128,-1,31
 504 1147 504 1147 601 1168 c 1,32,-1
 601 1347 l 1,33,-1
 645 1347 l 2,34,35
 668 1347 668 1347 681.5 1343 c 128,-1,36
 695 1339 695 1339 702 1330.5 c 128,-1,37
 709 1322 709 1322 711 1308 c 128,-1,38
 713 1294 713 1294 713 1274 c 2,39,-1
 713 1184 l 1,40,41
 727 1186 727 1186 739 1186.5 c 128,-1,42
 751 1187 751 1187 762 1187 c 0,43,44
 772 1187 772 1187 796 1186 c 128,-1,45
 820 1185 820 1185 851 1182 c 128,-1,46
 882 1179 882 1179 916 1173.5 c 128,-1,47
 950 1168 950 1168 981 1159 c 128,-1,48
 1012 1150 1012 1150 1036.5 1137.5 c 128,-1,49
 1061 1125 1061 1125 1072 1108 c 1,50,51
 1072 1086 1072 1086 1069 1061 c 1,52,-1
 1020 885 l 1,53,-1
 920 906 l 1,54,55
 885 984 885 984 836.5 1024 c 128,-1,56
 788 1064 788 1064 713 1072 c 1,57,-1
 713 213 l 1,58,59
 801 213 801 213 870 247 c 128,-1,60
 939 281 939 281 999 350 c 1,61,-1
 1077 312 l 1,9,10
EndSplineSet
EndChar

StartChar: sterling
Encoding: 163 163 104
Width: 1218
GlyphClass: 2
Flags: W
LayerCount: 2
Fore
SplineSet
356 375 m 0,0,1
 356 450 356 450 352 530 c 128,-1,2
 348 610 348 610 340 698 c 1,3,-1
 131 698 l 1,4,-1
 131 748 l 2,5,6
 131 769 131 769 134 780.5 c 128,-1,7
 137 792 137 792 144.5 797.5 c 128,-1,8
 152 803 152 803 163.5 804 c 128,-1,9
 175 805 175 805 192 805 c 2,10,-1
 325 805 l 1,11,12
 313 877 313 877 303.5 950.5 c 128,-1,13
 294 1024 294 1024 294 1093 c 0,14,15
 294 1170 294 1170 314 1228 c 128,-1,16
 334 1286 334 1286 367.5 1328 c 128,-1,17
 401 1370 401 1370 445.5 1397 c 128,-1,18
 490 1424 490 1424 539.5 1440 c 128,-1,19
 589 1456 589 1456 640 1462 c 128,-1,20
 691 1468 691 1468 738 1468 c 0,21,22
 783 1468 783 1468 841.5 1463.5 c 128,-1,23
 900 1459 900 1459 956.5 1448 c 128,-1,24
 1013 1437 1013 1437 1059.5 1419.5 c 128,-1,25
 1106 1402 1106 1402 1126 1375 c 1,26,27
 1127 1321 1127 1321 1127.5 1264.5 c 128,-1,28
 1128 1208 1128 1208 1131 1151 c 1,29,-1
 1008 1130 l 1,30,31
 993 1185 993 1185 970 1225 c 128,-1,32
 947 1265 947 1265 913.5 1290.5 c 128,-1,33
 880 1316 880 1316 834 1328.5 c 128,-1,34
 788 1341 788 1341 728 1341 c 0,35,36
 616 1341 616 1341 560.5 1271.5 c 128,-1,37
 505 1202 505 1202 505 1078 c 0,38,39
 505 1048 505 1048 506.5 1016.5 c 128,-1,40
 508 985 508 985 512 955 c 2,41,-1
 530 805 l 1,42,-1
 867 805 l 1,43,-1
 867 756 l 2,44,45
 867 734 867 734 862.5 722.5 c 128,-1,46
 858 711 858 711 850 705.5 c 128,-1,47
 842 700 842 700 830 699 c 128,-1,48
 818 698 818 698 802 698 c 2,49,-1
 543 698 l 1,50,51
 547 650 547 650 549 609 c 128,-1,52
 551 568 551 568 551 529 c 0,53,54
 551 417 551 417 522 317.5 c 128,-1,55
 493 218 493 218 430 118 c 1,56,-1
 702 118 l 2,57,58
 779 118 779 118 834.5 121.5 c 128,-1,59
 890 125 890 125 933 145 c 128,-1,60
 976 165 976 165 1010 208.5 c 128,-1,61
 1044 252 1044 252 1079 333 c 1,62,-1
 1158 299 l 1,63,64
 1158 218 1158 218 1151.5 147 c 128,-1,65
 1145 76 1145 76 1132 10 c 1,66,67
 1069 1 1069 1 962.5 -3 c 128,-1,68
 856 -7 856 -7 699 -7 c 0,69,70
 630 -7 630 -7 552 -6.5 c 128,-1,71
 474 -6 474 -6 399 -5 c 128,-1,72
 324 -4 324 -4 258.5 -2.5 c 128,-1,73
 193 -1 193 -1 150 0 c 1,74,75
 118 14 118 14 109 35.5 c 128,-1,76
 100 57 100 57 100 92 c 1,77,78
 167 113 167 113 215.5 138 c 128,-1,79
 264 163 264 163 295.5 196 c 128,-1,80
 327 229 327 229 341.5 272.5 c 128,-1,81
 356 316 356 316 356 375 c 0,0,1
EndSplineSet
EndChar

StartChar: currency
Encoding: 164 164 105
Width: 1251
GlyphClass: 2
Flags: W
LayerCount: 2
Fore
SplineSet
989 1002 m 1,0,1
 1079 885 1079 885 1079 730 c 0,2,3
 1079 574 1079 574 988 462 c 1,4,-1
 1118 330 l 1,5,-1
 1110 322 l 2,6,7
 1090 302 1090 302 1067.5 281.5 c 128,-1,8
 1045 261 1045 261 1024 252 c 1,9,10
 1011 257 1011 257 995 270.5 c 128,-1,11
 979 284 979 284 962 301 c 128,-1,12
 945 318 945 318 928.5 336 c 128,-1,13
 912 354 912 354 897 369 c 1,14,15
 839 327 839 327 769 303 c 128,-1,16
 699 279 699 279 624 279 c 256,17,18
 549 279 549 279 481.5 302.5 c 128,-1,19
 414 326 414 326 357 369 c 1,20,-1
 226 240 l 1,21,22
 204 261 204 261 180.5 284.5 c 128,-1,23
 157 308 157 308 146 328 c 1,24,25
 159 356 159 356 184 381 c 2,26,-1
 266 462 l 1,27,28
 176 576 176 576 176 731 c 256,29,30
 176 886 176 886 266 1000 c 1,31,-1
 133 1131 l 1,32,33
 156 1152 156 1152 179.5 1176 c 128,-1,34
 203 1200 203 1200 226 1210 c 1,35,36
 238 1203 238 1203 250.5 1194.5 c 128,-1,37
 263 1186 263 1186 276 1173 c 2,38,-1
 356 1093 l 1,39,40
 478 1184 478 1184 625 1184 c 0,41,42
 698 1184 698 1184 766 1160.5 c 128,-1,43
 834 1137 834 1137 895 1092 c 1,44,-1
 1027 1224 l 1,45,-1
 1036 1215 l 2,46,47
 1060 1192 1060 1192 1078.5 1169.5 c 128,-1,48
 1097 1147 1097 1147 1097 1121 c 0,49,50
 1097 1110 1097 1110 1096 1108 c 2,51,-1
 989 1002 l 1,0,1
308 731 m 0,52,53
 308 660 308 660 333 601 c 128,-1,54
 358 542 358 542 401.5 499 c 128,-1,55
 445 456 445 456 503 432 c 128,-1,56
 561 408 561 408 627 408 c 0,57,58
 695 408 695 408 753.5 433 c 128,-1,59
 812 458 812 458 855 501.5 c 128,-1,60
 898 545 898 545 922.5 604 c 128,-1,61
 947 663 947 663 947 731 c 0,62,63
 947 800 947 800 922.5 859 c 128,-1,64
 898 918 898 918 855 961.5 c 128,-1,65
 812 1005 812 1005 753.5 1030 c 128,-1,66
 695 1055 695 1055 627 1055 c 256,67,68
 559 1055 559 1055 501 1030.5 c 128,-1,69
 443 1006 443 1006 400 962.5 c 128,-1,70
 357 919 357 919 332.5 859.5 c 128,-1,71
 308 800 308 800 308 731 c 0,52,53
EndSplineSet
EndChar

StartChar: yen
Encoding: 165 165 106
Width: 1624
GlyphClass: 2
Flags: W
LayerCount: 2
Fore
SplineSet
1145 1228 m 0,0,1
 1156 1255 1156 1255 1164 1276.5 c 128,-1,2
 1172 1298 1172 1298 1176 1317 c 1,3,4
 1157 1325 1157 1325 1132.5 1326.5 c 128,-1,5
 1108 1328 1108 1328 1078 1328 c 2,6,-1
 1008 1328 l 1,7,-1
 1029 1430 l 1,8,9
 1096 1438 1096 1438 1166 1440.5 c 128,-1,10
 1236 1443 1236 1443 1321 1443 c 0,11,12
 1412 1443 1412 1443 1487 1441 c 128,-1,13
 1562 1439 1562 1439 1614 1428 c 1,14,-1
 1574 1328 l 1,15,-1
 1492 1328 l 2,16,17
 1463 1328 1463 1328 1436.5 1326.5 c 128,-1,18
 1410 1325 1410 1325 1384 1317 c 1,19,20
 1367 1294 1367 1294 1348.5 1265 c 128,-1,21
 1330 1236 1330 1236 1310 1197 c 2,22,23
 1310 1197 1310 1197 1291 1161 c 128,-1,24
 1272 1125 1272 1125 1239.5 1067.5 c 128,-1,25
 1207 1010 1207 1010 1165 937 c 128,-1,26
 1123 864 1123 864 1077 789 c 2,27,-1
 960 598 l 1,28,-1
 1186 598 l 1,29,-1
 1186 557 l 2,30,31
 1186 534 1186 534 1182 522 c 128,-1,32
 1178 510 1178 510 1170 504.5 c 128,-1,33
 1162 499 1162 499 1149.5 498 c 128,-1,34
 1137 497 1137 497 1120 497 c 2,35,-1
 911 497 l 1,36,-1
 911 389 l 1,37,-1
 1186 389 l 1,38,-1
 1186 349 l 2,39,40
 1186 326 1186 326 1182 314 c 128,-1,41
 1178 302 1178 302 1169.5 296.5 c 128,-1,42
 1161 291 1161 291 1148.5 290 c 128,-1,43
 1136 289 1136 289 1119 289 c 2,44,-1
 911 289 l 1,45,-1
 911 250 l 2,46,47
 911 208 911 208 915 178.5 c 128,-1,48
 919 149 919 149 926 126 c 1,49,50
 948 120 948 120 973.5 118.5 c 128,-1,51
 999 117 999 117 1028 117 c 2,52,-1
 1119 117 l 1,53,-1
 1119 -19 l 1,54,55
 1031 -8 1031 -8 954 -4 c 128,-1,56
 877 0 877 0 802 0 c 0,57,58
 721 0 721 0 644 -5 c 128,-1,59
 567 -10 567 -10 486 -19 c 1,60,-1
 486 117 l 1,61,-1
 575 117 l 2,62,63
 604 117 604 117 629.5 118 c 128,-1,64
 655 119 655 119 678 126 c 1,65,66
 693 171 693 171 693 247 c 2,67,-1
 693 289 l 1,68,-1
 426 289 l 1,69,-1
 426 356 l 1,70,71
 443 376 443 376 467 382.5 c 128,-1,72
 491 389 491 389 527 389 c 2,73,-1
 693 389 l 1,74,-1
 693 488 l 1,75,-1
 688 497 l 1,76,-1
 426 497 l 1,77,-1
 426 564 l 1,78,79
 444 584 444 584 469 591 c 128,-1,80
 494 598 494 598 531 598 c 2,81,-1
 633 598 l 1,82,-1
 283 1197 l 2,83,84
 260 1235 260 1235 246.5 1264 c 128,-1,85
 233 1293 233 1293 215 1317 c 1,86,87
 190 1325 190 1325 163.5 1326.5 c 128,-1,88
 137 1328 137 1328 108 1328 c 2,89,-1
 34 1328 l 1,90,-1
 10 1430 l 1,91,92
 73 1438 73 1438 143 1440.5 c 128,-1,93
 213 1443 213 1443 298 1443 c 0,94,95
 398 1443 398 1443 483.5 1441 c 128,-1,96
 569 1439 569 1439 638 1428 c 1,97,-1
 650 1328 l 1,98,-1
 579 1328 l 2,99,100
 549 1328 549 1328 524 1326.5 c 128,-1,101
 499 1325 499 1325 481 1317 c 1,102,103
 482 1305 482 1305 484.5 1295.5 c 128,-1,104
 487 1286 487 1286 491.5 1275.5 c 128,-1,105
 496 1265 496 1265 503 1252.5 c 128,-1,106
 510 1240 510 1240 521 1222 c 2,107,-1
 847 659 l 1,108,109
 875 707 875 707 905.5 762 c 128,-1,110
 936 817 936 817 966 873 c 128,-1,111
 996 929 996 929 1024.5 983.5 c 128,-1,112
 1053 1038 1053 1038 1076.5 1085 c 128,-1,113
 1100 1132 1100 1132 1118 1169 c 128,-1,114
 1136 1206 1136 1206 1145 1228 c 0,0,1
EndSplineSet
EndChar

StartChar: brokenbar
Encoding: 166 166 107
Width: 551
GlyphClass: 2
Flags: W
LayerCount: 2
Fore
SplineSet
343 732 m 1,0,-1
 285 732 l 2,1,2
 257 732 257 732 241.5 737.5 c 128,-1,3
 226 743 226 743 219 754.5 c 128,-1,4
 212 766 212 766 210.5 782.5 c 128,-1,5
 209 799 209 799 209 822 c 2,6,-1
 209 1535 l 1,7,-1
 265 1535 l 2,8,9
 299 1535 299 1535 317 1524 c 128,-1,10
 335 1513 335 1513 343 1488 c 1,11,-1
 343 732 l 1,0,-1
343 -447 m 1,12,-1
 285 -447 l 2,13,14
 257 -447 257 -447 241.5 -441.5 c 128,-1,15
 226 -436 226 -436 219 -425 c 128,-1,16
 212 -414 212 -414 210.5 -397.5 c 128,-1,17
 209 -381 209 -381 209 -358 c 2,18,-1
 209 354 l 1,19,-1
 265 354 l 2,20,21
 299 354 299 354 317 343.5 c 128,-1,22
 335 333 335 333 343 308 c 1,23,-1
 343 -447 l 1,12,-1
EndSplineSet
EndChar

StartChar: section
Encoding: 167 167 108
Width: 1063
GlyphClass: 2
Flags: W
LayerCount: 2
Fore
SplineSet
597 1518 m 0,0,1
 825 1518 825 1518 889 1442 c 1,2,-1
 852 1235 l 1,3,-1
 760 1254 l 1,4,5
 746 1295 746 1295 730 1323 c 128,-1,6
 714 1351 714 1351 690.5 1368 c 128,-1,7
 667 1385 667 1385 633.5 1392.5 c 128,-1,8
 600 1400 600 1400 552 1400 c 0,9,10
 464 1400 464 1400 413.5 1361.5 c 128,-1,11
 363 1323 363 1323 363 1251 c 0,12,13
 363 1218 363 1218 374.5 1191.5 c 128,-1,14
 386 1165 386 1165 411.5 1141 c 128,-1,15
 437 1117 437 1117 477.5 1093.5 c 128,-1,16
 518 1070 518 1070 577 1044 c 0,17,18
 698 991 698 991 773 949 c 128,-1,19
 848 907 848 907 889 867 c 128,-1,20
 930 827 930 827 944.5 784.5 c 128,-1,21
 959 742 959 742 959 688 c 0,22,23
 959 600 959 600 920.5 529 c 128,-1,24
 882 458 882 458 801 419 c 1,25,26
 873 377 873 377 907 311.5 c 128,-1,27
 941 246 941 246 941 176 c 0,28,29
 941 99 941 99 911.5 40.5 c 128,-1,30
 882 -18 882 -18 829.5 -57.5 c 128,-1,31
 777 -97 777 -97 703 -117 c 128,-1,32
 629 -137 629 -137 541 -137 c 0,33,34
 499 -137 499 -137 443 -128 c 128,-1,35
 387 -119 387 -119 332 -103 c 128,-1,36
 277 -87 277 -87 231.5 -66.5 c 128,-1,37
 186 -46 186 -46 164 -23 c 1,38,39
 164 28 164 28 165 79 c 128,-1,40
 166 130 166 130 169 187 c 1,41,-1
 265 198 l 1,42,43
 284 138 284 138 310.5 96.5 c 128,-1,44
 337 55 337 55 372.5 29.5 c 128,-1,45
 408 4 408 4 454.5 -7 c 128,-1,46
 501 -18 501 -18 560 -18 c 0,47,48
 604 -18 604 -18 642.5 -8 c 128,-1,49
 681 2 681 2 709 22 c 128,-1,50
 737 42 737 42 753 72 c 128,-1,51
 769 102 769 102 769 141 c 0,52,53
 769 181 769 181 744.5 210.5 c 128,-1,54
 720 240 720 240 677.5 265.5 c 128,-1,55
 635 291 635 291 577.5 316.5 c 128,-1,56
 520 342 520 342 454 375 c 0,57,58
 389 407 389 407 335 440.5 c 128,-1,59
 281 474 281 474 242 514 c 128,-1,60
 203 554 203 554 181.5 603 c 128,-1,61
 160 652 160 652 160 717 c 0,62,63
 160 811 160 811 200.5 871.5 c 128,-1,64
 241 932 241 932 326 971 c 1,65,66
 257 1022 257 1022 226 1080 c 128,-1,67
 195 1138 195 1138 195 1216 c 0,68,69
 195 1285 195 1285 221 1341 c 128,-1,70
 247 1397 247 1397 298 1436 c 128,-1,71
 349 1475 349 1475 424 1496.5 c 128,-1,72
 499 1518 499 1518 597 1518 c 0,0,1
670 483 m 1,73,74
 733 515 733 515 764 557.5 c 128,-1,75
 795 600 795 600 795 648 c 0,76,77
 795 685 795 685 766 719 c 128,-1,78
 737 753 737 753 688 784.5 c 128,-1,79
 639 816 639 816 575.5 846 c 128,-1,80
 512 876 512 876 443 906 c 1,81,82
 325 845 325 845 325 744 c 0,83,84
 325 720 325 720 331.5 699.5 c 128,-1,85
 338 679 338 679 352.5 660.5 c 128,-1,86
 367 642 367 642 390.5 624.5 c 128,-1,87
 414 607 414 607 449 589 c 1,88,89
 500 561 500 561 556.5 535 c 128,-1,90
 613 509 613 509 670 483 c 1,73,74
EndSplineSet
EndChar

StartChar: copyright
Encoding: 169 169 110
Width: 1774
GlyphClass: 2
Flags: W
LayerCount: 2
Fore
SplineSet
1176 347 m 1,0,1
 1125 316 1125 316 1051 299 c 128,-1,2
 977 282 977 282 895 282 c 0,3,4
 802 282 802 282 724 310.5 c 128,-1,5
 646 339 646 339 589.5 393 c 128,-1,6
 533 447 533 447 501.5 525.5 c 128,-1,7
 470 604 470 604 470 705 c 0,8,9
 470 813 470 813 503 896 c 128,-1,10
 536 979 536 979 594.5 1036 c 128,-1,11
 653 1093 653 1093 733 1122.5 c 128,-1,12
 813 1152 813 1152 907 1152 c 0,13,14
 988 1152 988 1152 1059 1131 c 128,-1,15
 1130 1110 1130 1110 1173 1071 c 1,16,-1
 1160 911 l 1,17,-1
 1103 911 l 1,18,19
 1065 989 1065 989 1014 1025.5 c 128,-1,20
 963 1062 963 1062 890 1062 c 0,21,22
 836 1062 836 1062 791 1039 c 128,-1,23
 746 1016 746 1016 713 975 c 128,-1,24
 680 934 680 934 662 876 c 128,-1,25
 644 818 644 818 644 749 c 0,26,27
 644 651 644 651 665.5 580.5 c 128,-1,28
 687 510 687 510 723.5 465 c 128,-1,29
 760 420 760 420 809 399 c 128,-1,30
 858 378 858 378 914 378 c 0,31,32
 987 378 987 378 1048.5 395.5 c 128,-1,33
 1110 413 1110 413 1165 450 c 1,34,-1
 1176 347 l 1,0,1
113 720 m 256,35,36
 113 827 113 827 140.5 925.5 c 128,-1,37
 168 1024 168 1024 218.5 1110 c 128,-1,38
 269 1196 269 1196 340 1267 c 128,-1,39
 411 1338 411 1338 497 1388.5 c 128,-1,40
 583 1439 583 1439 681.5 1466.5 c 128,-1,41
 780 1494 780 1494 887 1494 c 256,42,43
 994 1494 994 1494 1092.5 1466.5 c 128,-1,44
 1191 1439 1191 1439 1277 1388.5 c 128,-1,45
 1363 1338 1363 1338 1434 1267 c 128,-1,46
 1505 1196 1505 1196 1555.5 1110 c 128,-1,47
 1606 1024 1606 1024 1633.5 925.5 c 128,-1,48
 1661 827 1661 827 1661 720 c 256,49,50
 1661 613 1661 613 1633.5 514.5 c 128,-1,51
 1606 416 1606 416 1555.5 330 c 128,-1,52
 1505 244 1505 244 1434 173 c 128,-1,53
 1363 102 1363 102 1277 51.5 c 128,-1,54
 1191 1 1191 1 1092.5 -26.5 c 128,-1,55
 994 -54 994 -54 887 -54 c 256,56,57
 780 -54 780 -54 681.5 -26.5 c 128,-1,58
 583 1 583 1 497 51.5 c 128,-1,59
 411 102 411 102 340 173 c 128,-1,60
 269 244 269 244 218.5 330 c 128,-1,61
 168 416 168 416 140.5 514.5 c 128,-1,62
 113 613 113 613 113 720 c 256,35,36
225 720 m 256,63,64
 225 583 225 583 277 462.5 c 128,-1,65
 329 342 329 342 419 252 c 128,-1,66
 509 162 509 162 629.5 110 c 128,-1,67
 750 58 750 58 887 58 c 256,68,69
 1024 58 1024 58 1144.5 110 c 128,-1,70
 1265 162 1265 162 1355 252 c 128,-1,71
 1445 342 1445 342 1497 462.5 c 128,-1,72
 1549 583 1549 583 1549 720 c 256,73,74
 1549 857 1549 857 1497 977.5 c 128,-1,75
 1445 1098 1445 1098 1355 1188 c 128,-1,76
 1265 1278 1265 1278 1144.5 1330 c 128,-1,77
 1024 1382 1024 1382 887 1382 c 256,78,79
 750 1382 750 1382 629.5 1330 c 128,-1,80
 509 1278 509 1278 419 1188 c 128,-1,81
 329 1098 329 1098 277 977.5 c 128,-1,82
 225 857 225 857 225 720 c 256,63,64
EndSplineSet
EndChar

StartChar: ordfeminine
Encoding: 170 170 111
Width: 793
GlyphClass: 2
Flags: W
LayerCount: 2
Fore
SplineSet
759 826 m 1,0,1
 724 817 724 817 683.5 813 c 128,-1,2
 643 809 643 809 594 809 c 0,3,4
 522 809 522 809 510 845 c 1,5,-1
 507 896 l 1,6,7
 463 854 463 854 411 826 c 128,-1,8
 359 798 359 798 287 798 c 0,9,10
 239 798 239 798 199 810 c 128,-1,11
 159 822 159 822 131 845.5 c 128,-1,12
 103 869 103 869 87.5 904 c 128,-1,13
 72 939 72 939 72 985 c 0,14,15
 72 1088 72 1088 154.5 1140 c 128,-1,16
 237 1192 237 1192 414 1192 c 2,17,-1
 507 1192 l 1,18,-1
 507 1248 l 2,19,20
 507 1295 507 1295 499 1327 c 128,-1,21
 491 1359 491 1359 476 1378.5 c 128,-1,22
 461 1398 461 1398 439.5 1406.5 c 128,-1,23
 418 1415 418 1415 391 1415 c 0,24,25
 355 1415 355 1415 326.5 1406 c 128,-1,26
 298 1397 298 1397 274 1380.5 c 128,-1,27
 250 1364 250 1364 228.5 1340.5 c 128,-1,28
 207 1317 207 1317 185 1287 c 1,29,30
 106 1332 106 1332 91 1344 c 1,31,32
 91 1368 91 1368 110 1392.5 c 128,-1,33
 129 1417 129 1417 164 1437.5 c 128,-1,34
 199 1458 199 1458 249 1470.5 c 128,-1,35
 299 1483 299 1483 362 1483 c 0,36,37
 449 1483 449 1483 505 1464 c 128,-1,38
 561 1445 561 1445 593.5 1412.5 c 128,-1,39
 626 1380 626 1380 639 1336.5 c 128,-1,40
 652 1293 652 1293 652 1244 c 0,41,42
 652 1187 652 1187 651.5 1131 c 128,-1,43
 651 1075 651 1075 651 1024 c 0,44,45
 651 982 651 982 651.5 949 c 128,-1,46
 652 916 652 916 656 890 c 1,47,48
 676 884 676 884 700.5 882.5 c 128,-1,49
 725 881 725 881 759 881 c 1,50,-1
 759 826 l 1,0,1
496 956 m 1,51,52
 502 998 502 998 504.5 1036 c 128,-1,53
 507 1074 507 1074 507 1119 c 1,54,-1
 407 1119 l 2,55,56
 313 1119 313 1119 265.5 1087.5 c 128,-1,57
 218 1056 218 1056 218 992 c 0,58,59
 218 949 218 949 248.5 921.5 c 128,-1,60
 279 894 279 894 331 894 c 0,61,62
 371 894 371 894 414 912 c 128,-1,63
 457 930 457 930 496 956 c 1,51,52
EndSplineSet
EndChar

StartChar: guillemotleft
Encoding: 171 171 112
Width: 1028
GlyphClass: 2
Flags: W
LayerCount: 2
Fore
SplineSet
482 531 m 1,0,1
 484 551 484 551 494.5 571.5 c 128,-1,2
 505 592 505 592 519 612 c 2,3,-1
 741 928 l 2,4,5
 751 942 751 942 760 951 c 128,-1,6
 769 960 769 960 777 968 c 1,7,-1
 781 968 l 2,8,9
 795 968 795 968 807 963 c 128,-1,10
 819 958 819 958 842 948 c 2,11,-1
 895 925 l 1,12,-1
 662 548 l 1,13,-1
 882 171 l 1,14,15
 848 144 848 144 831 133 c 128,-1,16
 814 122 814 122 797 122 c 0,17,18
 786 122 786 122 775.5 124 c 128,-1,19
 765 126 765 126 754 134 c 1,20,-1
 482 531 l 1,0,1
133 531 m 1,21,22
 138 550 138 550 147 570.5 c 128,-1,23
 156 591 156 591 171 612 c 2,24,-1
 421 962 l 2,25,26
 431 976 431 976 440.5 985.5 c 128,-1,27
 450 995 450 995 458 1003 c 1,28,29
 471 1003 471 1003 485.5 998.5 c 128,-1,30
 500 994 500 994 521 981 c 1,31,-1
 574 959 l 1,32,-1
 313 548 l 1,33,-1
 561 138 l 1,34,35
 527 112 527 112 509.5 100.5 c 128,-1,36
 492 89 492 89 477 89 c 0,37,38
 455 89 455 89 434 101 c 1,39,-1
 133 531 l 1,21,22
EndSplineSet
EndChar

StartChar: logicalnot
Encoding: 172 172 113
Width: 1257
GlyphClass: 2
Flags: W
LayerCount: 2
Fore
SplineSet
980 685 m 1,0,-1
 133 685 l 1,1,-1
 133 752 l 2,2,3
 133 781 133 781 139 796.5 c 128,-1,4
 145 812 145 812 157 819.5 c 128,-1,5
 169 827 169 827 186.5 828 c 128,-1,6
 204 829 204 829 227 829 c 2,7,-1
 1124 829 l 1,8,-1
 1124 255 l 1,9,-1
 1056 255 l 2,10,11
 1023 255 1023 255 1005 265.5 c 128,-1,12
 987 276 987 276 980 301 c 1,13,-1
 980 685 l 1,0,-1
EndSplineSet
EndChar

StartChar: uni00AD
Encoding: 173 173 114
Width: 898
GlyphClass: 2
Flags: W
LayerCount: 2
Fore
SplineSet
170 473 m 1,0,-1
 170 561 l 2,1,2
 170 583 170 583 175.5 595 c 128,-1,3
 181 607 181 607 191.5 613 c 128,-1,4
 202 619 202 619 216.5 620.5 c 128,-1,5
 231 622 231 622 250 622 c 2,6,-1
 728 622 l 1,7,-1
 728 537 l 2,8,9
 728 507 728 507 717 492.5 c 128,-1,10
 706 478 706 478 682 473 c 1,11,-1
 170 473 l 1,0,-1
EndSplineSet
EndChar

StartChar: registered
Encoding: 174 174 115
Width: 1774
GlyphClass: 2
Flags: W
LayerCount: 2
Fore
SplineSet
113 720 m 256,0,1
 113 827 113 827 140.5 925.5 c 128,-1,2
 168 1024 168 1024 218.5 1110 c 128,-1,3
 269 1196 269 1196 340 1267 c 128,-1,4
 411 1338 411 1338 497 1388.5 c 128,-1,5
 583 1439 583 1439 681.5 1466.5 c 128,-1,6
 780 1494 780 1494 887 1494 c 256,7,8
 994 1494 994 1494 1092.5 1466.5 c 128,-1,9
 1191 1439 1191 1439 1277 1388.5 c 128,-1,10
 1363 1338 1363 1338 1434 1267 c 128,-1,11
 1505 1196 1505 1196 1555.5 1110 c 128,-1,12
 1606 1024 1606 1024 1633.5 925.5 c 128,-1,13
 1661 827 1661 827 1661 720 c 256,14,15
 1661 613 1661 613 1633.5 514.5 c 128,-1,16
 1606 416 1606 416 1555.5 330 c 128,-1,17
 1505 244 1505 244 1434 173 c 128,-1,18
 1363 102 1363 102 1277 51.5 c 128,-1,19
 1191 1 1191 1 1092.5 -26.5 c 128,-1,20
 994 -54 994 -54 887 -54 c 256,21,22
 780 -54 780 -54 681.5 -26.5 c 128,-1,23
 583 1 583 1 497 51.5 c 128,-1,24
 411 102 411 102 340 173 c 128,-1,25
 269 244 269 244 218.5 330 c 128,-1,26
 168 416 168 416 140.5 514.5 c 128,-1,27
 113 613 113 613 113 720 c 256,0,1
225 720 m 256,28,29
 225 583 225 583 277 462.5 c 128,-1,30
 329 342 329 342 419 252 c 128,-1,31
 509 162 509 162 629.5 110 c 128,-1,32
 750 58 750 58 887 58 c 256,33,34
 1024 58 1024 58 1144.5 110 c 128,-1,35
 1265 162 1265 162 1355 252 c 128,-1,36
 1445 342 1445 342 1497 462.5 c 128,-1,37
 1549 583 1549 583 1549 720 c 256,38,39
 1549 857 1549 857 1497 977.5 c 128,-1,40
 1445 1098 1445 1098 1355 1188 c 128,-1,41
 1265 1278 1265 1278 1144.5 1330 c 128,-1,42
 1024 1382 1024 1382 887 1382 c 256,43,44
 750 1382 750 1382 629.5 1330 c 128,-1,45
 509 1278 509 1278 419 1188 c 128,-1,46
 329 1098 329 1098 277 977.5 c 128,-1,47
 225 857 225 857 225 720 c 256,28,29
633 981 m 2,48,49
 633 1021 633 1021 624 1044 c 1,50,51
 612 1046 612 1046 600 1046 c 128,-1,52
 588 1046 588 1046 576 1046 c 2,53,-1
 501 1046 l 1,54,-1
 501 1106 l 1,55,56
 524 1108 524 1108 557 1114 c 128,-1,57
 590 1120 590 1120 648 1125 c 0,58,59
 699 1130 699 1130 751 1130.5 c 128,-1,60
 803 1131 803 1131 857 1131 c 0,61,62
 944 1131 944 1131 1011 1118.5 c 128,-1,63
 1078 1106 1078 1106 1123.5 1077 c 128,-1,64
 1169 1048 1169 1048 1192 1001.5 c 128,-1,65
 1215 955 1215 955 1215 888 c 0,66,67
 1215 840 1215 840 1199.5 801.5 c 128,-1,68
 1184 763 1184 763 1157 733.5 c 128,-1,69
 1130 704 1130 704 1093 683 c 128,-1,70
 1056 662 1056 662 1014 650 c 1,71,72
 1042 641 1042 641 1067.5 621.5 c 128,-1,73
 1093 602 1093 602 1115 578 c 128,-1,74
 1137 554 1137 554 1154.5 527.5 c 128,-1,75
 1172 501 1172 501 1184 478 c 2,76,-1
 1221 407 l 2,77,78
 1231 388 1231 388 1239.5 372 c 128,-1,79
 1248 356 1248 356 1260 356 c 0,80,81
 1261 356 1261 356 1263 356.5 c 128,-1,82
 1265 357 1265 357 1273 360.5 c 128,-1,83
 1281 364 1281 364 1296 371.5 c 128,-1,84
 1311 379 1311 379 1338 393 c 1,85,-1
 1354 347 l 1,86,87
 1320 319 1320 319 1279.5 297.5 c 128,-1,88
 1239 276 1239 276 1203 276 c 0,89,90
 1191 276 1191 276 1177 277 c 128,-1,91
 1163 278 1163 278 1149.5 283 c 128,-1,92
 1136 288 1136 288 1124 299 c 128,-1,93
 1112 310 1112 310 1104 330 c 0,94,95
 1065 425 1065 425 1021 500.5 c 128,-1,96
 977 576 977 576 921 644 c 1,97,98
 885 644 885 644 849 644.5 c 128,-1,99
 813 645 813 645 778 647 c 1,100,-1
 778 437 l 2,101,102
 778 413 778 413 780.5 396.5 c 128,-1,103
 783 380 783 380 787 366 c 1,104,105
 800 362 800 362 814.5 361 c 128,-1,106
 829 360 829 360 846 360 c 2,107,-1
 898 360 l 1,108,-1
 898 282 l 1,109,110
 841 288 841 288 792.5 290.5 c 128,-1,111
 744 293 744 293 696 293 c 256,112,113
 648 293 648 293 604.5 290 c 128,-1,114
 561 287 561 287 513 282 c 1,115,-1
 513 360 l 1,116,-1
 579 360 l 2,117,118
 591 360 591 360 602.5 361 c 128,-1,119
 614 362 614 362 624 366 c 1,120,121
 633 391 633 391 633 435 c 2,122,-1
 633 981 l 2,48,49
868 1053 m 0,123,124
 818 1053 818 1053 778 1050 c 1,125,-1
 778 714 l 1,126,127
 801 713 801 713 826.5 712.5 c 128,-1,128
 852 712 852 712 882 712 c 0,129,130
 978 712 978 712 1021.5 756.5 c 128,-1,131
 1065 801 1065 801 1065 883 c 0,132,133
 1065 931 1065 931 1054 963.5 c 128,-1,134
 1043 996 1043 996 1019.5 1016 c 128,-1,135
 996 1036 996 1036 958.5 1044.5 c 128,-1,136
 921 1053 921 1053 868 1053 c 0,123,124
EndSplineSet
EndChar

StartChar: macron
Encoding: 175 175 116
Width: 591
GlyphClass: 2
Flags: W
LayerCount: 2
Fore
SplineSet
2 1421 m 1,0,-1
 589 1421 l 1,1,-1
 589 1298 l 1,2,-1
 2 1298 l 1,3,-1
 2 1421 l 1,0,-1
EndSplineSet
EndChar

StartChar: degree
Encoding: 176 176 117
Width: 839
GlyphClass: 2
Flags: W
LayerCount: 2
Fore
SplineSet
98 1126 m 0,0,1
 98 1193 98 1193 123 1251.5 c 128,-1,2
 148 1310 148 1310 191.5 1353.5 c 128,-1,3
 235 1397 235 1397 293 1422 c 128,-1,4
 351 1447 351 1447 417 1447 c 0,5,6
 484 1447 484 1447 543 1421.5 c 128,-1,7
 602 1396 602 1396 645.5 1352.5 c 128,-1,8
 689 1309 689 1309 714 1250.5 c 128,-1,9
 739 1192 739 1192 739 1126 c 256,10,11
 739 1060 739 1060 714 1001.5 c 128,-1,12
 689 943 689 943 645.5 899.5 c 128,-1,13
 602 856 602 856 543 830.5 c 128,-1,14
 484 805 484 805 417 805 c 0,15,16
 351 805 351 805 293 830.5 c 128,-1,17
 235 856 235 856 191.5 899.5 c 128,-1,18
 148 943 148 943 123 1001.5 c 128,-1,19
 98 1060 98 1060 98 1126 c 0,0,1
208 1126 m 0,20,21
 208 1082 208 1082 225 1043.5 c 128,-1,22
 242 1005 242 1005 271 976.5 c 128,-1,23
 300 948 300 948 338 932 c 128,-1,24
 376 916 376 916 417 916 c 0,25,26
 460 916 460 916 498.5 932.5 c 128,-1,27
 537 949 537 949 565.5 977.5 c 128,-1,28
 594 1006 594 1006 610.5 1044 c 128,-1,29
 627 1082 627 1082 627 1126 c 0,30,31
 627 1169 627 1169 610.5 1207 c 128,-1,32
 594 1245 594 1245 565.5 1274 c 128,-1,33
 537 1303 537 1303 498.5 1320 c 128,-1,34
 460 1337 460 1337 417 1337 c 256,35,36
 374 1337 374 1337 336 1320 c 128,-1,37
 298 1303 298 1303 269.5 1274 c 128,-1,38
 241 1245 241 1245 224.5 1207 c 128,-1,39
 208 1169 208 1169 208 1126 c 0,20,21
EndSplineSet
EndChar

StartChar: plusminus
Encoding: 177 177 118
Width: 1257
GlyphClass: 2
Flags: W
LayerCount: 2
Fore
SplineSet
701 673 m 1,0,-1
 701 299 l 1,1,-1
 632 299 l 2,2,3
 606 299 606 299 590.5 302.5 c 128,-1,4
 575 306 575 306 567.5 315 c 128,-1,5
 560 324 560 324 558 339 c 128,-1,6
 556 354 556 354 556 378 c 2,7,-1
 556 673 l 1,8,-1
 133 673 l 1,9,-1
 133 740 l 2,10,11
 133 767 133 767 137 782 c 128,-1,12
 141 797 141 797 150.5 804.5 c 128,-1,13
 160 812 160 812 176 814 c 128,-1,14
 192 816 192 816 215 816 c 2,15,-1
 556 816 l 1,16,-1
 556 1191 l 1,17,-1
 623 1191 l 2,18,19
 648 1191 648 1191 663.5 1188 c 128,-1,20
 679 1185 679 1185 687 1176 c 128,-1,21
 695 1167 695 1167 698 1151.5 c 128,-1,22
 701 1136 701 1136 701 1111 c 2,23,-1
 701 816 l 1,24,-1
 1124 816 l 1,25,-1
 1124 750 l 2,26,27
 1124 716 1124 716 1113 698.5 c 128,-1,28
 1102 681 1102 681 1076 673 c 1,29,-1
 701 673 l 1,0,-1
133 35 m 1,30,-1
 133 103 l 2,31,32
 133 128 133 128 136 143 c 128,-1,33
 139 158 139 158 148 166 c 128,-1,34
 157 174 157 174 172.5 176.5 c 128,-1,35
 188 179 188 179 213 179 c 2,36,-1
 1124 179 l 1,37,-1
 1124 112 l 2,38,39
 1124 78 1124 78 1113 60.5 c 128,-1,40
 1102 43 1102 43 1076 35 c 1,41,-1
 133 35 l 1,30,-1
EndSplineSet
EndChar

StartChar: twosuperior
Encoding: 178 178 119
Width: 891
GlyphClass: 2
Flags: W
LayerCount: 2
Fore
SplineSet
450 1391 m 0,0,1
 417 1391 417 1391 383 1381 c 128,-1,2
 349 1371 349 1371 321 1350.5 c 128,-1,3
 293 1330 293 1330 273 1299.5 c 128,-1,4
 253 1269 253 1269 247 1229 c 1,5,-1
 158 1303 l 1,6,7
 164 1343 164 1343 190 1374 c 128,-1,8
 216 1405 216 1405 255 1425 c 128,-1,9
 294 1445 294 1445 342 1455.5 c 128,-1,10
 390 1466 390 1466 440 1466 c 0,11,12
 508 1466 508 1466 560 1449 c 128,-1,13
 612 1432 612 1432 647.5 1400.5 c 128,-1,14
 683 1369 683 1369 701.5 1325.5 c 128,-1,15
 720 1282 720 1282 720 1228 c 0,16,17
 720 1172 720 1172 698.5 1119 c 128,-1,18
 677 1066 677 1066 626 1002 c 128,-1,19
 575 938 575 938 490 856.5 c 128,-1,20
 405 775 405 775 277 662 c 1,21,-1
 520 662 l 2,22,23
 542 662 542 662 567.5 665 c 128,-1,24
 593 668 593 668 619 680 c 128,-1,25
 645 692 645 692 669 716 c 128,-1,26
 693 740 693 740 711 782 c 1,27,28
 723 782 723 782 733 778.5 c 128,-1,29
 743 775 743 775 750 775 c 1,30,31
 750 723 750 723 748.5 678 c 128,-1,32
 747 633 747 633 742 591 c 1,33,34
 724 585 724 585 703.5 581.5 c 128,-1,35
 683 578 683 578 655.5 576.5 c 128,-1,36
 628 575 628 575 591 574.5 c 128,-1,37
 554 574 554 574 504 574 c 2,38,-1
 197 574 l 2,39,40
 170 574 170 574 158 581.5 c 128,-1,41
 146 589 146 589 140 605 c 1,42,43
 140 615 140 615 142.5 628 c 128,-1,44
 145 641 145 641 148 656 c 1,45,46
 253 759 253 759 335.5 844.5 c 128,-1,47
 418 930 418 930 485 1007 c 0,48,49
 519 1045 519 1045 540 1077 c 128,-1,50
 561 1109 561 1109 572.5 1136.5 c 128,-1,51
 584 1164 584 1164 588 1188 c 128,-1,52
 592 1212 592 1212 592 1234 c 0,53,54
 592 1391 592 1391 450 1391 c 0,0,1
EndSplineSet
EndChar

StartChar: threesuperior
Encoding: 179 179 120
Width: 875
GlyphClass: 2
Flags: W
LayerCount: 2
Fore
SplineSet
602 1249 m 0,0,1
 602 1285 602 1285 589.5 1312.5 c 128,-1,2
 577 1340 577 1340 555.5 1358.5 c 128,-1,3
 534 1377 534 1377 506 1386 c 128,-1,4
 478 1395 478 1395 447 1395 c 0,5,6
 415 1395 415 1395 383 1385 c 128,-1,7
 351 1375 351 1375 324 1355 c 128,-1,8
 297 1335 297 1335 277.5 1306 c 128,-1,9
 258 1277 258 1277 252 1239 c 1,10,-1
 170 1306 l 1,11,12
 176 1346 176 1346 201 1376.5 c 128,-1,13
 226 1407 226 1407 263 1427.5 c 128,-1,14
 300 1448 300 1448 345.5 1458 c 128,-1,15
 391 1468 391 1468 439 1468 c 0,16,17
 491 1468 491 1468 541.5 1454.5 c 128,-1,18
 592 1441 592 1441 632 1413.5 c 128,-1,19
 672 1386 672 1386 696.5 1344.5 c 128,-1,20
 721 1303 721 1303 721 1248 c 0,21,22
 721 1215 721 1215 707 1182.5 c 128,-1,23
 693 1150 693 1150 666 1121.5 c 128,-1,24
 639 1093 639 1093 598.5 1070.5 c 128,-1,25
 558 1048 558 1048 505 1036 c 1,26,27
 628 1020 628 1020 690 965 c 128,-1,28
 752 910 752 910 752 810 c 0,29,30
 752 752 752 752 730.5 705 c 128,-1,31
 709 658 709 658 669.5 625 c 128,-1,32
 630 592 630 592 575 574.5 c 128,-1,33
 520 557 520 557 453 557 c 0,34,35
 401 557 401 557 353 567 c 128,-1,36
 305 577 305 577 266.5 594.5 c 128,-1,37
 228 612 228 612 202 634.5 c 128,-1,38
 176 657 176 657 167 681 c 1,39,40
 171 712 171 712 175 742.5 c 128,-1,41
 179 773 179 773 187 819 c 1,42,-1
 254 807 l 1,43,44
 254 757 254 757 271 723.5 c 128,-1,45
 288 690 288 690 315 670 c 128,-1,46
 342 650 342 650 376 641.5 c 128,-1,47
 410 633 410 633 445 633 c 0,48,49
 488 633 488 633 522 647.5 c 128,-1,50
 556 662 556 662 580 686.5 c 128,-1,51
 604 711 604 711 616.5 744.5 c 128,-1,52
 629 778 629 778 629 817 c 0,53,54
 629 863 629 863 611 896 c 128,-1,55
 593 929 593 929 559 950 c 128,-1,56
 525 971 525 971 476.5 980.5 c 128,-1,57
 428 990 428 990 367 990 c 2,58,-1
 342 990 l 1,59,-1
 342 1027 l 2,60,61
 342 1048 342 1048 348 1062 c 1,62,-1
 382 1062 l 2,63,64
 413 1062 413 1062 451 1073 c 128,-1,65
 489 1084 489 1084 522.5 1107 c 128,-1,66
 556 1130 556 1130 579 1165 c 128,-1,67
 602 1200 602 1200 602 1249 c 0,0,1
EndSplineSet
EndChar

StartChar: acute
Encoding: 180 180 121
Width: 1225
GlyphClass: 2
Flags: W
LayerCount: 2
Fore
SplineSet
528 1264 m 1,0,1
 479 1264 479 1264 451.5 1264 c 128,-1,2
 424 1264 424 1264 410.5 1264 c 128,-1,3
 397 1264 397 1264 394 1264.5 c 128,-1,4
 391 1265 391 1265 391 1265 c 1,5,6
 432 1335 432 1335 461.5 1386.5 c 128,-1,7
 491 1438 491 1438 513 1475.5 c 128,-1,8
 535 1513 535 1513 550.5 1539.5 c 128,-1,9
 566 1566 566 1566 580 1587 c 1,10,-1
 831 1587 l 1,11,12
 831 1587 831 1587 819 1573 c 128,-1,13
 807 1559 807 1559 773.5 1523 c 128,-1,14
 740 1487 740 1487 681 1424.5 c 128,-1,15
 622 1362 622 1362 528 1264 c 1,0,1
EndSplineSet
EndChar

StartChar: mu
Encoding: 181 181 122
Width: 1521
GlyphClass: 2
Flags: W
LayerCount: 2
Fore
SplineSet
1045 834 m 2,0,1
 1045 891 1045 891 1033 930 c 1,2,3
 1016 936 1016 936 995 938.5 c 128,-1,4
 974 941 974 941 951 941 c 2,5,-1
 868 941 l 1,6,-1
 868 1027 l 1,7,8
 936 1041 936 1041 1028 1047.5 c 128,-1,9
 1120 1054 1120 1054 1235 1054 c 0,10,11
 1250 1054 1250 1054 1253.5 1041 c 128,-1,12
 1257 1028 1257 1028 1257 1011 c 2,13,-1
 1257 269 l 2,14,15
 1257 212 1257 212 1262.5 172 c 128,-1,16
 1268 132 1268 132 1280 102 c 1,17,18
 1299 100 1299 100 1320 99 c 128,-1,19
 1341 98 1341 98 1364 98 c 2,20,-1
 1435 98 l 1,21,-1
 1435 15 l 1,22,23
 1323 -11 1323 -11 1171 -11 c 0,24,25
 1133 -11 1133 -11 1105.5 -8.5 c 128,-1,26
 1078 -6 1078 -6 1061 3 c 128,-1,27
 1044 12 1044 12 1036 30.5 c 128,-1,28
 1028 49 1028 49 1028 81 c 1,29,-1
 1026 115 l 1,30,31
 989 89 989 89 949.5 63.5 c 128,-1,32
 910 38 910 38 868 18 c 128,-1,33
 826 -2 826 -2 781.5 -14.5 c 128,-1,34
 737 -27 737 -27 691 -27 c 0,35,36
 661 -27 661 -27 629.5 -21 c 128,-1,37
 598 -15 598 -15 566 -1 c 1,38,-1
 566 -120 l 2,39,40
 566 -186 566 -186 579 -231 c 1,41,42
 596 -243 596 -243 618.5 -250 c 128,-1,43
 641 -257 641 -257 667 -257 c 1,44,-1
 667 -340 l 1,45,46
 630 -353 630 -353 581 -358.5 c 128,-1,47
 532 -364 532 -364 472 -364 c 0,48,49
 450 -364 450 -364 427.5 -360.5 c 128,-1,50
 405 -357 405 -357 387 -347.5 c 128,-1,51
 369 -338 369 -338 357.5 -321.5 c 128,-1,52
 346 -305 346 -305 346 -278 c 0,53,54
 346 -229 346 -229 349.5 -181 c 128,-1,55
 353 -133 353 -133 353 -70 c 2,56,-1
 353 834 l 2,57,58
 353 863 353 863 350 886.5 c 128,-1,59
 347 910 347 910 342 930 c 1,60,61
 324 936 324 936 303 938.5 c 128,-1,62
 282 941 282 941 259 941 c 2,63,-1
 176 941 l 1,64,-1
 176 1027 l 1,65,66
 244 1041 244 1041 336 1047.5 c 128,-1,67
 428 1054 428 1054 543 1054 c 0,68,69
 559 1054 559 1054 562.5 1039 c 128,-1,70
 566 1024 566 1024 566 1007 c 2,71,-1
 566 284 l 2,72,73
 566 242 566 242 573.5 206.5 c 128,-1,74
 581 171 581 171 600.5 145.5 c 128,-1,75
 620 120 620 120 655 105.5 c 128,-1,76
 690 91 690 91 745 91 c 0,77,78
 795 91 795 91 845 107.5 c 128,-1,79
 895 124 895 124 935.5 144.5 c 128,-1,80
 976 165 976 165 1001.5 183.5 c 128,-1,81
 1027 202 1027 202 1028 205 c 0,82,83
 1039 272 1039 272 1042 356 c 128,-1,84
 1045 440 1045 440 1045 531 c 2,85,-1
 1045 834 l 2,0,1
EndSplineSet
EndChar

StartChar: paragraph
Encoding: 182 182 123
Width: 1208
GlyphClass: 2
Flags: W
LayerCount: 2
Fore
SplineSet
797 1387 m 2,0,1
 894 1387 894 1387 977.5 1385 c 128,-1,2
 1061 1383 1061 1383 1124 1372 c 1,3,-1
 1124 1272 l 1,4,-1
 1032 1272 l 2,5,6
 1002 1272 1002 1272 976 1270.5 c 128,-1,7
 950 1269 950 1269 929 1261 c 1,8,9
 921 1238 921 1238 917.5 1209 c 128,-1,10
 914 1180 914 1180 914 1141 c 2,11,-1
 914 64 l 2,12,13
 914 -13 914 -13 930 -57 c 1,14,15
 952 -64 952 -64 977.5 -65 c 128,-1,16
 1003 -66 1003 -66 1033 -66 c 2,17,-1
 1122 -66 l 1,18,-1
 1122 -202 l 1,19,20
 1081 -198 1081 -198 1037 -194.5 c 128,-1,21
 993 -191 993 -191 948 -188.5 c 128,-1,22
 903 -186 903 -186 858.5 -184.5 c 128,-1,23
 814 -183 814 -183 774 -183 c 1,24,-1
 774 1311 l 1,25,-1
 620 1311 l 1,26,-1
 620 -183 l 1,27,28
 579 -183 579 -183 535 -184.5 c 128,-1,29
 491 -186 491 -186 446 -188.5 c 128,-1,30
 401 -191 401 -191 356.5 -194.5 c 128,-1,31
 312 -198 312 -198 272 -202 c 1,32,-1
 272 -66 l 1,33,-1
 361 -66 l 2,34,35
 391 -66 391 -66 416.5 -65 c 128,-1,36
 442 -64 442 -64 464 -57 c 1,37,38
 480 -13 480 -13 480 64 c 2,39,-1
 480 595 l 1,40,41
 375 595 375 595 299.5 624 c 128,-1,42
 224 653 224 653 176 706.5 c 128,-1,43
 128 760 128 760 105 835.5 c 128,-1,44
 82 911 82 911 82 1004 c 0,45,46
 82 1107 82 1107 117 1180 c 128,-1,47
 152 1253 152 1253 223.5 1299 c 128,-1,48
 295 1345 295 1345 402.5 1366 c 128,-1,49
 510 1387 510 1387 655 1387 c 2,50,-1
 797 1387 l 2,0,1
EndSplineSet
EndChar

StartChar: periodcentered
Encoding: 183 183 124
Width: 554
GlyphClass: 2
Flags: W
LayerCount: 2
Fore
SplineSet
166 597 m 0,0,1
 166 621 166 621 175 641.5 c 128,-1,2
 184 662 184 662 199.5 677 c 128,-1,3
 215 692 215 692 235.5 701 c 128,-1,4
 256 710 256 710 279 710 c 256,5,6
 302 710 302 710 322.5 701 c 128,-1,7
 343 692 343 692 358.5 677 c 128,-1,8
 374 662 374 662 383 641.5 c 128,-1,9
 392 621 392 621 392 597 c 0,10,11
 392 574 392 574 383 553.5 c 128,-1,12
 374 533 374 533 358.5 518 c 128,-1,13
 343 503 343 503 322.5 494 c 128,-1,14
 302 485 302 485 279 485 c 256,15,16
 256 485 256 485 235.5 494 c 128,-1,17
 215 503 215 503 199.5 518 c 128,-1,18
 184 533 184 533 175 553.5 c 128,-1,19
 166 574 166 574 166 597 c 0,0,1
EndSplineSet
EndChar

StartChar: cedilla
Encoding: 184 184 125
Width: 695
GlyphClass: 2
Flags: W
LayerCount: 2
Fore
SplineSet
129 -366 m 1,0,1
 162 -376 162 -376 197 -383 c 128,-1,2
 232 -390 232 -390 263 -390 c 0,3,4
 326 -390 326 -390 361.5 -363.5 c 128,-1,5
 397 -337 397 -337 397 -291 c 0,6,7
 397 -237 397 -237 369.5 -211 c 128,-1,8
 342 -185 342 -185 297 -178 c 1,9,10
 289 -178 289 -178 280 -180.5 c 128,-1,11
 271 -183 271 -183 260 -186 c 1,12,13
 248 -178 248 -178 235 -173.5 c 128,-1,14
 222 -169 222 -169 209 -163 c 1,15,-1
 294 11 l 1,16,-1
 395 11 l 1,17,-1
 339 -96 l 1,18,19
 391 -99 391 -99 432.5 -109 c 128,-1,20
 474 -119 474 -119 503 -139 c 128,-1,21
 532 -159 532 -159 548 -191.5 c 128,-1,22
 564 -224 564 -224 564 -272 c 0,23,24
 564 -330 564 -330 544.5 -372.5 c 128,-1,25
 525 -415 525 -415 490.5 -443 c 128,-1,26
 456 -471 456 -471 408.5 -484.5 c 128,-1,27
 361 -498 361 -498 306 -498 c 0,28,29
 243 -498 243 -498 199 -486 c 128,-1,30
 155 -474 155 -474 129 -457 c 1,31,32
 123 -441 123 -441 123 -417 c 256,33,34
 123 -393 123 -393 129 -366 c 1,0,1
EndSplineSet
EndChar

StartChar: onesuperior
Encoding: 185 185 126
Width: 707
GlyphClass: 2
Flags: W
LayerCount: 2
Fore
SplineSet
455 731 m 2,0,1
 455 705 455 705 457 687.5 c 128,-1,2
 459 670 459 670 463 656 c 1,3,4
 477 652 477 652 492.5 651 c 128,-1,5
 508 650 508 650 525 650 c 2,6,-1
 580 650 l 1,7,-1
 580 568 l 1,8,9
 529 575 529 575 483.5 577.5 c 128,-1,10
 438 580 438 580 395 580 c 0,11,12
 346 580 346 580 299.5 577 c 128,-1,13
 253 574 253 574 204 568 c 1,14,-1
 204 650 l 1,15,-1
 273 650 l 2,16,17
 286 650 286 650 298 651 c 128,-1,18
 310 652 310 652 320 656 c 1,19,20
 324 670 324 670 327 687.5 c 128,-1,21
 330 705 330 705 330 729 c 2,22,-1
 330 1330 l 1,23,24
 318 1339 318 1339 304.5 1343.5 c 128,-1,25
 291 1348 291 1348 272 1348 c 0,26,27
 264 1348 264 1348 255 1347 c 128,-1,28
 246 1346 246 1346 237 1345 c 2,29,-1
 179 1334 l 1,30,-1
 168 1391 l 1,31,32
 197 1401 197 1401 230 1413 c 128,-1,33
 263 1425 263 1425 296 1435 c 128,-1,34
 329 1445 329 1445 360 1451.5 c 128,-1,35
 391 1458 391 1458 417 1458 c 0,36,37
 434 1458 434 1458 442 1453 c 128,-1,38
 450 1448 450 1448 455 1440 c 1,39,-1
 455 731 l 2,0,1
EndSplineSet
EndChar

StartChar: ordmasculine
Encoding: 186 186 127
Width: 845
GlyphClass: 2
Flags: W
LayerCount: 2
Fore
SplineSet
773 1139 m 256,0,1
 773 1058 773 1058 746.5 994.5 c 128,-1,2
 720 931 720 931 673 887.5 c 128,-1,3
 626 844 626 844 562.5 821 c 128,-1,4
 499 798 499 798 424 798 c 256,5,6
 349 798 349 798 284.5 821 c 128,-1,7
 220 844 220 844 172.5 887.5 c 128,-1,8
 125 931 125 931 98.5 994.5 c 128,-1,9
 72 1058 72 1058 72 1139 c 256,10,11
 72 1220 72 1220 99 1284 c 128,-1,12
 126 1348 126 1348 173.5 1392.5 c 128,-1,13
 221 1437 221 1437 285 1460 c 128,-1,14
 349 1483 349 1483 424 1483 c 256,15,16
 499 1483 499 1483 562.5 1459.5 c 128,-1,17
 626 1436 626 1436 673 1392 c 128,-1,18
 720 1348 720 1348 746.5 1284 c 128,-1,19
 773 1220 773 1220 773 1139 c 256,0,1
425 1407 m 0,20,21
 331 1407 331 1407 287.5 1342.5 c 128,-1,22
 244 1278 244 1278 244 1140 c 256,23,24
 244 1002 244 1002 289.5 938.5 c 128,-1,25
 335 875 335 875 425 875 c 0,26,27
 516 875 516 875 559 939.5 c 128,-1,28
 602 1004 602 1004 602 1141 c 256,29,30
 602 1278 602 1278 559 1342.5 c 128,-1,31
 516 1407 516 1407 425 1407 c 0,20,21
EndSplineSet
EndChar

StartChar: guillemotright
Encoding: 187 187 128
Width: 1028
GlyphClass: 2
Flags: W
LayerCount: 2
Fore
SplineSet
284 162 m 2,0,1
 274 148 274 148 265.5 139 c 128,-1,2
 257 130 257 130 249 122 c 1,3,4
 236 122 236 122 223 126.5 c 128,-1,5
 210 131 210 131 193 140 c 2,6,-1
 133 171 l 1,7,-1
 366 548 l 1,8,-1
 146 925 l 1,9,-1
 196 948 l 2,10,11
 215 956 215 956 230 962 c 128,-1,12
 245 968 245 968 257 968 c 1,13,14
 265 960 265 960 274.5 951 c 128,-1,15
 284 942 284 942 294 928 c 2,16,-1
 509 612 l 1,17,18
 540 572 540 572 547 531 c 1,19,-1
 284 162 l 2,0,1
605 129 m 2,20,21
 594 114 594 114 585 105.5 c 128,-1,22
 576 97 576 97 568 89 c 1,23,24
 557 89 557 89 545.5 91.5 c 128,-1,25
 534 94 534 94 521 100 c 128,-1,26
 508 106 508 106 492.5 115 c 128,-1,27
 477 124 477 124 456 138 c 1,28,-1
 715 548 l 1,29,-1
 465 959 l 1,30,-1
 515 981 l 1,31,32
 534 992 534 992 550 997 c 128,-1,33
 566 1002 566 1002 577 1003 c 1,34,35
 585 995 585 995 594.5 985 c 128,-1,36
 604 975 604 975 613 962 c 2,37,-1
 856 612 l 1,38,39
 887 571 887 571 895 531 c 1,40,-1
 605 129 l 2,20,21
EndSplineSet
EndChar

